G75*
%MOIN*%
%OFA0B0*%
%FSLAX24Y24*%
%IPPOS*%
%LPD*%
%AMOC8*
5,1,8,0,0,1.08239X$1,22.5*
%
%ADD10R,0.0197X0.0552*%
%ADD11R,0.0198X0.0552*%
%ADD12R,0.0552X0.0197*%
%ADD13R,0.0631X0.0474*%
%ADD14R,0.0671X0.0592*%
%ADD15R,0.0592X0.0671*%
%ADD16C,0.0830*%
%ADD17C,0.1130*%
%ADD18R,0.0560X0.0960*%
%ADD19R,0.1497X0.0946*%
%ADD20R,0.0474X0.1891*%
%ADD21R,0.0710X0.1419*%
%ADD22R,0.0552X0.0395*%
%ADD23R,0.0950X0.0320*%
%ADD24C,0.0820*%
%ADD25R,0.0867X0.0474*%
%ADD26R,0.0820X0.0820*%
%ADD27R,0.1064X0.0946*%
%ADD28R,0.0277X0.0867*%
%ADD29R,0.0395X0.0789*%
%ADD30R,0.0356X0.0789*%
%ADD31R,0.0789X0.0710*%
%ADD32R,0.0316X0.0749*%
%ADD33C,0.0050*%
%ADD34R,0.0552X0.0297*%
%ADD35R,0.0513X0.0316*%
%ADD36C,0.0370*%
D10*
X010579Y009501D03*
X010775Y009501D03*
X010972Y009501D03*
X011169Y009501D03*
X011366Y009501D03*
X011563Y009501D03*
X011760Y009501D03*
X011957Y009501D03*
X012153Y009501D03*
X012350Y009501D03*
X012547Y009501D03*
X012744Y009501D03*
X012941Y009501D03*
X013138Y009501D03*
X013335Y009501D03*
X013531Y009501D03*
X013531Y013989D03*
X013335Y013989D03*
X012941Y013989D03*
X012744Y013989D03*
X012547Y013989D03*
X012350Y013989D03*
X012153Y013989D03*
X011957Y013989D03*
X011760Y013989D03*
X011563Y013989D03*
X011366Y013989D03*
X011169Y013989D03*
X010972Y013989D03*
X010775Y013989D03*
X010579Y013989D03*
D11*
X013138Y013989D03*
D12*
X014299Y013222D03*
X014299Y013025D03*
X014299Y012828D03*
X014299Y012631D03*
X014299Y012434D03*
X014299Y012237D03*
X014299Y012041D03*
X014299Y011844D03*
X014299Y011647D03*
X014299Y011450D03*
X014299Y011253D03*
X014299Y011056D03*
X014299Y010860D03*
X014299Y010663D03*
X014299Y010466D03*
X014299Y010269D03*
X009811Y010269D03*
X009811Y010466D03*
X009811Y010663D03*
X009811Y010860D03*
X009811Y011056D03*
X009811Y011253D03*
X009811Y011450D03*
X009811Y011647D03*
X009811Y011844D03*
X009811Y012041D03*
X009811Y012237D03*
X009811Y012434D03*
X009811Y012631D03*
X009811Y012828D03*
X009811Y013025D03*
X009811Y013222D03*
D13*
X021872Y003744D03*
X021872Y002996D03*
X022738Y003370D03*
D14*
X020180Y004911D03*
X020180Y005580D03*
X018055Y010536D03*
X018055Y011205D03*
X018055Y012411D03*
X018055Y013080D03*
X016430Y012911D03*
X016430Y013580D03*
X015305Y013580D03*
X015305Y012911D03*
X015305Y017161D03*
X015305Y017830D03*
X016305Y017830D03*
X016305Y017161D03*
X004180Y011455D03*
X004180Y010786D03*
X003180Y010786D03*
X003180Y011455D03*
X002180Y011455D03*
X002180Y010786D03*
X005180Y003455D03*
X005180Y002786D03*
X006180Y002786D03*
X006180Y003455D03*
X008055Y003455D03*
X008055Y002786D03*
D15*
X007515Y006120D03*
X006845Y006120D03*
X006845Y007620D03*
X007515Y007620D03*
X007515Y008620D03*
X006845Y008620D03*
X006845Y009620D03*
X007515Y009620D03*
X005515Y009620D03*
X004845Y009620D03*
X003640Y013245D03*
X002970Y013245D03*
X003015Y014120D03*
X002345Y014120D03*
X002345Y014995D03*
X003015Y014995D03*
X006720Y014995D03*
X007390Y014995D03*
X020095Y013870D03*
X020765Y013870D03*
X020765Y012495D03*
X020095Y012495D03*
D16*
X002555Y017370D03*
D17*
X001551Y016366D03*
X003559Y016366D03*
X003559Y018374D03*
X001551Y018374D03*
D18*
X002020Y006400D03*
X002930Y006400D03*
X003840Y006400D03*
D19*
X002930Y008840D03*
D20*
X002824Y003577D03*
X002036Y003577D03*
D21*
X001091Y001530D03*
X003769Y001530D03*
D22*
X001305Y013141D03*
X001305Y013850D03*
X001305Y014391D03*
X001305Y015100D03*
D23*
X020650Y011370D03*
X020650Y010870D03*
X020650Y010370D03*
X020650Y009870D03*
X022710Y009870D03*
X022710Y010370D03*
X022710Y010870D03*
X022710Y011370D03*
D24*
X014180Y017195D03*
X013180Y017295D03*
X012180Y017195D03*
X011180Y017295D03*
X010180Y017195D03*
X014930Y003745D03*
X015930Y003745D03*
X016930Y003745D03*
X017930Y003745D03*
X018930Y003745D03*
D25*
X022911Y015168D03*
X022911Y017924D03*
D26*
X019930Y003745D03*
D27*
X012709Y003408D03*
X012709Y001321D03*
X009401Y001321D03*
X009401Y003408D03*
D28*
X010425Y003506D03*
X010740Y003506D03*
X011055Y003506D03*
X011370Y003506D03*
X011685Y003506D03*
D29*
X017986Y014922D03*
X018419Y014922D03*
X018852Y014922D03*
X019285Y014922D03*
X019718Y014922D03*
X020151Y014922D03*
X020585Y014922D03*
X020585Y018662D03*
X020151Y018662D03*
X019718Y018662D03*
X019285Y018662D03*
X018852Y018662D03*
X018419Y018662D03*
X017986Y018662D03*
D30*
X017573Y018662D03*
X020998Y018662D03*
X020998Y014922D03*
X017573Y014922D03*
D31*
X013055Y008047D03*
X012055Y008047D03*
X012055Y006944D03*
X013055Y006944D03*
D32*
X016287Y006870D03*
X016287Y005620D03*
X017823Y005620D03*
X017823Y006870D03*
X021287Y004995D03*
X022823Y004995D03*
D33*
X022980Y004978D02*
X022665Y004978D01*
X022665Y004936D02*
X022665Y005054D01*
X022468Y005054D01*
X022468Y005369D01*
X022980Y005369D01*
X022980Y004621D01*
X022468Y004621D01*
X022468Y004936D01*
X022665Y004936D01*
X022665Y005026D02*
X022980Y005026D01*
X022980Y005075D02*
X022468Y005075D01*
X022468Y005123D02*
X022980Y005123D01*
X022980Y005172D02*
X022468Y005172D01*
X022468Y005220D02*
X022980Y005220D01*
X022980Y005269D02*
X022468Y005269D01*
X022468Y005317D02*
X022980Y005317D01*
X022980Y005366D02*
X022468Y005366D01*
X022468Y004929D02*
X022980Y004929D01*
X022980Y004881D02*
X022468Y004881D01*
X022468Y004832D02*
X022980Y004832D01*
X022980Y004784D02*
X022468Y004784D01*
X022468Y004735D02*
X022980Y004735D01*
X022980Y004687D02*
X022468Y004687D01*
X022468Y004638D02*
X022980Y004638D01*
X021642Y004638D02*
X021130Y004638D01*
X021130Y004621D02*
X021130Y005369D01*
X021642Y005369D01*
X021642Y005054D01*
X021445Y005054D01*
X021445Y004936D01*
X021642Y004936D01*
X021642Y004621D01*
X021130Y004621D01*
X021130Y004687D02*
X021642Y004687D01*
X021642Y004735D02*
X021130Y004735D01*
X021130Y004784D02*
X021642Y004784D01*
X021642Y004832D02*
X021130Y004832D01*
X021130Y004881D02*
X021642Y004881D01*
X021642Y004929D02*
X021130Y004929D01*
X021130Y004978D02*
X021445Y004978D01*
X021445Y005026D02*
X021130Y005026D01*
X021130Y005075D02*
X021642Y005075D01*
X021642Y005123D02*
X021130Y005123D01*
X021130Y005172D02*
X021642Y005172D01*
X021642Y005220D02*
X021130Y005220D01*
X021130Y005269D02*
X021642Y005269D01*
X021642Y005317D02*
X021130Y005317D01*
X021130Y005366D02*
X021642Y005366D01*
X017980Y005366D02*
X017468Y005366D01*
X017468Y005414D02*
X017980Y005414D01*
X017980Y005463D02*
X017468Y005463D01*
X017468Y005511D02*
X017980Y005511D01*
X017980Y005560D02*
X017468Y005560D01*
X017468Y005561D02*
X017665Y005561D01*
X017665Y005679D01*
X017468Y005679D01*
X017468Y005994D01*
X017980Y005994D01*
X017980Y005246D01*
X017468Y005246D01*
X017468Y005561D01*
X017468Y005705D02*
X017980Y005705D01*
X017980Y005657D02*
X017665Y005657D01*
X017665Y005608D02*
X017980Y005608D01*
X017980Y005754D02*
X017468Y005754D01*
X017468Y005802D02*
X017980Y005802D01*
X017980Y005851D02*
X017468Y005851D01*
X017468Y005899D02*
X017980Y005899D01*
X017980Y005948D02*
X017468Y005948D01*
X017468Y006496D02*
X017468Y006811D01*
X017665Y006811D01*
X017665Y006929D01*
X017468Y006929D01*
X017468Y007244D01*
X017980Y007244D01*
X017980Y006496D01*
X017468Y006496D01*
X017468Y006530D02*
X017980Y006530D01*
X017980Y006578D02*
X017468Y006578D01*
X017468Y006627D02*
X017980Y006627D01*
X017980Y006675D02*
X017468Y006675D01*
X017468Y006724D02*
X017980Y006724D01*
X017980Y006772D02*
X017468Y006772D01*
X017468Y006966D02*
X017980Y006966D01*
X017980Y006918D02*
X017665Y006918D01*
X017665Y006869D02*
X017980Y006869D01*
X017980Y006821D02*
X017665Y006821D01*
X017468Y007015D02*
X017980Y007015D01*
X017980Y007063D02*
X017468Y007063D01*
X017468Y007112D02*
X017980Y007112D01*
X017980Y007160D02*
X017468Y007160D01*
X017468Y007209D02*
X017980Y007209D01*
X016642Y007209D02*
X016130Y007209D01*
X016130Y007244D02*
X016642Y007244D01*
X016642Y006929D01*
X016445Y006929D01*
X016445Y006811D01*
X016642Y006811D01*
X016642Y006496D01*
X016130Y006496D01*
X016130Y007244D01*
X016130Y007160D02*
X016642Y007160D01*
X016642Y007112D02*
X016130Y007112D01*
X016130Y007063D02*
X016642Y007063D01*
X016642Y007015D02*
X016130Y007015D01*
X016130Y006966D02*
X016642Y006966D01*
X016642Y006772D02*
X016130Y006772D01*
X016130Y006724D02*
X016642Y006724D01*
X016642Y006675D02*
X016130Y006675D01*
X016130Y006627D02*
X016642Y006627D01*
X016642Y006578D02*
X016130Y006578D01*
X016130Y006530D02*
X016642Y006530D01*
X016445Y006821D02*
X016130Y006821D01*
X016130Y006869D02*
X016445Y006869D01*
X016445Y006918D02*
X016130Y006918D01*
X016130Y005994D02*
X016130Y005246D01*
X016642Y005246D01*
X016642Y005561D01*
X016445Y005561D01*
X016445Y005679D01*
X016642Y005679D01*
X016642Y005994D01*
X016130Y005994D01*
X016130Y005948D02*
X016642Y005948D01*
X016642Y005899D02*
X016130Y005899D01*
X016130Y005851D02*
X016642Y005851D01*
X016642Y005802D02*
X016130Y005802D01*
X016130Y005754D02*
X016642Y005754D01*
X016642Y005705D02*
X016130Y005705D01*
X016130Y005657D02*
X016445Y005657D01*
X016445Y005608D02*
X016130Y005608D01*
X016130Y005560D02*
X016642Y005560D01*
X016642Y005511D02*
X016130Y005511D01*
X016130Y005463D02*
X016642Y005463D01*
X016642Y005414D02*
X016130Y005414D01*
X016130Y005366D02*
X016642Y005366D01*
X016642Y005317D02*
X016130Y005317D01*
X016130Y005269D02*
X016642Y005269D01*
X017468Y005269D02*
X017980Y005269D01*
X017980Y005317D02*
X017468Y005317D01*
D34*
X014067Y005619D03*
X014067Y004871D03*
X013043Y004871D03*
X013043Y005245D03*
X013043Y005619D03*
D35*
X020908Y006783D03*
X020908Y007275D03*
X020908Y007767D03*
X020908Y008259D03*
X021774Y008259D03*
X021774Y007767D03*
X021774Y007275D03*
X021774Y006783D03*
D36*
X022430Y006245D03*
X022805Y005870D03*
X022805Y004120D03*
X021055Y003745D03*
X019805Y001620D03*
X019805Y006245D03*
X019805Y006870D03*
X018930Y006870D03*
X018305Y007870D03*
X018180Y009120D03*
X019805Y009120D03*
X021180Y009120D03*
X022430Y007820D03*
X019680Y010870D03*
X018930Y010870D03*
X017430Y011745D03*
X016930Y011245D03*
X015805Y010995D03*
X015805Y009120D03*
X015180Y008745D03*
X014055Y006870D03*
X012180Y005495D03*
X012430Y004995D03*
X011680Y005120D03*
X011305Y004620D03*
X010930Y004870D03*
X010555Y004620D03*
X010180Y005745D03*
X011555Y005995D03*
X008430Y006870D03*
X006555Y004495D03*
X006930Y003495D03*
X006555Y001620D03*
X005680Y006120D03*
X004180Y007745D03*
X001055Y004620D03*
X008555Y010245D03*
X008555Y011370D03*
X008555Y011995D03*
X008305Y012495D03*
X008055Y013120D03*
X008180Y014995D03*
X010180Y016120D03*
X011055Y014995D03*
X011555Y015370D03*
X012680Y014620D03*
X012305Y012995D03*
X013055Y011995D03*
X013055Y011120D03*
X013430Y010745D03*
X012555Y010245D03*
X011805Y010245D03*
X011305Y010620D03*
X010805Y010620D03*
X012055Y010995D03*
X013555Y012870D03*
X015430Y014620D03*
X015180Y014995D03*
X015930Y014245D03*
X017680Y015745D03*
X016180Y016120D03*
X017680Y017495D03*
X018930Y017120D03*
X019305Y017620D03*
X020430Y017495D03*
X020430Y015745D03*
X019305Y013870D03*
X018930Y013495D03*
X018555Y013870D03*
X019805Y013245D03*
X022430Y013245D03*
X016305Y018995D03*
X004305Y014120D03*
X002055Y013120D03*
X013805Y002370D03*
X013805Y001620D03*
M02*
