%
M48
M72
T01C0.0130
T02C0.0400
T03C0.0500
T04C0.0700
%
T01
X1055Y4620
X4180Y7745
X5680Y6120
X6555Y4495
X6930Y3495
X6555Y1620
X10555Y4620
X10930Y4870
X11305Y4620
X11680Y5120
X12180Y5495
X12430Y4995
X11555Y5995
X10180Y5745
X8430Y6870
X8555Y10245
X8555Y11370
X8555Y11995
X8305Y12495
X8055Y13120
X8180Y14995
X10180Y16120
X11055Y14995
X11555Y15370
X12680Y14620
X12305Y12995
X13055Y11995
X13055Y11120
X13430Y10745
X12555Y10245
X11805Y10245
X11305Y10620
X10805Y10620
X12055Y10995
X13555Y12870
X15430Y14620
X15180Y14995
X15930Y14245
X17680Y15745
X16180Y16120
X17680Y17495
X18930Y17120
X19305Y17620
X20430Y17495
X20430Y15745
X19305Y13870
X18930Y13495
X18555Y13870
X19805Y13245
X17430Y11745
X16930Y11245
X15805Y10995
X15805Y9120
X15180Y8745
X14055Y6870
X18180Y9120
X18305Y7870
X18930Y6870
X19805Y6870
X19805Y6245
X22430Y6245
X22805Y5870
X22805Y4120
X21055Y3745
X19805Y1620
X13805Y1620
X13805Y2370
X19805Y9120
X21180Y9120
X22430Y7820
X19680Y10870
X18930Y10870
X22430Y13245
X16305Y18995
X4305Y14120
X2055Y13120
T02
X10180Y17195
X11180Y17295
X12180Y17195
X13180Y17295
X14180Y17195
X14930Y3745
X15930Y3745
X16930Y3745
X17930Y3745
X18930Y3745
X19930Y3745
T03
X2555Y17370
T04
X1551Y16366
X3559Y16366
X3559Y18374
X1551Y18374
M30
