G75*
%MOIN*%
%OFA0B0*%
%FSLAX24Y24*%
%IPPOS*%
%LPD*%
%AMOC8*
5,1,8,0,0,1.08239X$1,22.5*
%
%ADD10R,0.0787X0.0709*%
%ADD11R,0.0709X0.0787*%
%ADD12R,0.2598X0.0787*%
%ADD13R,0.3150X0.0787*%
%ADD14R,0.2362X0.3031*%
%ADD15R,0.1181X0.0984*%
%ADD16C,0.0750*%
%ADD17C,0.1050*%
%ADD18C,0.0740*%
%ADD19R,0.0740X0.0740*%
%ADD20C,0.0160*%
%ADD21C,0.0290*%
%ADD22C,0.0100*%
%ADD23C,0.0240*%
D10*
X002755Y003114D03*
X002755Y004866D03*
X002755Y006618D03*
X002755Y008370D03*
X002755Y010122D03*
X002755Y011874D03*
X002755Y013626D03*
X009605Y013626D03*
X009605Y011874D03*
X009605Y010122D03*
X009605Y008370D03*
X009605Y006618D03*
X009605Y004866D03*
X009605Y003114D03*
D11*
X008897Y015063D03*
X007086Y015063D03*
X005274Y015063D03*
X003463Y015063D03*
D12*
X008621Y001677D03*
D13*
X004015Y001677D03*
D14*
X006377Y012681D03*
D15*
X020305Y012282D03*
X020305Y004959D03*
D16*
X002555Y017370D03*
D17*
X001551Y016366D03*
X003559Y016366D03*
X003559Y018374D03*
X001551Y018374D03*
D18*
X010180Y017195D03*
X011180Y017295D03*
X012180Y017195D03*
X013180Y017295D03*
X014180Y017195D03*
X014930Y003745D03*
X015930Y003745D03*
X016930Y003745D03*
X017930Y003745D03*
X018930Y003745D03*
D19*
X019930Y003745D03*
D20*
X000660Y000850D02*
X000660Y019575D01*
X021440Y019575D01*
X021440Y014150D01*
X023322Y014150D01*
X023322Y000850D01*
X000660Y000850D01*
X000660Y001004D02*
X023322Y001004D01*
X023322Y001163D02*
X010054Y001163D01*
X010064Y001173D02*
X010088Y001214D01*
X010100Y001260D01*
X010100Y001597D01*
X008701Y001597D01*
X008701Y001104D01*
X009944Y001104D01*
X009990Y001116D01*
X010031Y001140D01*
X010064Y001173D01*
X010100Y001321D02*
X023322Y001321D01*
X023322Y001480D02*
X010100Y001480D01*
X010100Y001757D02*
X010100Y002095D01*
X010088Y002141D01*
X010064Y002182D01*
X010031Y002215D01*
X009990Y002239D01*
X009944Y002251D01*
X008701Y002251D01*
X008701Y001757D01*
X010100Y001757D01*
X010100Y001797D02*
X023322Y001797D01*
X023322Y001955D02*
X010100Y001955D01*
X010095Y002114D02*
X013630Y002114D01*
X013632Y002112D02*
X013744Y002065D01*
X013866Y002065D01*
X013978Y002112D01*
X014064Y002198D01*
X014110Y002310D01*
X014110Y002431D01*
X014064Y002543D01*
X013978Y002629D01*
X013917Y002654D01*
X012417Y004154D01*
X012339Y004233D01*
X012236Y004275D01*
X007374Y004275D01*
X007271Y004233D01*
X006818Y003779D01*
X006757Y003754D01*
X006671Y003668D01*
X006625Y003556D01*
X006625Y003435D01*
X006671Y003323D01*
X006757Y003237D01*
X006869Y003190D01*
X006991Y003190D01*
X007103Y003237D01*
X007189Y003323D01*
X007214Y003383D01*
X007546Y003715D01*
X012064Y003715D01*
X013521Y002258D01*
X013546Y002198D01*
X013632Y002112D01*
X013507Y002272D02*
X000660Y002272D01*
X000660Y002114D02*
X002265Y002114D01*
X002260Y002095D02*
X002260Y001757D01*
X003935Y001757D01*
X003935Y001597D01*
X004095Y001597D01*
X004095Y001757D01*
X005769Y001757D01*
X005769Y002095D01*
X005757Y002141D01*
X005733Y002182D01*
X005700Y002215D01*
X005659Y002239D01*
X005613Y002251D01*
X004095Y002251D01*
X004095Y001757D01*
X003935Y001757D01*
X003935Y002251D01*
X002416Y002251D01*
X002370Y002239D01*
X002329Y002215D01*
X002296Y002182D01*
X002272Y002141D01*
X002260Y002095D01*
X002260Y001955D02*
X000660Y001955D01*
X000660Y001797D02*
X002260Y001797D01*
X002260Y001597D02*
X002260Y001260D01*
X002272Y001214D01*
X002296Y001173D01*
X002329Y001140D01*
X002370Y001116D01*
X002416Y001104D01*
X003935Y001104D01*
X003935Y001597D01*
X002260Y001597D01*
X002260Y001480D02*
X000660Y001480D01*
X000660Y001638D02*
X003935Y001638D01*
X003935Y001480D02*
X004095Y001480D01*
X004095Y001597D02*
X004095Y001104D01*
X005613Y001104D01*
X005659Y001116D01*
X005700Y001140D01*
X005733Y001173D01*
X005757Y001214D01*
X005769Y001260D01*
X005769Y001597D01*
X004095Y001597D01*
X004095Y001638D02*
X008541Y001638D01*
X008541Y001597D02*
X007142Y001597D01*
X007142Y001260D01*
X007154Y001214D01*
X007178Y001173D01*
X007211Y001140D01*
X007252Y001116D01*
X007298Y001104D01*
X008541Y001104D01*
X008541Y001597D01*
X008701Y001597D01*
X008701Y001757D01*
X008541Y001757D01*
X008541Y001597D01*
X008541Y001480D02*
X008701Y001480D01*
X008701Y001638D02*
X023322Y001638D01*
X023322Y002114D02*
X013980Y002114D01*
X014095Y002272D02*
X023322Y002272D01*
X023322Y002431D02*
X020037Y002431D01*
X020017Y002410D02*
X021047Y003440D01*
X021116Y003440D01*
X021228Y003487D01*
X021314Y003573D01*
X021360Y003685D01*
X021360Y003806D01*
X021314Y003918D01*
X021228Y004004D01*
X021116Y004050D01*
X020994Y004050D01*
X020882Y004004D01*
X020796Y003918D01*
X020750Y003806D01*
X020750Y003737D01*
X020460Y003447D01*
X020460Y004182D01*
X020366Y004275D01*
X019494Y004275D01*
X019400Y004182D01*
X019400Y003996D01*
X019379Y004046D01*
X019230Y004195D01*
X019035Y004275D01*
X018825Y004275D01*
X018630Y004195D01*
X018481Y004046D01*
X018441Y003951D01*
X018440Y003956D01*
X018400Y004034D01*
X018350Y004104D01*
X018288Y004165D01*
X018218Y004216D01*
X018141Y004255D01*
X018059Y004282D01*
X017973Y004295D01*
X017950Y004295D01*
X017950Y003765D01*
X017910Y003765D01*
X017910Y004295D01*
X017887Y004295D01*
X017801Y004282D01*
X017719Y004255D01*
X017642Y004216D01*
X017572Y004165D01*
X017510Y004104D01*
X017460Y004034D01*
X017420Y003956D01*
X017419Y003951D01*
X017379Y004046D01*
X017230Y004195D01*
X017210Y004203D01*
X017210Y011124D01*
X017235Y011185D01*
X017235Y011306D01*
X017189Y011418D01*
X017103Y011504D01*
X016991Y011550D01*
X016869Y011550D01*
X016757Y011504D01*
X016671Y011418D01*
X016625Y011306D01*
X016625Y011185D01*
X016650Y011124D01*
X016650Y004203D01*
X016630Y004195D01*
X016481Y004046D01*
X016430Y003923D01*
X016379Y004046D01*
X016230Y004195D01*
X016035Y004275D01*
X015825Y004275D01*
X015630Y004195D01*
X015481Y004046D01*
X015430Y003923D01*
X015379Y004046D01*
X015230Y004195D01*
X015035Y004275D01*
X014825Y004275D01*
X014630Y004195D01*
X014515Y004080D01*
X014515Y004158D01*
X015390Y005033D01*
X015390Y008207D01*
X015157Y008440D01*
X015241Y008440D01*
X015353Y008487D01*
X015439Y008573D01*
X015485Y008685D01*
X015485Y008806D01*
X015439Y008918D01*
X015353Y009004D01*
X015241Y009050D01*
X015172Y009050D01*
X015140Y009082D01*
X015140Y014523D01*
X015171Y014448D01*
X015257Y014362D01*
X015369Y014315D01*
X015491Y014315D01*
X015603Y014362D01*
X015651Y014410D01*
X016468Y014410D01*
X017593Y013285D01*
X018709Y013285D01*
X018757Y013237D01*
X018869Y013190D01*
X018991Y013190D01*
X019103Y013237D01*
X019189Y013323D01*
X019235Y013435D01*
X019235Y013556D01*
X019228Y013572D01*
X019244Y013565D01*
X019366Y013565D01*
X019478Y013612D01*
X019564Y013698D01*
X019610Y013810D01*
X019610Y013931D01*
X019564Y014043D01*
X019515Y014092D01*
X019515Y017399D01*
X019564Y017448D01*
X019610Y017560D01*
X019610Y017681D01*
X019564Y017793D01*
X019478Y017879D01*
X019366Y017925D01*
X019244Y017925D01*
X019132Y017879D01*
X019046Y017793D01*
X019000Y017681D01*
X019000Y017560D01*
X019046Y017448D01*
X019095Y017399D01*
X019095Y017382D01*
X018991Y017425D01*
X018869Y017425D01*
X018757Y017379D01*
X018671Y017293D01*
X018625Y017181D01*
X018625Y017060D01*
X018671Y016948D01*
X018720Y016899D01*
X018720Y014132D01*
X018616Y014175D01*
X018494Y014175D01*
X018382Y014129D01*
X018334Y014080D01*
X017892Y014080D01*
X016890Y015082D01*
X016767Y015205D01*
X015401Y015205D01*
X015353Y015254D01*
X015241Y015300D01*
X015119Y015300D01*
X015007Y015254D01*
X014921Y015168D01*
X014875Y015056D01*
X014875Y014935D01*
X014921Y014823D01*
X015007Y014737D01*
X015119Y014690D01*
X015129Y014690D01*
X015125Y014681D01*
X015125Y014597D01*
X012903Y016819D01*
X012969Y016786D01*
X013051Y016759D01*
X013137Y016745D01*
X013160Y016745D01*
X013160Y017275D01*
X013200Y017275D01*
X013200Y016745D01*
X013223Y016745D01*
X013309Y016759D01*
X013391Y016786D01*
X013468Y016825D01*
X013538Y016876D01*
X013600Y016937D01*
X013650Y017007D01*
X013669Y017044D01*
X013731Y016895D01*
X013880Y016746D01*
X014075Y016665D01*
X014285Y016665D01*
X014480Y016746D01*
X014629Y016895D01*
X014710Y017090D01*
X014710Y017301D01*
X014629Y017496D01*
X014480Y017645D01*
X014285Y017725D01*
X014075Y017725D01*
X013880Y017645D01*
X013731Y017496D01*
X013710Y017445D01*
X013690Y017506D01*
X013650Y017584D01*
X013600Y017654D01*
X013538Y017715D01*
X013468Y017766D01*
X013391Y017805D01*
X013309Y017832D01*
X013223Y017845D01*
X013200Y017845D01*
X013200Y017315D01*
X013160Y017315D01*
X013160Y017845D01*
X013137Y017845D01*
X013051Y017832D01*
X012969Y017805D01*
X012892Y017766D01*
X012822Y017715D01*
X012760Y017654D01*
X012710Y017584D01*
X012670Y017506D01*
X012650Y017445D01*
X012629Y017496D01*
X012480Y017645D01*
X012285Y017725D01*
X012075Y017725D01*
X011880Y017645D01*
X011731Y017496D01*
X011701Y017423D01*
X011629Y017596D01*
X011480Y017745D01*
X011285Y017825D01*
X011075Y017825D01*
X010880Y017745D01*
X010731Y017596D01*
X010659Y017423D01*
X010629Y017496D01*
X010480Y017645D01*
X010285Y017725D01*
X010075Y017725D01*
X009880Y017645D01*
X009731Y017496D01*
X009650Y017301D01*
X009650Y017090D01*
X009731Y016895D01*
X009880Y016746D01*
X010075Y016665D01*
X010285Y016665D01*
X010480Y016746D01*
X010629Y016895D01*
X010701Y017068D01*
X010731Y016995D01*
X010880Y016846D01*
X011075Y016765D01*
X011285Y016765D01*
X011480Y016846D01*
X011629Y016995D01*
X011659Y017068D01*
X011731Y016895D01*
X011880Y016746D01*
X012075Y016665D01*
X012285Y016665D01*
X012411Y016717D01*
X013548Y015580D01*
X011776Y015580D01*
X011728Y015629D01*
X011616Y015675D01*
X011494Y015675D01*
X011382Y015629D01*
X011296Y015543D01*
X011250Y015431D01*
X011250Y015310D01*
X011293Y015205D01*
X011276Y015205D01*
X011228Y015254D01*
X011116Y015300D01*
X010994Y015300D01*
X010882Y015254D01*
X010796Y015168D01*
X010750Y015056D01*
X010750Y014935D01*
X010796Y014823D01*
X010882Y014737D01*
X010994Y014690D01*
X011116Y014690D01*
X011228Y014737D01*
X011276Y014785D01*
X012418Y014785D01*
X012375Y014681D01*
X012375Y014560D01*
X012380Y014548D01*
X012318Y014455D01*
X009093Y014455D01*
X008970Y014332D01*
X008063Y013425D01*
X007994Y013425D01*
X007882Y013379D01*
X007796Y013293D01*
X007750Y013181D01*
X007750Y013060D01*
X007796Y012948D01*
X007882Y012862D01*
X007994Y012815D01*
X008116Y012815D01*
X008228Y012862D01*
X008314Y012948D01*
X008360Y013060D01*
X008360Y013128D01*
X009051Y013820D01*
X009051Y013206D01*
X009145Y013112D01*
X010065Y013112D01*
X010159Y013206D01*
X010159Y013416D01*
X010337Y013416D01*
X012345Y011408D01*
X012345Y011092D01*
X012314Y011168D01*
X012228Y011254D01*
X012116Y011300D01*
X012047Y011300D01*
X010515Y012832D01*
X010392Y012955D01*
X008468Y012955D01*
X008313Y012800D01*
X008244Y012800D01*
X008132Y012754D01*
X008046Y012668D01*
X008000Y012556D01*
X008000Y012435D01*
X008046Y012323D01*
X008132Y012237D01*
X008244Y012190D01*
X008366Y012190D01*
X008478Y012237D01*
X008564Y012323D01*
X008610Y012435D01*
X008610Y012503D01*
X008642Y012535D01*
X010218Y012535D01*
X011750Y011003D01*
X011750Y010935D01*
X011796Y010823D01*
X011882Y010737D01*
X011994Y010690D01*
X012116Y010690D01*
X012228Y010737D01*
X012314Y010823D01*
X012345Y010898D01*
X012345Y010467D01*
X012296Y010418D01*
X012250Y010306D01*
X012250Y010185D01*
X012296Y010073D01*
X012382Y009987D01*
X012494Y009940D01*
X012616Y009940D01*
X012728Y009987D01*
X012814Y010073D01*
X012845Y010148D01*
X012845Y009707D01*
X012593Y009455D01*
X007218Y009455D01*
X004593Y006830D01*
X003309Y006830D01*
X003309Y007039D01*
X003215Y007133D01*
X002295Y007133D01*
X002201Y007039D01*
X002201Y006198D01*
X002295Y006104D01*
X003215Y006104D01*
X003309Y006198D01*
X003309Y006410D01*
X004767Y006410D01*
X004890Y006533D01*
X007392Y009035D01*
X012767Y009035D01*
X012890Y009158D01*
X013220Y009488D01*
X013220Y007957D01*
X012968Y007705D01*
X006218Y007705D01*
X006095Y007582D01*
X003589Y005076D01*
X003309Y005076D01*
X003309Y005287D01*
X003215Y005381D01*
X002295Y005381D01*
X002201Y005287D01*
X002201Y004446D01*
X002295Y004352D01*
X003215Y004352D01*
X003309Y004446D01*
X003309Y004656D01*
X003763Y004656D01*
X006392Y007285D01*
X013142Y007285D01*
X013517Y007660D01*
X013640Y007783D01*
X013640Y010524D01*
X013689Y010573D01*
X013735Y010685D01*
X013735Y010806D01*
X013689Y010918D01*
X013603Y011004D01*
X013491Y011050D01*
X013369Y011050D01*
X013353Y011044D01*
X013360Y011060D01*
X013360Y011181D01*
X013314Y011293D01*
X013228Y011379D01*
X013116Y011425D01*
X012994Y011425D01*
X012882Y011379D01*
X012796Y011293D01*
X012765Y011217D01*
X012765Y011582D01*
X010511Y013836D01*
X010159Y013836D01*
X010159Y014035D01*
X012366Y014035D01*
X012386Y014022D01*
X012451Y014035D01*
X012517Y014035D01*
X012534Y014052D01*
X012556Y014056D01*
X012593Y014112D01*
X012640Y014158D01*
X012640Y014182D01*
X012729Y014315D01*
X012741Y014315D01*
X012853Y014362D01*
X012939Y014448D01*
X012985Y014560D01*
X012985Y014681D01*
X012942Y014785D01*
X013593Y014785D01*
X014220Y014158D01*
X014220Y012502D01*
X013860Y012862D01*
X013860Y012931D01*
X013814Y013043D01*
X013728Y013129D01*
X013616Y013175D01*
X013494Y013175D01*
X013382Y013129D01*
X013296Y013043D01*
X013250Y012931D01*
X013250Y012810D01*
X013296Y012698D01*
X013382Y012612D01*
X013494Y012565D01*
X013563Y012565D01*
X013970Y012158D01*
X013970Y008283D01*
X014470Y007783D01*
X014470Y005457D01*
X013718Y004705D01*
X013595Y004582D01*
X013595Y003158D01*
X014343Y002410D01*
X020017Y002410D01*
X020196Y002589D02*
X023322Y002589D01*
X023322Y002748D02*
X020354Y002748D01*
X020513Y002906D02*
X023322Y002906D01*
X023322Y003065D02*
X020671Y003065D01*
X020830Y003223D02*
X023322Y003223D01*
X023322Y003382D02*
X020988Y003382D01*
X021281Y003540D02*
X023322Y003540D01*
X023322Y003699D02*
X021360Y003699D01*
X021339Y003857D02*
X022643Y003857D01*
X022632Y003862D02*
X022744Y003815D01*
X022866Y003815D01*
X022978Y003862D01*
X023064Y003948D01*
X023110Y004060D01*
X023110Y004181D01*
X023064Y004293D01*
X022978Y004379D01*
X022866Y004425D01*
X022797Y004425D01*
X022053Y005169D01*
X021056Y005169D01*
X021056Y005517D01*
X020962Y005611D01*
X019648Y005611D01*
X019554Y005517D01*
X019554Y004401D01*
X019648Y004307D01*
X020962Y004307D01*
X021056Y004401D01*
X021056Y004749D01*
X021879Y004749D01*
X022500Y004128D01*
X022500Y004060D01*
X022546Y003948D01*
X022632Y003862D01*
X022518Y004016D02*
X021199Y004016D01*
X020911Y004016D02*
X020460Y004016D01*
X020460Y004174D02*
X022454Y004174D01*
X022296Y004333D02*
X020988Y004333D01*
X021056Y004491D02*
X022137Y004491D01*
X021979Y004650D02*
X021056Y004650D01*
X021056Y005284D02*
X023322Y005284D01*
X023322Y005442D02*
X021056Y005442D01*
X020972Y005601D02*
X022659Y005601D01*
X022632Y005612D02*
X022744Y005565D01*
X022866Y005565D01*
X022978Y005612D01*
X023064Y005698D01*
X023110Y005810D01*
X023110Y005931D01*
X023064Y006043D01*
X022978Y006129D01*
X022866Y006175D01*
X022744Y006175D01*
X022632Y006129D01*
X022584Y006080D01*
X022017Y006080D01*
X020151Y007946D01*
X020542Y008337D01*
X020585Y008440D01*
X020585Y011630D01*
X020962Y011630D01*
X021056Y011723D01*
X021056Y012840D01*
X020962Y012934D01*
X019648Y012934D01*
X019554Y012840D01*
X019554Y011723D01*
X019648Y011630D01*
X020025Y011630D01*
X020025Y008611D01*
X019646Y008233D01*
X019564Y008150D01*
X018426Y008150D01*
X018366Y008175D01*
X018244Y008175D01*
X018132Y008129D01*
X018046Y008043D01*
X018000Y007931D01*
X018000Y007810D01*
X018046Y007698D01*
X018132Y007612D01*
X018244Y007565D01*
X018366Y007565D01*
X018426Y007590D01*
X019736Y007590D01*
X019839Y007633D01*
X019854Y007649D01*
X021843Y005660D01*
X022584Y005660D01*
X022632Y005612D01*
X022951Y005601D02*
X023322Y005601D01*
X023322Y005759D02*
X023089Y005759D01*
X023110Y005918D02*
X023322Y005918D01*
X023322Y006076D02*
X023030Y006076D01*
X023322Y006235D02*
X021862Y006235D01*
X021704Y006393D02*
X023322Y006393D01*
X023322Y006552D02*
X021545Y006552D01*
X021387Y006710D02*
X023322Y006710D01*
X023322Y006869D02*
X021228Y006869D01*
X021070Y007027D02*
X023322Y007027D01*
X023322Y007186D02*
X020911Y007186D01*
X020753Y007344D02*
X023322Y007344D01*
X023322Y007503D02*
X020594Y007503D01*
X020436Y007661D02*
X023322Y007661D01*
X023322Y007820D02*
X020277Y007820D01*
X020184Y007978D02*
X023322Y007978D01*
X023322Y008137D02*
X020342Y008137D01*
X020501Y008295D02*
X023322Y008295D01*
X023322Y008454D02*
X020585Y008454D01*
X020585Y008612D02*
X023322Y008612D01*
X023322Y008771D02*
X020585Y008771D01*
X020585Y008929D02*
X023322Y008929D01*
X023322Y009088D02*
X020585Y009088D01*
X020585Y009246D02*
X023322Y009246D01*
X023322Y009405D02*
X020585Y009405D01*
X020585Y009563D02*
X023322Y009563D01*
X023322Y009722D02*
X020585Y009722D01*
X020585Y009880D02*
X023322Y009880D01*
X023322Y010039D02*
X020585Y010039D01*
X020585Y010197D02*
X023322Y010197D01*
X023322Y010356D02*
X020585Y010356D01*
X020585Y010514D02*
X023322Y010514D01*
X023322Y010673D02*
X020585Y010673D01*
X020585Y010831D02*
X023322Y010831D01*
X023322Y010990D02*
X020585Y010990D01*
X020585Y011148D02*
X023322Y011148D01*
X023322Y011307D02*
X020585Y011307D01*
X020585Y011465D02*
X023322Y011465D01*
X023322Y011624D02*
X020585Y011624D01*
X021056Y011782D02*
X023322Y011782D01*
X023322Y011941D02*
X021056Y011941D01*
X021056Y012099D02*
X023322Y012099D01*
X023322Y012258D02*
X021056Y012258D01*
X021056Y012416D02*
X023322Y012416D01*
X023322Y012575D02*
X021056Y012575D01*
X021056Y012733D02*
X023322Y012733D01*
X023322Y012892D02*
X021004Y012892D01*
X021440Y014160D02*
X019515Y014160D01*
X019515Y014318D02*
X021440Y014318D01*
X021440Y014477D02*
X019515Y014477D01*
X019515Y014635D02*
X021440Y014635D01*
X021440Y014794D02*
X019515Y014794D01*
X019515Y014952D02*
X021440Y014952D01*
X021440Y015111D02*
X019515Y015111D01*
X019515Y015269D02*
X021440Y015269D01*
X021440Y015428D02*
X019515Y015428D01*
X019515Y015586D02*
X021440Y015586D01*
X021440Y015745D02*
X019515Y015745D01*
X019515Y015903D02*
X021440Y015903D01*
X021440Y016062D02*
X019515Y016062D01*
X019515Y016220D02*
X021440Y016220D01*
X021440Y016379D02*
X019515Y016379D01*
X019515Y016537D02*
X021440Y016537D01*
X021440Y016696D02*
X019515Y016696D01*
X019515Y016854D02*
X021440Y016854D01*
X021440Y017013D02*
X019515Y017013D01*
X019515Y017171D02*
X021440Y017171D01*
X021440Y017330D02*
X019515Y017330D01*
X019580Y017488D02*
X021440Y017488D01*
X021440Y017647D02*
X019610Y017647D01*
X019551Y017805D02*
X021440Y017805D01*
X021440Y017964D02*
X004133Y017964D01*
X004146Y017982D02*
X004193Y018062D01*
X004228Y018147D01*
X004252Y018236D01*
X004259Y018294D01*
X003639Y018294D01*
X003639Y017674D01*
X003697Y017681D01*
X003786Y017705D01*
X003871Y017741D01*
X003951Y017787D01*
X004025Y017843D01*
X004090Y017908D01*
X004146Y017982D01*
X004218Y018122D02*
X021440Y018122D01*
X021440Y018281D02*
X004258Y018281D01*
X004259Y018454D02*
X004252Y018512D01*
X004228Y018601D01*
X004193Y018687D01*
X004146Y018767D01*
X004090Y018840D01*
X004025Y018905D01*
X003951Y018962D01*
X003871Y019008D01*
X003786Y019043D01*
X003697Y019067D01*
X003639Y019075D01*
X003639Y018454D01*
X004259Y018454D01*
X004229Y018598D02*
X021440Y018598D01*
X021440Y018756D02*
X004152Y018756D01*
X004012Y018915D02*
X021440Y018915D01*
X021440Y019073D02*
X003650Y019073D01*
X003639Y019073D02*
X003479Y019073D01*
X003479Y019075D02*
X003421Y019067D01*
X003332Y019043D01*
X003246Y019008D01*
X003166Y018962D01*
X003093Y018905D01*
X003028Y018840D01*
X002971Y018767D01*
X002925Y018687D01*
X002890Y018601D01*
X002866Y018512D01*
X002858Y018454D01*
X003479Y018454D01*
X003479Y018294D01*
X003639Y018294D01*
X003639Y018454D01*
X003479Y018454D01*
X003479Y019075D01*
X003468Y019073D02*
X001642Y019073D01*
X001631Y019073D02*
X001471Y019073D01*
X001471Y019075D02*
X001413Y019067D01*
X001324Y019043D01*
X001239Y019008D01*
X001159Y018962D01*
X001085Y018905D01*
X001020Y018840D01*
X000964Y018767D01*
X000917Y018687D01*
X000882Y018601D01*
X000858Y018512D01*
X000851Y018454D01*
X001471Y018454D01*
X001471Y018294D01*
X001631Y018294D01*
X001631Y017674D01*
X001689Y017681D01*
X001778Y017705D01*
X001864Y017741D01*
X001944Y017787D01*
X002017Y017843D01*
X002082Y017908D01*
X002139Y017982D01*
X002185Y018062D01*
X002220Y018147D01*
X002244Y018236D01*
X002252Y018294D01*
X001631Y018294D01*
X001631Y018454D01*
X002252Y018454D01*
X002244Y018512D01*
X002220Y018601D01*
X002185Y018687D01*
X002139Y018767D01*
X002082Y018840D01*
X002017Y018905D01*
X001944Y018962D01*
X001864Y019008D01*
X001778Y019043D01*
X001689Y019067D01*
X001631Y019075D01*
X001631Y018454D01*
X001471Y018454D01*
X001471Y019075D01*
X001460Y019073D02*
X000660Y019073D01*
X000660Y018915D02*
X001098Y018915D01*
X000958Y018756D02*
X000660Y018756D01*
X000660Y018598D02*
X000881Y018598D01*
X000660Y018439D02*
X001471Y018439D01*
X001471Y018294D02*
X000851Y018294D01*
X000858Y018236D01*
X000882Y018147D01*
X000917Y018062D01*
X000964Y017982D01*
X001020Y017908D01*
X001085Y017843D01*
X001159Y017787D01*
X001239Y017741D01*
X001324Y017705D01*
X001413Y017681D01*
X001471Y017674D01*
X001471Y018294D01*
X001471Y018281D02*
X001631Y018281D01*
X001631Y018439D02*
X003479Y018439D01*
X003479Y018294D02*
X002858Y018294D01*
X002866Y018236D01*
X002890Y018147D01*
X002925Y018062D01*
X002971Y017982D01*
X003028Y017908D01*
X003093Y017843D01*
X003166Y017787D01*
X003246Y017741D01*
X003332Y017705D01*
X003421Y017681D01*
X003479Y017674D01*
X003479Y018294D01*
X003479Y018281D02*
X003639Y018281D01*
X003639Y018439D02*
X021440Y018439D01*
X021440Y019232D02*
X000660Y019232D01*
X000660Y019390D02*
X021440Y019390D01*
X021440Y019549D02*
X000660Y019549D01*
X001471Y018915D02*
X001631Y018915D01*
X001631Y018756D02*
X001471Y018756D01*
X001471Y018598D02*
X001631Y018598D01*
X002005Y018915D02*
X003105Y018915D01*
X002965Y018756D02*
X002145Y018756D01*
X002221Y018598D02*
X002889Y018598D01*
X002860Y018281D02*
X002250Y018281D01*
X002210Y018122D02*
X002900Y018122D01*
X002985Y017964D02*
X002125Y017964D01*
X002252Y017824D02*
X002101Y017673D01*
X002020Y017477D01*
X002020Y017264D01*
X002101Y017067D01*
X002252Y016917D01*
X002449Y016835D01*
X002661Y016835D01*
X002858Y016917D01*
X003009Y017067D01*
X003090Y017264D01*
X003090Y017477D01*
X003009Y017673D01*
X002858Y017824D01*
X002661Y017905D01*
X002449Y017905D01*
X002252Y017824D01*
X002233Y017805D02*
X001968Y017805D01*
X002090Y017647D02*
X000660Y017647D01*
X000660Y017805D02*
X001134Y017805D01*
X000977Y017964D02*
X000660Y017964D01*
X000660Y018122D02*
X000892Y018122D01*
X000852Y018281D02*
X000660Y018281D01*
X000660Y017488D02*
X002025Y017488D01*
X002020Y017330D02*
X000660Y017330D01*
X000660Y017171D02*
X002058Y017171D01*
X002156Y017013D02*
X001833Y017013D01*
X001864Y017000D02*
X001778Y017035D01*
X001689Y017059D01*
X001631Y017067D01*
X001631Y016446D01*
X002252Y016446D01*
X002244Y016504D01*
X002220Y016594D01*
X002185Y016679D01*
X002139Y016759D01*
X002082Y016832D01*
X002017Y016898D01*
X001944Y016954D01*
X001864Y017000D01*
X001631Y017013D02*
X001471Y017013D01*
X001471Y017067D02*
X001413Y017059D01*
X001324Y017035D01*
X001239Y017000D01*
X001159Y016954D01*
X001085Y016898D01*
X001020Y016832D01*
X000964Y016759D01*
X000917Y016679D01*
X000882Y016594D01*
X000858Y016504D01*
X000851Y016446D01*
X001471Y016446D01*
X001471Y016286D01*
X001631Y016286D01*
X001631Y015666D01*
X001689Y015674D01*
X001778Y015697D01*
X001864Y015733D01*
X001944Y015779D01*
X002017Y015835D01*
X002082Y015901D01*
X002139Y015974D01*
X002185Y016054D01*
X002220Y016139D01*
X002244Y016229D01*
X002252Y016286D01*
X001631Y016286D01*
X001631Y016446D01*
X001471Y016446D01*
X001471Y017067D01*
X001269Y017013D02*
X000660Y017013D01*
X000660Y016854D02*
X001042Y016854D01*
X000927Y016696D02*
X000660Y016696D01*
X000660Y016537D02*
X000867Y016537D01*
X000851Y016286D02*
X000858Y016229D01*
X000882Y016139D01*
X000917Y016054D01*
X000964Y015974D01*
X001020Y015901D01*
X001085Y015835D01*
X001159Y015779D01*
X001239Y015733D01*
X001324Y015697D01*
X001413Y015674D01*
X001471Y015666D01*
X001471Y016286D01*
X000851Y016286D01*
X000860Y016220D02*
X000660Y016220D01*
X000660Y016062D02*
X000914Y016062D01*
X001018Y015903D02*
X000660Y015903D01*
X000660Y015745D02*
X001218Y015745D01*
X001471Y015745D02*
X001631Y015745D01*
X001631Y015903D02*
X001471Y015903D01*
X001471Y016062D02*
X001631Y016062D01*
X001631Y016220D02*
X001471Y016220D01*
X001471Y016379D02*
X000660Y016379D01*
X000660Y015586D02*
X003012Y015586D01*
X003043Y015617D02*
X002949Y015523D01*
X002949Y014603D01*
X003043Y014510D01*
X003884Y014510D01*
X003978Y014603D01*
X003978Y015523D01*
X003884Y015617D01*
X003043Y015617D01*
X003166Y015779D02*
X003093Y015835D01*
X003028Y015901D01*
X002971Y015974D01*
X002925Y016054D01*
X002890Y016139D01*
X002866Y016229D01*
X002858Y016286D01*
X003479Y016286D01*
X003639Y016286D01*
X003639Y015666D01*
X003697Y015674D01*
X003786Y015697D01*
X003871Y015733D01*
X003951Y015779D01*
X004025Y015835D01*
X004090Y015901D01*
X004146Y015974D01*
X004193Y016054D01*
X004228Y016139D01*
X004252Y016229D01*
X004259Y016286D01*
X003639Y016286D01*
X003639Y016446D01*
X004259Y016446D01*
X004252Y016504D01*
X004228Y016594D01*
X004193Y016679D01*
X004146Y016759D01*
X004090Y016832D01*
X004025Y016898D01*
X003951Y016954D01*
X003871Y017000D01*
X003786Y017035D01*
X003697Y017059D01*
X003639Y017067D01*
X003639Y016446D01*
X003479Y016446D01*
X003479Y016286D01*
X003479Y015666D01*
X003421Y015674D01*
X003332Y015697D01*
X003246Y015733D01*
X003166Y015779D01*
X003226Y015745D02*
X001884Y015745D01*
X002084Y015903D02*
X003026Y015903D01*
X002922Y016062D02*
X002188Y016062D01*
X002242Y016220D02*
X002868Y016220D01*
X002858Y016446D02*
X003479Y016446D01*
X003479Y017067D01*
X003421Y017059D01*
X003332Y017035D01*
X003246Y017000D01*
X003166Y016954D01*
X003093Y016898D01*
X003028Y016832D01*
X002971Y016759D01*
X002925Y016679D01*
X002890Y016594D01*
X002866Y016504D01*
X002858Y016446D01*
X002875Y016537D02*
X002235Y016537D01*
X002175Y016696D02*
X002935Y016696D01*
X003050Y016854D02*
X002707Y016854D01*
X002954Y017013D02*
X003277Y017013D01*
X003479Y017013D02*
X003639Y017013D01*
X003639Y016854D02*
X003479Y016854D01*
X003479Y016696D02*
X003639Y016696D01*
X003639Y016537D02*
X003479Y016537D01*
X003479Y016379D02*
X001631Y016379D01*
X001631Y016537D02*
X001471Y016537D01*
X001471Y016696D02*
X001631Y016696D01*
X001631Y016854D02*
X001471Y016854D01*
X002060Y016854D02*
X002403Y016854D01*
X003052Y017171D02*
X009650Y017171D01*
X009662Y017330D02*
X003090Y017330D01*
X003085Y017488D02*
X009728Y017488D01*
X009885Y017647D02*
X003020Y017647D01*
X003142Y017805D02*
X002877Y017805D01*
X003479Y017805D02*
X003639Y017805D01*
X003639Y017964D02*
X003479Y017964D01*
X003479Y018122D02*
X003639Y018122D01*
X003976Y017805D02*
X011026Y017805D01*
X010782Y017647D02*
X010475Y017647D01*
X010632Y017488D02*
X010686Y017488D01*
X010678Y017013D02*
X010723Y017013D01*
X010589Y016854D02*
X010871Y016854D01*
X010359Y016696D02*
X012001Y016696D01*
X011771Y016854D02*
X011489Y016854D01*
X011637Y017013D02*
X011682Y017013D01*
X011674Y017488D02*
X011728Y017488D01*
X011578Y017647D02*
X011885Y017647D01*
X011334Y017805D02*
X012970Y017805D01*
X013160Y017805D02*
X013200Y017805D01*
X013200Y017647D02*
X013160Y017647D01*
X013160Y017488D02*
X013200Y017488D01*
X013200Y017330D02*
X013160Y017330D01*
X013160Y017171D02*
X013200Y017171D01*
X013200Y017013D02*
X013160Y017013D01*
X013160Y016854D02*
X013200Y016854D01*
X013026Y016696D02*
X014001Y016696D01*
X013771Y016854D02*
X013509Y016854D01*
X013653Y017013D02*
X013682Y017013D01*
X013696Y017488D02*
X013728Y017488D01*
X013604Y017647D02*
X013885Y017647D01*
X013390Y017805D02*
X019059Y017805D01*
X019000Y017647D02*
X014475Y017647D01*
X014632Y017488D02*
X019030Y017488D01*
X018708Y017330D02*
X014698Y017330D01*
X014710Y017171D02*
X018625Y017171D01*
X018644Y017013D02*
X014678Y017013D01*
X014589Y016854D02*
X018720Y016854D01*
X018720Y016696D02*
X014359Y016696D01*
X013660Y016062D02*
X018720Y016062D01*
X018720Y016220D02*
X013502Y016220D01*
X013343Y016379D02*
X018720Y016379D01*
X018720Y016537D02*
X013185Y016537D01*
X012749Y016379D02*
X003639Y016379D01*
X003639Y016220D02*
X003479Y016220D01*
X003479Y016062D02*
X003639Y016062D01*
X003639Y015903D02*
X003479Y015903D01*
X003479Y015745D02*
X003639Y015745D01*
X003892Y015745D02*
X013383Y015745D01*
X013225Y015903D02*
X004092Y015903D01*
X004196Y016062D02*
X013066Y016062D01*
X012908Y016220D02*
X004250Y016220D01*
X004243Y016537D02*
X012591Y016537D01*
X012432Y016696D02*
X012359Y016696D01*
X012632Y017488D02*
X012664Y017488D01*
X012756Y017647D02*
X012475Y017647D01*
X013819Y015903D02*
X018720Y015903D01*
X018720Y015745D02*
X013977Y015745D01*
X014136Y015586D02*
X018720Y015586D01*
X018720Y015428D02*
X014294Y015428D01*
X014453Y015269D02*
X015045Y015269D01*
X014898Y015111D02*
X014611Y015111D01*
X014770Y014952D02*
X014875Y014952D01*
X014928Y014794D02*
X014950Y014794D01*
X015087Y014635D02*
X015125Y014635D01*
X015140Y014477D02*
X015159Y014477D01*
X015140Y014318D02*
X015362Y014318D01*
X015498Y014318D02*
X016560Y014318D01*
X016718Y014160D02*
X015140Y014160D01*
X015140Y014001D02*
X016877Y014001D01*
X017035Y013843D02*
X015140Y013843D01*
X015140Y013684D02*
X017194Y013684D01*
X017352Y013526D02*
X015140Y013526D01*
X015140Y013367D02*
X017511Y013367D01*
X017812Y014160D02*
X018457Y014160D01*
X018653Y014160D02*
X018720Y014160D01*
X018720Y014318D02*
X017654Y014318D01*
X017495Y014477D02*
X018720Y014477D01*
X018720Y014635D02*
X017337Y014635D01*
X017178Y014794D02*
X018720Y014794D01*
X018720Y014952D02*
X017020Y014952D01*
X016861Y015111D02*
X018720Y015111D01*
X018720Y015269D02*
X015315Y015269D01*
X014218Y014160D02*
X012640Y014160D01*
X012748Y014318D02*
X014060Y014318D01*
X013901Y014477D02*
X012951Y014477D01*
X012985Y014635D02*
X013743Y014635D01*
X014220Y014001D02*
X010159Y014001D01*
X010159Y013843D02*
X014220Y013843D01*
X014220Y013684D02*
X010663Y013684D01*
X010821Y013526D02*
X014220Y013526D01*
X014220Y013367D02*
X010980Y013367D01*
X011138Y013209D02*
X014220Y013209D01*
X014220Y013050D02*
X013806Y013050D01*
X013860Y012892D02*
X014220Y012892D01*
X014220Y012733D02*
X013989Y012733D01*
X014147Y012575D02*
X014220Y012575D01*
X013870Y012258D02*
X012089Y012258D01*
X011931Y012416D02*
X013712Y012416D01*
X013471Y012575D02*
X011772Y012575D01*
X011614Y012733D02*
X013282Y012733D01*
X013250Y012892D02*
X011455Y012892D01*
X011297Y013050D02*
X013304Y013050D01*
X013970Y012099D02*
X012248Y012099D01*
X012406Y011941D02*
X013970Y011941D01*
X013970Y011782D02*
X012565Y011782D01*
X012723Y011624D02*
X013970Y011624D01*
X013970Y011465D02*
X012765Y011465D01*
X012765Y011307D02*
X012810Y011307D01*
X012345Y011307D02*
X012040Y011307D01*
X011882Y011465D02*
X012288Y011465D01*
X012129Y011624D02*
X011723Y011624D01*
X011565Y011782D02*
X011971Y011782D01*
X011812Y011941D02*
X011406Y011941D01*
X011248Y012099D02*
X011654Y012099D01*
X011495Y012258D02*
X011089Y012258D01*
X010931Y012416D02*
X011337Y012416D01*
X011178Y012575D02*
X010772Y012575D01*
X010614Y012733D02*
X011020Y012733D01*
X010861Y012892D02*
X010455Y012892D01*
X010703Y013050D02*
X008356Y013050D01*
X008405Y012892D02*
X008258Y012892D01*
X008112Y012733D02*
X006457Y012733D01*
X006457Y012761D02*
X007738Y012761D01*
X007738Y014221D01*
X007726Y014267D01*
X007702Y014308D01*
X007668Y014341D01*
X007627Y014365D01*
X007582Y014377D01*
X006457Y014377D01*
X006457Y012761D01*
X006457Y012601D01*
X006457Y010986D01*
X007582Y010986D01*
X007627Y010998D01*
X007668Y011022D01*
X007702Y011055D01*
X007726Y011096D01*
X007738Y011142D01*
X007738Y012601D01*
X006457Y012601D01*
X006297Y012601D01*
X006297Y010986D01*
X005172Y010986D01*
X005126Y010998D01*
X005085Y011022D01*
X005052Y011055D01*
X005028Y011096D01*
X005016Y011142D01*
X005016Y012601D01*
X006297Y012601D01*
X006297Y012761D01*
X005016Y012761D01*
X005016Y014221D01*
X005028Y014267D01*
X005052Y014308D01*
X005085Y014341D01*
X005126Y014365D01*
X005172Y014377D01*
X006297Y014377D01*
X006297Y012761D01*
X006457Y012761D01*
X006457Y012892D02*
X006297Y012892D01*
X006297Y013050D02*
X006457Y013050D01*
X006457Y013209D02*
X006297Y013209D01*
X006297Y013367D02*
X006457Y013367D01*
X006457Y013526D02*
X006297Y013526D01*
X006297Y013684D02*
X006457Y013684D01*
X006457Y013843D02*
X006297Y013843D01*
X006297Y014001D02*
X006457Y014001D01*
X006457Y014160D02*
X006297Y014160D01*
X006297Y014318D02*
X006457Y014318D01*
X006621Y014526D02*
X006662Y014502D01*
X006707Y014490D01*
X007006Y014490D01*
X007006Y014983D01*
X007166Y014983D01*
X007166Y015143D01*
X007620Y015143D01*
X007620Y015481D01*
X007608Y015526D01*
X007584Y015567D01*
X007550Y015601D01*
X007509Y015625D01*
X007464Y015637D01*
X007166Y015637D01*
X007166Y015143D01*
X007006Y015143D01*
X007006Y015637D01*
X006707Y015637D01*
X006662Y015625D01*
X006621Y015601D01*
X006587Y015567D01*
X006563Y015526D01*
X006551Y015481D01*
X006551Y015143D01*
X007006Y015143D01*
X007006Y014983D01*
X006551Y014983D01*
X006551Y014646D01*
X006563Y014600D01*
X006587Y014559D01*
X006621Y014526D01*
X006554Y014635D02*
X005806Y014635D01*
X005809Y014646D02*
X005809Y014983D01*
X005354Y014983D01*
X005354Y014490D01*
X005653Y014490D01*
X005698Y014502D01*
X005739Y014526D01*
X005773Y014559D01*
X005797Y014600D01*
X005809Y014646D01*
X005809Y014794D02*
X006551Y014794D01*
X006551Y014952D02*
X005809Y014952D01*
X005809Y015143D02*
X005809Y015481D01*
X005797Y015526D01*
X005773Y015567D01*
X005739Y015601D01*
X005698Y015625D01*
X005653Y015637D01*
X005354Y015637D01*
X005354Y015143D01*
X005194Y015143D01*
X005194Y014983D01*
X004740Y014983D01*
X004740Y014646D01*
X004752Y014600D01*
X004776Y014559D01*
X004810Y014526D01*
X004851Y014502D01*
X004896Y014490D01*
X005194Y014490D01*
X005194Y014983D01*
X005354Y014983D01*
X005354Y015143D01*
X005809Y015143D01*
X005809Y015269D02*
X006551Y015269D01*
X006551Y015428D02*
X005809Y015428D01*
X005754Y015586D02*
X006606Y015586D01*
X007006Y015586D02*
X007166Y015586D01*
X007166Y015428D02*
X007006Y015428D01*
X007006Y015269D02*
X007166Y015269D01*
X007166Y015111D02*
X007898Y015111D01*
X007875Y015056D02*
X007875Y014935D01*
X007921Y014823D01*
X008007Y014737D01*
X008119Y014690D01*
X008241Y014690D01*
X008301Y014715D01*
X008382Y014715D01*
X008382Y014603D01*
X008476Y014510D01*
X009317Y014510D01*
X009411Y014603D01*
X009411Y015523D01*
X009317Y015617D01*
X008476Y015617D01*
X008382Y015523D01*
X008382Y015275D01*
X008301Y015275D01*
X008241Y015300D01*
X008119Y015300D01*
X008007Y015254D01*
X007921Y015168D01*
X007875Y015056D01*
X007875Y014952D02*
X007620Y014952D01*
X007620Y014983D02*
X007166Y014983D01*
X007166Y014490D01*
X007464Y014490D01*
X007509Y014502D01*
X007550Y014526D01*
X007584Y014559D01*
X007608Y014600D01*
X007620Y014646D01*
X007620Y014983D01*
X007620Y014794D02*
X007950Y014794D01*
X007617Y014635D02*
X008382Y014635D01*
X008798Y014160D02*
X007738Y014160D01*
X007738Y014001D02*
X008639Y014001D01*
X008481Y013843D02*
X007738Y013843D01*
X007738Y013684D02*
X008322Y013684D01*
X008164Y013526D02*
X007738Y013526D01*
X007738Y013367D02*
X007871Y013367D01*
X007762Y013209D02*
X007738Y013209D01*
X007738Y013050D02*
X007754Y013050D01*
X007738Y012892D02*
X007852Y012892D01*
X007738Y012575D02*
X008008Y012575D01*
X008008Y012416D02*
X007738Y012416D01*
X007738Y012258D02*
X008111Y012258D01*
X007738Y012099D02*
X009051Y012099D01*
X009051Y011941D02*
X007738Y011941D01*
X007738Y011782D02*
X009051Y011782D01*
X009051Y011624D02*
X008733Y011624D01*
X008728Y011629D02*
X008616Y011675D01*
X008494Y011675D01*
X008382Y011629D01*
X008296Y011543D01*
X008271Y011483D01*
X004814Y008025D01*
X004301Y008025D01*
X004241Y008050D01*
X004119Y008050D01*
X004007Y008004D01*
X003921Y007918D01*
X003875Y007806D01*
X003875Y007685D01*
X003921Y007573D01*
X004007Y007487D01*
X004119Y007440D01*
X004241Y007440D01*
X004301Y007465D01*
X004986Y007465D01*
X005089Y007508D01*
X008667Y011087D01*
X008728Y011112D01*
X008814Y011198D01*
X008860Y011310D01*
X008860Y011431D01*
X008814Y011543D01*
X008728Y011629D01*
X008846Y011465D02*
X009051Y011465D01*
X009051Y011454D02*
X009145Y011360D01*
X010065Y011360D01*
X010159Y011454D01*
X010159Y011664D01*
X010214Y011664D01*
X011066Y010813D01*
X011055Y010802D01*
X010978Y010879D01*
X010866Y010925D01*
X010744Y010925D01*
X010632Y010879D01*
X010546Y010793D01*
X010500Y010681D01*
X010500Y010612D01*
X010220Y010332D01*
X010159Y010332D01*
X010159Y010543D01*
X010065Y010637D01*
X009145Y010637D01*
X009051Y010543D01*
X009051Y009702D01*
X009145Y009608D01*
X010065Y009608D01*
X010159Y009702D01*
X010159Y009912D01*
X010394Y009912D01*
X010797Y010315D01*
X010866Y010315D01*
X010978Y010362D01*
X011055Y010439D01*
X011132Y010362D01*
X011244Y010315D01*
X011366Y010315D01*
X011478Y010362D01*
X011564Y010448D01*
X011610Y010560D01*
X011610Y010681D01*
X011564Y010793D01*
X011515Y010842D01*
X011515Y010957D01*
X011392Y011080D01*
X010388Y012084D01*
X010159Y012084D01*
X010159Y012295D01*
X010065Y012389D01*
X009145Y012389D01*
X009051Y012295D01*
X009051Y011454D01*
X008859Y011307D02*
X010571Y011307D01*
X010413Y011465D02*
X010159Y011465D01*
X010159Y011624D02*
X010254Y011624D01*
X010531Y011941D02*
X010812Y011941D01*
X010690Y011782D02*
X010971Y011782D01*
X010848Y011624D02*
X011129Y011624D01*
X011007Y011465D02*
X011288Y011465D01*
X011165Y011307D02*
X011446Y011307D01*
X011324Y011148D02*
X011605Y011148D01*
X011482Y010990D02*
X011750Y010990D01*
X011793Y010831D02*
X011525Y010831D01*
X011610Y010673D02*
X012345Y010673D01*
X012345Y010831D02*
X012317Y010831D01*
X012345Y010514D02*
X011591Y010514D01*
X011463Y010356D02*
X012271Y010356D01*
X012250Y010197D02*
X010679Y010197D01*
X010520Y010039D02*
X012330Y010039D01*
X012780Y010039D02*
X012845Y010039D01*
X012845Y009880D02*
X010159Y009880D01*
X010159Y009722D02*
X012845Y009722D01*
X012701Y009563D02*
X007144Y009563D01*
X007168Y009405D02*
X006985Y009405D01*
X007009Y009246D02*
X006827Y009246D01*
X006851Y009088D02*
X006668Y009088D01*
X006692Y008929D02*
X006510Y008929D01*
X006534Y008771D02*
X006351Y008771D01*
X006375Y008612D02*
X006193Y008612D01*
X006217Y008454D02*
X006034Y008454D01*
X006058Y008295D02*
X005876Y008295D01*
X005900Y008137D02*
X005717Y008137D01*
X005741Y007978D02*
X005559Y007978D01*
X005583Y007820D02*
X005400Y007820D01*
X005424Y007661D02*
X005242Y007661D01*
X005266Y007503D02*
X005076Y007503D01*
X005107Y007344D02*
X000660Y007344D01*
X000660Y007186D02*
X004949Y007186D01*
X004790Y007027D02*
X003309Y007027D01*
X003309Y006869D02*
X004632Y006869D01*
X004908Y006552D02*
X005065Y006552D01*
X005067Y006710D02*
X005223Y006710D01*
X005225Y006869D02*
X005382Y006869D01*
X005384Y007027D02*
X005540Y007027D01*
X005542Y007186D02*
X005699Y007186D01*
X005701Y007344D02*
X005857Y007344D01*
X005859Y007503D02*
X006016Y007503D01*
X006018Y007661D02*
X006174Y007661D01*
X006176Y007820D02*
X013083Y007820D01*
X013220Y007978D02*
X010159Y007978D01*
X010159Y007950D02*
X010159Y008791D01*
X010065Y008885D01*
X009145Y008885D01*
X009051Y008791D01*
X009051Y007950D01*
X009145Y007856D01*
X010065Y007856D01*
X010159Y007950D01*
X010159Y008137D02*
X013220Y008137D01*
X013220Y008295D02*
X010159Y008295D01*
X010159Y008454D02*
X013220Y008454D01*
X013220Y008612D02*
X010159Y008612D01*
X010159Y008771D02*
X013220Y008771D01*
X013220Y008929D02*
X007286Y008929D01*
X007127Y008771D02*
X009051Y008771D01*
X009051Y008612D02*
X006969Y008612D01*
X006810Y008454D02*
X009051Y008454D01*
X009051Y008295D02*
X006652Y008295D01*
X006493Y008137D02*
X009051Y008137D01*
X009051Y007978D02*
X006335Y007978D01*
X006292Y007186D02*
X014470Y007186D01*
X014470Y007344D02*
X013201Y007344D01*
X013359Y007503D02*
X014470Y007503D01*
X014470Y007661D02*
X013518Y007661D01*
X013640Y007820D02*
X014434Y007820D01*
X014275Y007978D02*
X013640Y007978D01*
X013640Y008137D02*
X014117Y008137D01*
X013970Y008295D02*
X013640Y008295D01*
X013640Y008454D02*
X013970Y008454D01*
X013970Y008612D02*
X013640Y008612D01*
X013640Y008771D02*
X013970Y008771D01*
X013970Y008929D02*
X013640Y008929D01*
X013640Y009088D02*
X013970Y009088D01*
X013970Y009246D02*
X013640Y009246D01*
X013640Y009405D02*
X013970Y009405D01*
X013970Y009563D02*
X013640Y009563D01*
X013640Y009722D02*
X013970Y009722D01*
X013970Y009880D02*
X013640Y009880D01*
X013640Y010039D02*
X013970Y010039D01*
X013970Y010197D02*
X013640Y010197D01*
X013640Y010356D02*
X013970Y010356D01*
X013970Y010514D02*
X013640Y010514D01*
X013730Y010673D02*
X013970Y010673D01*
X013970Y010831D02*
X013724Y010831D01*
X013617Y010990D02*
X013970Y010990D01*
X013970Y011148D02*
X013360Y011148D01*
X013300Y011307D02*
X013970Y011307D01*
X015140Y011307D02*
X016625Y011307D01*
X016640Y011148D02*
X015140Y011148D01*
X015140Y010990D02*
X016650Y010990D01*
X016650Y010831D02*
X015140Y010831D01*
X015140Y010673D02*
X016650Y010673D01*
X016650Y010514D02*
X015140Y010514D01*
X015140Y010356D02*
X016650Y010356D01*
X016650Y010197D02*
X015140Y010197D01*
X015140Y010039D02*
X016650Y010039D01*
X016650Y009880D02*
X015140Y009880D01*
X015140Y009722D02*
X016650Y009722D01*
X016650Y009563D02*
X015140Y009563D01*
X015140Y009405D02*
X016650Y009405D01*
X016650Y009246D02*
X015140Y009246D01*
X015140Y009088D02*
X016650Y009088D01*
X016650Y008929D02*
X015427Y008929D01*
X015485Y008771D02*
X016650Y008771D01*
X016650Y008612D02*
X015455Y008612D01*
X015273Y008454D02*
X016650Y008454D01*
X016650Y008295D02*
X015302Y008295D01*
X015390Y008137D02*
X016650Y008137D01*
X016650Y007978D02*
X015390Y007978D01*
X015390Y007820D02*
X016650Y007820D01*
X016650Y007661D02*
X015390Y007661D01*
X015390Y007503D02*
X016650Y007503D01*
X016650Y007344D02*
X015390Y007344D01*
X015390Y007186D02*
X016650Y007186D01*
X016650Y007027D02*
X015390Y007027D01*
X015390Y006869D02*
X016650Y006869D01*
X016650Y006710D02*
X015390Y006710D01*
X015390Y006552D02*
X016650Y006552D01*
X016650Y006393D02*
X015390Y006393D01*
X015390Y006235D02*
X016650Y006235D01*
X016650Y006076D02*
X015390Y006076D01*
X015390Y005918D02*
X016650Y005918D01*
X016650Y005759D02*
X015390Y005759D01*
X015390Y005601D02*
X016650Y005601D01*
X016650Y005442D02*
X015390Y005442D01*
X015390Y005284D02*
X016650Y005284D01*
X016650Y005125D02*
X015390Y005125D01*
X015323Y004967D02*
X016650Y004967D01*
X016650Y004808D02*
X015165Y004808D01*
X015006Y004650D02*
X016650Y004650D01*
X016650Y004491D02*
X014848Y004491D01*
X014689Y004333D02*
X016650Y004333D01*
X016609Y004174D02*
X016251Y004174D01*
X016392Y004016D02*
X016468Y004016D01*
X017251Y004174D02*
X017585Y004174D01*
X017451Y004016D02*
X017392Y004016D01*
X017210Y004333D02*
X019622Y004333D01*
X019554Y004491D02*
X017210Y004491D01*
X017210Y004650D02*
X019554Y004650D01*
X019554Y004808D02*
X017210Y004808D01*
X017210Y004967D02*
X019554Y004967D01*
X019554Y005125D02*
X017210Y005125D01*
X017210Y005284D02*
X019554Y005284D01*
X019554Y005442D02*
X017210Y005442D01*
X017210Y005601D02*
X019638Y005601D01*
X019744Y006565D02*
X019632Y006612D01*
X019584Y006660D01*
X019151Y006660D01*
X019103Y006612D01*
X018991Y006565D01*
X018869Y006565D01*
X018757Y006612D01*
X018671Y006698D01*
X018625Y006810D01*
X018625Y006931D01*
X018671Y007043D01*
X018757Y007129D01*
X018869Y007175D01*
X018991Y007175D01*
X019103Y007129D01*
X019151Y007080D01*
X019584Y007080D01*
X019632Y007129D01*
X019744Y007175D01*
X019866Y007175D01*
X019978Y007129D01*
X020064Y007043D01*
X020110Y006931D01*
X020110Y006810D01*
X020064Y006698D01*
X019978Y006612D01*
X019866Y006565D01*
X019744Y006565D01*
X020069Y006710D02*
X020793Y006710D01*
X020952Y006552D02*
X017210Y006552D01*
X017210Y006710D02*
X018666Y006710D01*
X018625Y006869D02*
X017210Y006869D01*
X017210Y007027D02*
X018665Y007027D01*
X018083Y007661D02*
X017210Y007661D01*
X017210Y007503D02*
X020001Y007503D01*
X020159Y007344D02*
X017210Y007344D01*
X017210Y007186D02*
X020318Y007186D01*
X020476Y007027D02*
X020070Y007027D01*
X020110Y006869D02*
X020635Y006869D01*
X021110Y006393D02*
X017210Y006393D01*
X017210Y006235D02*
X021269Y006235D01*
X021427Y006076D02*
X017210Y006076D01*
X017210Y005918D02*
X021586Y005918D01*
X021744Y005759D02*
X017210Y005759D01*
X017910Y004174D02*
X017950Y004174D01*
X017950Y004016D02*
X017910Y004016D01*
X017910Y003857D02*
X017950Y003857D01*
X018275Y004174D02*
X018609Y004174D01*
X018468Y004016D02*
X018409Y004016D01*
X019251Y004174D02*
X019400Y004174D01*
X019392Y004016D02*
X019400Y004016D01*
X020460Y003857D02*
X020771Y003857D01*
X020712Y003699D02*
X020460Y003699D01*
X020460Y003540D02*
X020553Y003540D01*
X022255Y004967D02*
X023322Y004967D01*
X023322Y005125D02*
X022097Y005125D01*
X022414Y004808D02*
X023322Y004808D01*
X023322Y004650D02*
X022572Y004650D01*
X022731Y004491D02*
X023322Y004491D01*
X023322Y004333D02*
X023024Y004333D01*
X023110Y004174D02*
X023322Y004174D01*
X023322Y004016D02*
X023092Y004016D01*
X022967Y003857D02*
X023322Y003857D01*
X019709Y008295D02*
X017210Y008295D01*
X017210Y008137D02*
X018151Y008137D01*
X018020Y007978D02*
X017210Y007978D01*
X017210Y007820D02*
X018000Y007820D01*
X017210Y008454D02*
X019868Y008454D01*
X020025Y008612D02*
X017210Y008612D01*
X017210Y008771D02*
X020025Y008771D01*
X020025Y008929D02*
X017210Y008929D01*
X017210Y009088D02*
X020025Y009088D01*
X020025Y009246D02*
X017210Y009246D01*
X017210Y009405D02*
X020025Y009405D01*
X020025Y009563D02*
X017210Y009563D01*
X017210Y009722D02*
X020025Y009722D01*
X020025Y009880D02*
X017210Y009880D01*
X017210Y010039D02*
X020025Y010039D01*
X020025Y010197D02*
X017210Y010197D01*
X017210Y010356D02*
X020025Y010356D01*
X020025Y010514D02*
X017210Y010514D01*
X017210Y010673D02*
X018696Y010673D01*
X018671Y010698D02*
X018757Y010612D01*
X018869Y010565D01*
X018991Y010565D01*
X019103Y010612D01*
X019151Y010660D01*
X019459Y010660D01*
X019507Y010612D01*
X019619Y010565D01*
X019741Y010565D01*
X019853Y010612D01*
X019939Y010698D01*
X019985Y010810D01*
X019985Y010931D01*
X019939Y011043D01*
X019853Y011129D01*
X019741Y011175D01*
X019619Y011175D01*
X019507Y011129D01*
X019459Y011080D01*
X019151Y011080D01*
X019103Y011129D01*
X018991Y011175D01*
X018869Y011175D01*
X018757Y011129D01*
X018671Y011043D01*
X018625Y010931D01*
X018625Y010810D01*
X018671Y010698D01*
X018625Y010831D02*
X017210Y010831D01*
X017210Y010990D02*
X018649Y010990D01*
X018804Y011148D02*
X017220Y011148D01*
X017235Y011307D02*
X020025Y011307D01*
X020025Y011465D02*
X017141Y011465D01*
X016719Y011465D02*
X015140Y011465D01*
X015140Y011624D02*
X020025Y011624D01*
X020025Y011148D02*
X019806Y011148D01*
X019961Y010990D02*
X020025Y010990D01*
X020025Y010831D02*
X019985Y010831D01*
X020025Y010673D02*
X019914Y010673D01*
X019554Y011148D02*
X019056Y011148D01*
X019554Y011782D02*
X015140Y011782D01*
X015140Y011941D02*
X019554Y011941D01*
X019554Y012099D02*
X015140Y012099D01*
X015140Y012258D02*
X019554Y012258D01*
X019554Y012416D02*
X015140Y012416D01*
X015140Y012575D02*
X019554Y012575D01*
X019554Y012733D02*
X015140Y012733D01*
X015140Y012892D02*
X019606Y012892D01*
X019207Y013367D02*
X023322Y013367D01*
X023322Y013209D02*
X019035Y013209D01*
X018825Y013209D02*
X015140Y013209D01*
X015140Y013050D02*
X023322Y013050D01*
X023322Y013526D02*
X019235Y013526D01*
X019550Y013684D02*
X023322Y013684D01*
X023322Y013843D02*
X019610Y013843D01*
X019581Y014001D02*
X023322Y014001D01*
X014470Y007027D02*
X014320Y007027D01*
X014314Y007043D02*
X014228Y007129D01*
X014116Y007175D01*
X013994Y007175D01*
X013934Y007150D01*
X011249Y007150D01*
X011146Y007108D01*
X010068Y006029D01*
X010007Y006004D01*
X009921Y005918D01*
X005909Y005918D01*
X005939Y005948D02*
X005985Y006060D01*
X005985Y006181D01*
X005939Y006293D01*
X005853Y006379D01*
X005741Y006425D01*
X005619Y006425D01*
X005507Y006379D01*
X005421Y006293D01*
X005375Y006181D01*
X005375Y006112D01*
X002891Y003629D01*
X002295Y003629D01*
X002201Y003535D01*
X002201Y002694D01*
X002295Y002600D01*
X003215Y002600D01*
X003309Y002694D01*
X003309Y003452D01*
X005672Y005815D01*
X005741Y005815D01*
X005853Y005862D01*
X005939Y005948D01*
X005985Y006076D02*
X010115Y006076D01*
X010065Y006104D02*
X010159Y006198D01*
X010159Y007039D01*
X010065Y007133D01*
X009145Y007133D01*
X009051Y007039D01*
X009051Y006830D01*
X008767Y006830D01*
X008735Y006862D01*
X008735Y006931D01*
X008689Y007043D01*
X008603Y007129D01*
X008491Y007175D01*
X008369Y007175D01*
X008257Y007129D01*
X008171Y007043D01*
X008125Y006931D01*
X008125Y006810D01*
X008171Y006698D01*
X008257Y006612D01*
X008369Y006565D01*
X008438Y006565D01*
X008470Y006533D01*
X008593Y006410D01*
X009051Y006410D01*
X009051Y006198D01*
X009145Y006104D01*
X010065Y006104D01*
X010159Y006235D02*
X010274Y006235D01*
X010159Y006393D02*
X010432Y006393D01*
X010591Y006552D02*
X010159Y006552D01*
X010159Y006710D02*
X010749Y006710D01*
X010908Y006869D02*
X010159Y006869D01*
X010159Y007027D02*
X011066Y007027D01*
X011421Y006590D02*
X013934Y006590D01*
X013994Y006565D01*
X014116Y006565D01*
X014228Y006612D01*
X014314Y006698D01*
X014360Y006810D01*
X014360Y006931D01*
X014314Y007043D01*
X014360Y006869D02*
X014470Y006869D01*
X014470Y006710D02*
X014319Y006710D01*
X014470Y006552D02*
X011382Y006552D01*
X011421Y006590D02*
X010464Y005633D01*
X010439Y005573D01*
X010353Y005487D01*
X010241Y005440D01*
X010119Y005440D01*
X010007Y005487D01*
X009921Y005573D01*
X009875Y005685D01*
X009875Y005806D01*
X009921Y005918D01*
X009875Y005759D02*
X005616Y005759D01*
X005457Y005601D02*
X009910Y005601D01*
X010114Y005442D02*
X005299Y005442D01*
X005140Y005284D02*
X009051Y005284D01*
X009051Y005287D02*
X009051Y004446D01*
X009145Y004352D01*
X010065Y004352D01*
X010159Y004446D01*
X010159Y005287D01*
X010065Y005381D01*
X009145Y005381D01*
X009051Y005287D01*
X009051Y005125D02*
X004982Y005125D01*
X004823Y004967D02*
X009051Y004967D01*
X009051Y004808D02*
X004665Y004808D01*
X004506Y004650D02*
X009051Y004650D01*
X009051Y004491D02*
X004348Y004491D01*
X004189Y004333D02*
X010452Y004333D01*
X010494Y004315D02*
X010616Y004315D01*
X010728Y004362D01*
X010814Y004448D01*
X010860Y004560D01*
X010860Y004569D01*
X010869Y004565D01*
X010991Y004565D01*
X011000Y004569D01*
X011000Y004560D01*
X011046Y004448D01*
X011132Y004362D01*
X011244Y004315D01*
X011366Y004315D01*
X011478Y004362D01*
X011526Y004410D01*
X012142Y004410D01*
X012422Y004690D01*
X012491Y004690D01*
X012603Y004737D01*
X012689Y004823D01*
X012735Y004935D01*
X012735Y005056D01*
X012689Y005168D01*
X012603Y005254D01*
X012491Y005300D01*
X012369Y005300D01*
X012257Y005254D01*
X012171Y005168D01*
X012125Y005056D01*
X012125Y004987D01*
X011968Y004830D01*
X011777Y004830D01*
X011853Y004862D01*
X011939Y004948D01*
X011985Y005060D01*
X011985Y005181D01*
X011939Y005293D01*
X011853Y005379D01*
X011741Y005425D01*
X011619Y005425D01*
X011507Y005379D01*
X011459Y005330D01*
X011093Y005330D01*
X010938Y005175D01*
X010907Y005175D01*
X011443Y005712D01*
X011494Y005690D01*
X011616Y005690D01*
X011728Y005737D01*
X011814Y005823D01*
X011860Y005935D01*
X011860Y006056D01*
X011814Y006168D01*
X011728Y006254D01*
X011616Y006300D01*
X011494Y006300D01*
X011382Y006254D01*
X011296Y006168D01*
X011290Y006152D01*
X010468Y005330D01*
X010345Y005207D01*
X010345Y004842D01*
X010296Y004793D01*
X010250Y004681D01*
X010250Y004560D01*
X010296Y004448D01*
X010382Y004362D01*
X010494Y004315D01*
X010658Y004333D02*
X011202Y004333D01*
X011408Y004333D02*
X013595Y004333D01*
X013595Y004491D02*
X012223Y004491D01*
X012381Y004650D02*
X013663Y004650D01*
X013821Y004808D02*
X012674Y004808D01*
X012735Y004967D02*
X013980Y004967D01*
X014138Y005125D02*
X012706Y005125D01*
X012530Y005284D02*
X014297Y005284D01*
X014455Y005442D02*
X011174Y005442D01*
X011047Y005284D02*
X011015Y005284D01*
X010580Y005442D02*
X010246Y005442D01*
X010159Y005284D02*
X010422Y005284D01*
X010345Y005125D02*
X010159Y005125D01*
X010159Y004967D02*
X010345Y004967D01*
X010312Y004808D02*
X010159Y004808D01*
X010159Y004650D02*
X010250Y004650D01*
X010278Y004491D02*
X010159Y004491D01*
X010832Y004491D02*
X011028Y004491D01*
X011947Y004967D02*
X012105Y004967D01*
X012154Y005125D02*
X011985Y005125D01*
X011942Y005284D02*
X012330Y005284D01*
X011750Y005759D02*
X014470Y005759D01*
X014470Y005601D02*
X011332Y005601D01*
X011056Y005918D02*
X010748Y005918D01*
X010897Y005759D02*
X010590Y005759D01*
X010450Y005601D02*
X010739Y005601D01*
X010907Y006076D02*
X011214Y006076D01*
X011065Y006235D02*
X011363Y006235D01*
X011224Y006393D02*
X014470Y006393D01*
X014470Y006235D02*
X011747Y006235D01*
X011852Y006076D02*
X014470Y006076D01*
X014470Y005918D02*
X011853Y005918D01*
X012397Y004174D02*
X013595Y004174D01*
X013595Y004016D02*
X012555Y004016D01*
X012714Y003857D02*
X013595Y003857D01*
X013595Y003699D02*
X012872Y003699D01*
X013031Y003540D02*
X013595Y003540D01*
X013595Y003382D02*
X013189Y003382D01*
X013348Y003223D02*
X013595Y003223D01*
X013506Y003065D02*
X013689Y003065D01*
X013665Y002906D02*
X013847Y002906D01*
X013823Y002748D02*
X014006Y002748D01*
X014017Y002589D02*
X014164Y002589D01*
X014110Y002431D02*
X014323Y002431D01*
X013349Y002431D02*
X000660Y002431D01*
X000660Y002589D02*
X013190Y002589D01*
X013032Y002748D02*
X010159Y002748D01*
X010159Y002694D02*
X010159Y003535D01*
X010065Y003629D01*
X009145Y003629D01*
X009051Y003535D01*
X009051Y002694D01*
X009145Y002600D01*
X010065Y002600D01*
X010159Y002694D01*
X010159Y002906D02*
X012873Y002906D01*
X012715Y003065D02*
X010159Y003065D01*
X010159Y003223D02*
X012556Y003223D01*
X012398Y003382D02*
X010159Y003382D01*
X010154Y003540D02*
X012239Y003540D01*
X012081Y003699D02*
X007529Y003699D01*
X007371Y003540D02*
X009057Y003540D01*
X009051Y003382D02*
X007213Y003382D01*
X007070Y003223D02*
X009051Y003223D01*
X009051Y003065D02*
X003309Y003065D01*
X003309Y003223D02*
X006790Y003223D01*
X006647Y003382D02*
X003309Y003382D01*
X003397Y003540D02*
X006625Y003540D01*
X006702Y003699D02*
X003555Y003699D01*
X003714Y003857D02*
X006896Y003857D01*
X007055Y004016D02*
X003872Y004016D01*
X004031Y004174D02*
X007213Y004174D01*
X009051Y002906D02*
X003309Y002906D01*
X003309Y002748D02*
X009051Y002748D01*
X008541Y002251D02*
X007298Y002251D01*
X007252Y002239D01*
X007211Y002215D01*
X007178Y002182D01*
X007154Y002141D01*
X007142Y002095D01*
X007142Y001757D01*
X008541Y001757D01*
X008541Y002251D01*
X008541Y002114D02*
X008701Y002114D01*
X008701Y001955D02*
X008541Y001955D01*
X008541Y001797D02*
X008701Y001797D01*
X008701Y001321D02*
X008541Y001321D01*
X008541Y001163D02*
X008701Y001163D01*
X007188Y001163D02*
X005723Y001163D01*
X005769Y001321D02*
X007142Y001321D01*
X007142Y001480D02*
X005769Y001480D01*
X005769Y001797D02*
X007142Y001797D01*
X007142Y001955D02*
X005769Y001955D01*
X005764Y002114D02*
X007147Y002114D01*
X004095Y002114D02*
X003935Y002114D01*
X003935Y001955D02*
X004095Y001955D01*
X004095Y001797D02*
X003935Y001797D01*
X003935Y001321D02*
X004095Y001321D01*
X004095Y001163D02*
X003935Y001163D01*
X002306Y001163D02*
X000660Y001163D01*
X000660Y001321D02*
X002260Y001321D01*
X002201Y002748D02*
X000660Y002748D01*
X000660Y002906D02*
X002201Y002906D01*
X002201Y003065D02*
X000660Y003065D01*
X000660Y003223D02*
X002201Y003223D01*
X002201Y003382D02*
X000660Y003382D01*
X000660Y003540D02*
X002206Y003540D01*
X002962Y003699D02*
X000660Y003699D01*
X000660Y003857D02*
X003120Y003857D01*
X003279Y004016D02*
X000660Y004016D01*
X000660Y004174D02*
X003437Y004174D01*
X003596Y004333D02*
X000660Y004333D01*
X000660Y004491D02*
X002201Y004491D01*
X002201Y004650D02*
X000660Y004650D01*
X000660Y004808D02*
X002201Y004808D01*
X002201Y004967D02*
X000660Y004967D01*
X000660Y005125D02*
X002201Y005125D01*
X002201Y005284D02*
X000660Y005284D01*
X000660Y005442D02*
X003955Y005442D01*
X003797Y005284D02*
X003309Y005284D01*
X003309Y005125D02*
X003638Y005125D01*
X004073Y004967D02*
X004230Y004967D01*
X004232Y005125D02*
X004388Y005125D01*
X004390Y005284D02*
X004547Y005284D01*
X004549Y005442D02*
X004705Y005442D01*
X004707Y005601D02*
X004864Y005601D01*
X004866Y005759D02*
X005022Y005759D01*
X005024Y005918D02*
X005181Y005918D01*
X005183Y006076D02*
X005339Y006076D01*
X005341Y006235D02*
X005397Y006235D01*
X005500Y006393D02*
X005542Y006393D01*
X005658Y006552D02*
X008452Y006552D01*
X008166Y006710D02*
X005817Y006710D01*
X005975Y006869D02*
X008125Y006869D01*
X008165Y007027D02*
X006134Y007027D01*
X005818Y006393D02*
X009051Y006393D01*
X009051Y006235D02*
X005963Y006235D01*
X004906Y006393D02*
X003309Y006393D01*
X003309Y006235D02*
X004748Y006235D01*
X004589Y006076D02*
X000660Y006076D01*
X000660Y005918D02*
X004431Y005918D01*
X004272Y005759D02*
X000660Y005759D01*
X000660Y005601D02*
X004114Y005601D01*
X004071Y004808D02*
X003915Y004808D01*
X003913Y004650D02*
X003309Y004650D01*
X003309Y004491D02*
X003754Y004491D01*
X002201Y006235D02*
X000660Y006235D01*
X000660Y006393D02*
X002201Y006393D01*
X002201Y006552D02*
X000660Y006552D01*
X000660Y006710D02*
X002201Y006710D01*
X002201Y006869D02*
X000660Y006869D01*
X000660Y007027D02*
X002201Y007027D01*
X002295Y007856D02*
X002201Y007950D01*
X002201Y008791D01*
X002295Y008885D01*
X003215Y008885D01*
X003309Y008791D01*
X003309Y007950D01*
X003215Y007856D01*
X002295Y007856D01*
X002201Y007978D02*
X000660Y007978D01*
X000660Y007820D02*
X003881Y007820D01*
X003885Y007661D02*
X000660Y007661D01*
X000660Y007503D02*
X003991Y007503D01*
X003982Y007978D02*
X003309Y007978D01*
X003309Y008137D02*
X004926Y008137D01*
X005084Y008295D02*
X003309Y008295D01*
X003309Y008454D02*
X005243Y008454D01*
X005401Y008612D02*
X003309Y008612D01*
X003309Y008771D02*
X005560Y008771D01*
X005718Y008929D02*
X000660Y008929D01*
X000660Y008771D02*
X002201Y008771D01*
X002201Y008612D02*
X000660Y008612D01*
X000660Y008454D02*
X002201Y008454D01*
X002201Y008295D02*
X000660Y008295D01*
X000660Y008137D02*
X002201Y008137D01*
X002295Y009608D02*
X002201Y009702D01*
X002201Y010543D01*
X002295Y010637D01*
X003215Y010637D01*
X003309Y010543D01*
X003309Y009702D01*
X003215Y009608D01*
X002295Y009608D01*
X002201Y009722D02*
X000660Y009722D01*
X000660Y009880D02*
X002201Y009880D01*
X002201Y010039D02*
X000660Y010039D01*
X000660Y010197D02*
X002201Y010197D01*
X002201Y010356D02*
X000660Y010356D01*
X000660Y010514D02*
X002201Y010514D01*
X002295Y011360D02*
X002201Y011454D01*
X002201Y012295D01*
X002295Y012389D01*
X003215Y012389D01*
X003309Y012295D01*
X003309Y011454D01*
X003215Y011360D01*
X002295Y011360D01*
X002201Y011465D02*
X000660Y011465D01*
X000660Y011307D02*
X005016Y011307D01*
X005016Y011465D02*
X003309Y011465D01*
X003309Y011624D02*
X005016Y011624D01*
X005016Y011782D02*
X003309Y011782D01*
X003309Y011941D02*
X005016Y011941D01*
X005016Y012099D02*
X003309Y012099D01*
X003309Y012258D02*
X005016Y012258D01*
X005016Y012416D02*
X000660Y012416D01*
X000660Y012258D02*
X002201Y012258D01*
X002201Y012099D02*
X000660Y012099D01*
X000660Y011941D02*
X002201Y011941D01*
X002201Y011782D02*
X000660Y011782D01*
X000660Y011624D02*
X002201Y011624D01*
X003309Y010514D02*
X007303Y010514D01*
X007145Y010356D02*
X003309Y010356D01*
X003309Y010197D02*
X006986Y010197D01*
X006828Y010039D02*
X003309Y010039D01*
X003309Y009880D02*
X006669Y009880D01*
X006511Y009722D02*
X003309Y009722D01*
X005016Y011148D02*
X000660Y011148D01*
X000660Y010990D02*
X005156Y010990D01*
X006297Y010990D02*
X006457Y010990D01*
X006457Y011148D02*
X006297Y011148D01*
X006297Y011307D02*
X006457Y011307D01*
X006457Y011465D02*
X006297Y011465D01*
X006297Y011624D02*
X006457Y011624D01*
X006457Y011782D02*
X006297Y011782D01*
X006297Y011941D02*
X006457Y011941D01*
X006457Y012099D02*
X006297Y012099D01*
X006297Y012258D02*
X006457Y012258D01*
X006457Y012416D02*
X006297Y012416D01*
X006297Y012575D02*
X006457Y012575D01*
X006297Y012733D02*
X000660Y012733D01*
X000660Y012575D02*
X005016Y012575D01*
X005016Y012892D02*
X002258Y012892D01*
X002228Y012862D02*
X002314Y012948D01*
X002360Y013060D01*
X002360Y013112D01*
X003215Y013112D01*
X003309Y013206D01*
X003309Y014047D01*
X003215Y014141D01*
X002295Y014141D01*
X002201Y014047D01*
X002201Y013563D01*
X002063Y013425D01*
X001994Y013425D01*
X001882Y013379D01*
X001796Y013293D01*
X001750Y013181D01*
X001750Y013060D01*
X001796Y012948D01*
X001882Y012862D01*
X001994Y012815D01*
X002116Y012815D01*
X002228Y012862D01*
X002356Y013050D02*
X005016Y013050D01*
X005016Y013209D02*
X003309Y013209D01*
X003309Y013367D02*
X005016Y013367D01*
X005016Y013526D02*
X003309Y013526D01*
X003309Y013684D02*
X005016Y013684D01*
X005016Y013843D02*
X003309Y013843D01*
X003309Y014001D02*
X005016Y014001D01*
X005016Y014160D02*
X000660Y014160D01*
X000660Y014318D02*
X005062Y014318D01*
X005194Y014635D02*
X005354Y014635D01*
X005354Y014794D02*
X005194Y014794D01*
X005194Y014952D02*
X005354Y014952D01*
X005354Y015111D02*
X007006Y015111D01*
X007006Y014952D02*
X007166Y014952D01*
X007166Y014794D02*
X007006Y014794D01*
X007006Y014635D02*
X007166Y014635D01*
X007691Y014318D02*
X008956Y014318D01*
X009411Y014635D02*
X012375Y014635D01*
X012332Y014477D02*
X000660Y014477D01*
X000660Y014635D02*
X002949Y014635D01*
X002949Y014794D02*
X000660Y014794D01*
X000660Y014952D02*
X002949Y014952D01*
X002949Y015111D02*
X000660Y015111D01*
X000660Y015269D02*
X002949Y015269D01*
X002949Y015428D02*
X000660Y015428D01*
X000660Y014001D02*
X002201Y014001D01*
X002201Y013843D02*
X000660Y013843D01*
X000660Y013684D02*
X002201Y013684D01*
X002164Y013526D02*
X000660Y013526D01*
X000660Y013367D02*
X001871Y013367D01*
X001762Y013209D02*
X000660Y013209D01*
X000660Y013050D02*
X001754Y013050D01*
X001852Y012892D02*
X000660Y012892D01*
X000660Y010831D02*
X007620Y010831D01*
X007597Y010990D02*
X007779Y010990D01*
X007738Y011148D02*
X007937Y011148D01*
X008096Y011307D02*
X007738Y011307D01*
X007738Y011465D02*
X008254Y011465D01*
X008377Y011624D02*
X007738Y011624D01*
X008499Y012258D02*
X009051Y012258D01*
X008602Y012416D02*
X010337Y012416D01*
X010495Y012258D02*
X010159Y012258D01*
X010159Y012099D02*
X010654Y012099D01*
X010730Y011148D02*
X008764Y011148D01*
X008570Y010990D02*
X010888Y010990D01*
X011025Y010831D02*
X011047Y010831D01*
X010585Y010831D02*
X008412Y010831D01*
X008253Y010673D02*
X010500Y010673D01*
X010402Y010514D02*
X010159Y010514D01*
X010159Y010356D02*
X010244Y010356D01*
X010963Y010356D02*
X011147Y010356D01*
X012322Y011148D02*
X012345Y011148D01*
X013136Y009405D02*
X013220Y009405D01*
X013220Y009246D02*
X012978Y009246D01*
X012819Y009088D02*
X013220Y009088D01*
X009051Y009722D02*
X007302Y009722D01*
X007461Y009880D02*
X009051Y009880D01*
X009051Y010039D02*
X007619Y010039D01*
X007778Y010197D02*
X009051Y010197D01*
X009051Y010356D02*
X007936Y010356D01*
X008095Y010514D02*
X009051Y010514D01*
X007462Y010673D02*
X000660Y010673D01*
X000660Y009563D02*
X006352Y009563D01*
X006194Y009405D02*
X000660Y009405D01*
X000660Y009246D02*
X006035Y009246D01*
X005877Y009088D02*
X000660Y009088D01*
X003978Y014635D02*
X004743Y014635D01*
X004740Y014794D02*
X003978Y014794D01*
X003978Y014952D02*
X004740Y014952D01*
X004740Y015143D02*
X005194Y015143D01*
X005194Y015637D01*
X004896Y015637D01*
X004851Y015625D01*
X004810Y015601D01*
X004776Y015567D01*
X004752Y015526D01*
X004740Y015481D01*
X004740Y015143D01*
X004740Y015269D02*
X003978Y015269D01*
X003978Y015111D02*
X005194Y015111D01*
X005194Y015269D02*
X005354Y015269D01*
X005354Y015428D02*
X005194Y015428D01*
X005194Y015586D02*
X005354Y015586D01*
X004795Y015586D02*
X003915Y015586D01*
X003978Y015428D02*
X004740Y015428D01*
X004183Y016696D02*
X010001Y016696D01*
X009771Y016854D02*
X004068Y016854D01*
X003841Y017013D02*
X009682Y017013D01*
X009348Y015586D02*
X011340Y015586D01*
X011250Y015428D02*
X009411Y015428D01*
X009411Y015269D02*
X010920Y015269D01*
X010773Y015111D02*
X009411Y015111D01*
X009411Y014952D02*
X010750Y014952D01*
X010825Y014794D02*
X009411Y014794D01*
X008445Y015586D02*
X007565Y015586D01*
X007620Y015428D02*
X008382Y015428D01*
X008045Y015269D02*
X007620Y015269D01*
X008916Y013684D02*
X009051Y013684D01*
X009051Y013526D02*
X008758Y013526D01*
X008599Y013367D02*
X009051Y013367D01*
X009051Y013209D02*
X008441Y013209D01*
X010159Y013209D02*
X010544Y013209D01*
X010386Y013367D02*
X010159Y013367D01*
X011190Y015269D02*
X011267Y015269D01*
X011770Y015586D02*
X013542Y015586D01*
X009051Y007027D02*
X008695Y007027D01*
X008735Y006869D02*
X009051Y006869D01*
X014531Y004174D02*
X014609Y004174D01*
X015251Y004174D02*
X015609Y004174D01*
X015468Y004016D02*
X015392Y004016D01*
X001631Y017805D02*
X001471Y017805D01*
X001471Y017964D02*
X001631Y017964D01*
X001631Y018122D02*
X001471Y018122D01*
X003479Y018598D02*
X003639Y018598D01*
X003639Y018756D02*
X003479Y018756D01*
X003479Y018915D02*
X003639Y018915D01*
D21*
X008180Y014995D03*
X010180Y016120D03*
X011055Y014995D03*
X011555Y015370D03*
X012680Y014620D03*
X012305Y012995D03*
X013055Y011995D03*
X013055Y011120D03*
X013430Y010745D03*
X012555Y010245D03*
X011805Y010245D03*
X011305Y010620D03*
X010805Y010620D03*
X012055Y010995D03*
X013555Y012870D03*
X015430Y014620D03*
X015180Y014995D03*
X015930Y014245D03*
X017680Y015745D03*
X016180Y016120D03*
X017680Y017495D03*
X018930Y017120D03*
X019305Y017620D03*
X020430Y017495D03*
X020430Y015745D03*
X019305Y013870D03*
X018930Y013495D03*
X018555Y013870D03*
X019805Y013245D03*
X017430Y011745D03*
X016930Y011245D03*
X015805Y010995D03*
X015805Y009120D03*
X015180Y008745D03*
X014055Y006870D03*
X012180Y005495D03*
X012430Y004995D03*
X011680Y005120D03*
X011305Y004620D03*
X010930Y004870D03*
X010555Y004620D03*
X010180Y005745D03*
X011555Y005995D03*
X008430Y006870D03*
X006555Y004495D03*
X006930Y003495D03*
X006555Y001620D03*
X005680Y006120D03*
X004180Y007745D03*
X001055Y004620D03*
X008555Y010245D03*
X008555Y011370D03*
X008555Y011995D03*
X008305Y012495D03*
X008055Y013120D03*
X004305Y014120D03*
X002055Y013120D03*
X013805Y002370D03*
X013805Y001620D03*
X019805Y001620D03*
X021055Y003745D03*
X022805Y004120D03*
X022805Y005870D03*
X022430Y006245D03*
X022430Y007820D03*
X021180Y009120D03*
X019805Y009120D03*
X018305Y007870D03*
X018930Y006870D03*
X019805Y006870D03*
X019805Y006245D03*
X018180Y009120D03*
X018930Y010870D03*
X019680Y010870D03*
X022430Y013245D03*
X016305Y018995D03*
D22*
X018930Y017120D02*
X018930Y013495D01*
X017680Y013495D01*
X016555Y014620D01*
X015430Y014620D01*
X015180Y014995D02*
X016680Y014995D01*
X017805Y013870D01*
X018555Y013870D01*
X019305Y013870D02*
X019305Y017620D01*
X014930Y014495D02*
X012230Y017195D01*
X012180Y017195D01*
X011555Y015370D02*
X013680Y015370D01*
X014680Y014370D01*
X014680Y008620D01*
X015180Y008120D01*
X015180Y005120D01*
X014305Y004245D01*
X014305Y003495D01*
X014680Y003120D01*
X018555Y003120D01*
X018930Y003495D01*
X018930Y003745D01*
X019055Y002870D02*
X014555Y002870D01*
X014055Y003370D01*
X014055Y004370D01*
X014930Y005245D01*
X014930Y007995D01*
X014430Y008495D01*
X014430Y014245D01*
X013680Y014995D01*
X011055Y014995D01*
X012430Y014245D02*
X012680Y014620D01*
X012430Y014245D02*
X009180Y014245D01*
X008055Y013120D01*
X008555Y012745D02*
X008305Y012495D01*
X008555Y012745D02*
X010305Y012745D01*
X012055Y010995D01*
X012555Y011495D02*
X010424Y013626D01*
X009605Y013626D01*
X009605Y011874D02*
X010301Y011874D01*
X011305Y010870D01*
X011305Y010620D01*
X010805Y010620D02*
X010307Y010122D01*
X009605Y010122D01*
X009607Y010120D01*
X007305Y009245D02*
X004680Y006620D01*
X002757Y006620D01*
X002755Y006618D01*
X002755Y004866D02*
X003676Y004866D01*
X006305Y007495D01*
X013055Y007495D01*
X013430Y007870D01*
X013430Y010745D01*
X013055Y011120D02*
X013055Y009620D01*
X012680Y009245D01*
X007305Y009245D01*
X008430Y006870D02*
X008680Y006620D01*
X009603Y006620D01*
X009605Y006618D01*
X010555Y005120D02*
X010555Y004620D01*
X010930Y004870D02*
X011180Y005120D01*
X011680Y005120D01*
X011305Y004620D02*
X012055Y004620D01*
X012430Y004995D01*
X011555Y005995D02*
X011430Y005995D01*
X010555Y005120D01*
X013805Y004495D02*
X013805Y003245D01*
X014430Y002620D01*
X019930Y002620D01*
X021055Y003745D01*
X019930Y003745D02*
X019055Y002870D01*
X020305Y004959D02*
X021966Y004959D01*
X022805Y004120D01*
X022805Y005870D02*
X021930Y005870D01*
X019805Y007995D01*
X019805Y006870D02*
X018930Y006870D01*
X015180Y008745D02*
X014930Y008995D01*
X014930Y014495D01*
X013555Y012870D02*
X014180Y012245D01*
X014180Y008370D01*
X014680Y007870D01*
X014680Y005370D01*
X013805Y004495D01*
X012555Y010245D02*
X012555Y011495D01*
X018930Y010870D02*
X019680Y010870D01*
X005680Y006120D02*
X002755Y003195D01*
X002755Y003114D01*
X002055Y013120D02*
X002424Y013489D01*
X002424Y013626D01*
X002755Y013626D01*
D23*
X008180Y014995D02*
X008829Y014995D01*
X008897Y015063D01*
X008897Y015154D01*
X008555Y011370D02*
X004930Y007745D01*
X004180Y007745D01*
X007430Y003995D02*
X006930Y003495D01*
X007430Y003995D02*
X012180Y003995D01*
X013805Y002370D01*
X016930Y003745D02*
X016930Y011245D01*
X020305Y012282D02*
X020305Y008495D01*
X019805Y007995D01*
X019680Y007870D01*
X018305Y007870D01*
X014055Y006870D02*
X011305Y006870D01*
X010180Y005745D01*
M02*
