G75*
%MOIN*%
%OFA0B0*%
%FSLAX24Y24*%
%IPPOS*%
%LPD*%
%AMOC8*
5,1,8,0,0,1.08239X$1,22.5*
%
%ADD10R,0.0117X0.0472*%
%ADD11R,0.0118X0.0472*%
%ADD12R,0.0472X0.0117*%
%ADD13R,0.0551X0.0394*%
%ADD14R,0.0591X0.0512*%
%ADD15R,0.0512X0.0591*%
%ADD16C,0.0750*%
%ADD17C,0.1050*%
%ADD18R,0.0480X0.0880*%
%ADD19R,0.1417X0.0866*%
%ADD20R,0.0394X0.1811*%
%ADD21R,0.0630X0.1339*%
%ADD22R,0.0472X0.0315*%
%ADD23R,0.0870X0.0240*%
%ADD24C,0.0740*%
%ADD25R,0.0787X0.0394*%
%ADD26R,0.0740X0.0740*%
%ADD27R,0.0984X0.0866*%
%ADD28R,0.0197X0.0787*%
%ADD29R,0.0315X0.0709*%
%ADD30R,0.0276X0.0709*%
%ADD31R,0.0709X0.0630*%
%ADD32R,0.0236X0.0669*%
%ADD33C,0.0100*%
%ADD34R,0.0472X0.0217*%
%ADD35R,0.0433X0.0236*%
%ADD36C,0.0160*%
%ADD37C,0.0290*%
%ADD38C,0.0240*%
D10*
X010579Y009501D03*
X010775Y009501D03*
X010972Y009501D03*
X011169Y009501D03*
X011366Y009501D03*
X011563Y009501D03*
X011760Y009501D03*
X011957Y009501D03*
X012153Y009501D03*
X012350Y009501D03*
X012547Y009501D03*
X012744Y009501D03*
X012941Y009501D03*
X013138Y009501D03*
X013335Y009501D03*
X013531Y009501D03*
X013531Y013989D03*
X013335Y013989D03*
X012941Y013989D03*
X012744Y013989D03*
X012547Y013989D03*
X012350Y013989D03*
X012153Y013989D03*
X011957Y013989D03*
X011760Y013989D03*
X011563Y013989D03*
X011366Y013989D03*
X011169Y013989D03*
X010972Y013989D03*
X010775Y013989D03*
X010579Y013989D03*
D11*
X013138Y013989D03*
D12*
X014299Y013222D03*
X014299Y013025D03*
X014299Y012828D03*
X014299Y012631D03*
X014299Y012434D03*
X014299Y012237D03*
X014299Y012041D03*
X014299Y011844D03*
X014299Y011647D03*
X014299Y011450D03*
X014299Y011253D03*
X014299Y011056D03*
X014299Y010860D03*
X014299Y010663D03*
X014299Y010466D03*
X014299Y010269D03*
X009811Y010269D03*
X009811Y010466D03*
X009811Y010663D03*
X009811Y010860D03*
X009811Y011056D03*
X009811Y011253D03*
X009811Y011450D03*
X009811Y011647D03*
X009811Y011844D03*
X009811Y012041D03*
X009811Y012237D03*
X009811Y012434D03*
X009811Y012631D03*
X009811Y012828D03*
X009811Y013025D03*
X009811Y013222D03*
D13*
X021872Y003744D03*
X021872Y002996D03*
X022738Y003370D03*
D14*
X020180Y004911D03*
X020180Y005580D03*
X018055Y010536D03*
X018055Y011205D03*
X018055Y012411D03*
X018055Y013080D03*
X016430Y012911D03*
X016430Y013580D03*
X015305Y013580D03*
X015305Y012911D03*
X015305Y017161D03*
X015305Y017830D03*
X016305Y017830D03*
X016305Y017161D03*
X004180Y011455D03*
X004180Y010786D03*
X003180Y010786D03*
X003180Y011455D03*
X002180Y011455D03*
X002180Y010786D03*
X005180Y003455D03*
X005180Y002786D03*
X006180Y002786D03*
X006180Y003455D03*
X008055Y003455D03*
X008055Y002786D03*
D15*
X007515Y006120D03*
X006845Y006120D03*
X006845Y007620D03*
X007515Y007620D03*
X007515Y008620D03*
X006845Y008620D03*
X006845Y009620D03*
X007515Y009620D03*
X005515Y009620D03*
X004845Y009620D03*
X003640Y013245D03*
X002970Y013245D03*
X003015Y014120D03*
X002345Y014120D03*
X002345Y014995D03*
X003015Y014995D03*
X006720Y014995D03*
X007390Y014995D03*
X020095Y013870D03*
X020765Y013870D03*
X020765Y012495D03*
X020095Y012495D03*
D16*
X002555Y017370D03*
D17*
X001551Y016366D03*
X003559Y016366D03*
X003559Y018374D03*
X001551Y018374D03*
D18*
X002020Y006400D03*
X002930Y006400D03*
X003840Y006400D03*
D19*
X002930Y008840D03*
D20*
X002824Y003577D03*
X002036Y003577D03*
D21*
X001091Y001530D03*
X003769Y001530D03*
D22*
X001305Y013141D03*
X001305Y013850D03*
X001305Y014391D03*
X001305Y015100D03*
D23*
X020650Y011370D03*
X020650Y010870D03*
X020650Y010370D03*
X020650Y009870D03*
X022710Y009870D03*
X022710Y010370D03*
X022710Y010870D03*
X022710Y011370D03*
D24*
X014180Y017195D03*
X013180Y017295D03*
X012180Y017195D03*
X011180Y017295D03*
X010180Y017195D03*
X014930Y003745D03*
X015930Y003745D03*
X016930Y003745D03*
X017930Y003745D03*
X018930Y003745D03*
D25*
X022911Y015168D03*
X022911Y017924D03*
D26*
X019930Y003745D03*
D27*
X012709Y003408D03*
X012709Y001321D03*
X009401Y001321D03*
X009401Y003408D03*
D28*
X010425Y003506D03*
X010740Y003506D03*
X011055Y003506D03*
X011370Y003506D03*
X011685Y003506D03*
D29*
X017986Y014922D03*
X018419Y014922D03*
X018852Y014922D03*
X019285Y014922D03*
X019718Y014922D03*
X020151Y014922D03*
X020585Y014922D03*
X020585Y018662D03*
X020151Y018662D03*
X019718Y018662D03*
X019285Y018662D03*
X018852Y018662D03*
X018419Y018662D03*
X017986Y018662D03*
D30*
X017573Y018662D03*
X020998Y018662D03*
X020998Y014922D03*
X017573Y014922D03*
D31*
X013055Y008047D03*
X012055Y008047D03*
X012055Y006944D03*
X013055Y006944D03*
D32*
X016287Y006870D03*
X016287Y005620D03*
X017823Y005620D03*
X017823Y006870D03*
X021287Y004995D03*
X022823Y004995D03*
D33*
X022823Y005853D01*
X022805Y005870D01*
X022891Y005280D02*
X022558Y005280D01*
X022558Y005144D01*
X022755Y005144D01*
X022755Y004847D01*
X022558Y004847D01*
X022558Y004711D01*
X022891Y004711D01*
X022891Y005280D01*
X022891Y005197D02*
X022558Y005197D01*
X022755Y005098D02*
X022891Y005098D01*
X022891Y005000D02*
X022755Y005000D01*
X022755Y004901D02*
X022891Y004901D01*
X022891Y004803D02*
X022558Y004803D01*
X022555Y004370D02*
X022805Y004120D01*
X022805Y003437D01*
X022738Y003370D01*
X021872Y003744D02*
X021056Y003744D01*
X021055Y003745D01*
X021430Y004370D02*
X022555Y004370D01*
X021552Y004711D02*
X021219Y004711D01*
X021219Y005280D01*
X021552Y005280D01*
X021552Y005144D01*
X021355Y005144D01*
X021355Y004847D01*
X021552Y004847D01*
X021552Y004711D01*
X021552Y004803D02*
X021219Y004803D01*
X021219Y004901D02*
X021355Y004901D01*
X021355Y005000D02*
X021219Y005000D01*
X021287Y004995D02*
X021287Y004513D01*
X021430Y004370D01*
X021355Y005098D02*
X021219Y005098D01*
X021219Y005197D02*
X021552Y005197D01*
X021555Y005745D02*
X021774Y005964D01*
X021774Y006783D01*
X021774Y007275D01*
X022785Y007275D01*
X022880Y007370D01*
X022880Y008170D01*
X022791Y008259D01*
X021774Y008259D01*
X021774Y008677D01*
X021680Y008770D01*
X020980Y008770D01*
X020908Y008698D01*
X020908Y008259D01*
X021680Y008770D02*
X021680Y009870D01*
X020650Y009870D01*
X020650Y010870D02*
X019680Y010870D01*
X019305Y011370D02*
X019305Y007270D01*
X019310Y007275D01*
X020908Y007275D01*
X020908Y006783D02*
X019892Y006783D01*
X019805Y006870D01*
X019842Y006833D01*
X019305Y007270D02*
X019305Y005120D01*
X018805Y004620D01*
X016305Y004620D01*
X015930Y004245D01*
X015930Y003745D01*
X014930Y003745D02*
X014930Y004120D01*
X015680Y004870D01*
X018680Y004870D01*
X018930Y005120D01*
X018930Y006870D01*
X018930Y010870D01*
X018930Y013120D01*
X018890Y013080D01*
X018055Y013080D01*
X018055Y012411D02*
X018055Y011205D01*
X018015Y011245D01*
X016930Y011245D01*
X016930Y010870D01*
X016525Y010466D01*
X014299Y010466D01*
X013775Y010466D01*
X013531Y010222D01*
X013531Y009501D01*
X013335Y009501D02*
X013335Y009091D01*
X013680Y008745D01*
X015180Y008745D01*
X015180Y010245D02*
X015156Y010269D01*
X014299Y010269D01*
X014299Y010663D02*
X013513Y010663D01*
X013430Y010745D01*
X013555Y011120D02*
X013816Y010860D01*
X014299Y010860D01*
X014299Y011253D02*
X013797Y011253D01*
X013430Y011620D01*
X011305Y011620D01*
X010805Y011120D01*
X010805Y010620D01*
X011305Y010620D02*
X012680Y010620D01*
X012941Y010360D01*
X012941Y009501D01*
X013138Y009501D02*
X013138Y010538D01*
X012680Y010995D01*
X012055Y010995D01*
X012555Y010245D02*
X012744Y010056D01*
X012744Y009501D01*
X012153Y009501D02*
X012153Y009022D01*
X012430Y008745D01*
X012805Y008745D01*
X013055Y008495D01*
X013055Y008047D01*
X012055Y008047D02*
X011957Y008145D01*
X011957Y009501D01*
X011169Y009501D02*
X011169Y006381D01*
X011555Y005995D01*
X013805Y005995D01*
X014067Y005734D01*
X014067Y005619D01*
X016286Y005619D01*
X016219Y005591D02*
X016355Y005591D01*
X016355Y005689D02*
X016219Y005689D01*
X016219Y005788D02*
X016552Y005788D01*
X016552Y005769D02*
X016355Y005769D01*
X016355Y005472D01*
X016552Y005472D01*
X016552Y005336D01*
X016219Y005336D01*
X016219Y005905D01*
X016552Y005905D01*
X016552Y005769D01*
X016552Y005886D02*
X016219Y005886D01*
X016219Y005492D02*
X016355Y005492D01*
X016219Y005394D02*
X016552Y005394D01*
X017558Y005394D02*
X017891Y005394D01*
X017891Y005336D02*
X017558Y005336D01*
X017558Y005472D01*
X017755Y005472D01*
X017755Y005769D01*
X017558Y005769D01*
X017558Y005905D01*
X017891Y005905D01*
X017891Y005336D01*
X017891Y005492D02*
X017755Y005492D01*
X017755Y005591D02*
X017891Y005591D01*
X017823Y005620D02*
X017823Y006870D01*
X017755Y006871D02*
X017891Y006871D01*
X017891Y006773D02*
X017755Y006773D01*
X017755Y006722D02*
X017755Y007019D01*
X017558Y007019D01*
X017558Y007155D01*
X017891Y007155D01*
X017891Y006586D01*
X017558Y006586D01*
X017558Y006722D01*
X017755Y006722D01*
X017891Y006674D02*
X017558Y006674D01*
X017755Y006970D02*
X017891Y006970D01*
X017891Y007068D02*
X017558Y007068D01*
X016552Y007068D02*
X016219Y007068D01*
X016219Y007155D02*
X016219Y006586D01*
X016552Y006586D01*
X016552Y006722D01*
X016355Y006722D01*
X016355Y007019D01*
X016552Y007019D01*
X016552Y007155D01*
X016219Y007155D01*
X016219Y006970D02*
X016355Y006970D01*
X016355Y006871D02*
X016219Y006871D01*
X016219Y006773D02*
X016355Y006773D01*
X016219Y006674D02*
X016552Y006674D01*
X017558Y005886D02*
X017891Y005886D01*
X017891Y005788D02*
X017558Y005788D01*
X017755Y005689D02*
X017891Y005689D01*
X017055Y004370D02*
X016930Y004245D01*
X016930Y003745D01*
X017055Y004370D02*
X018930Y004370D01*
X019555Y004995D01*
X019555Y005495D01*
X019640Y005580D01*
X020180Y005580D01*
X020345Y005745D01*
X021555Y005745D01*
X021774Y007767D02*
X022377Y007767D01*
X022430Y007820D01*
X021680Y009870D02*
X021680Y012245D01*
X021430Y012495D01*
X020765Y012495D01*
X020765Y013870D01*
X020585Y014050D01*
X020585Y014922D01*
X020585Y015050D01*
X020585Y014922D02*
X020151Y014922D01*
X019718Y014922D01*
X019305Y013870D02*
X018555Y013870D01*
X018930Y013495D02*
X018930Y013120D01*
X019305Y012495D02*
X020095Y012495D01*
X019305Y012495D02*
X019305Y011370D01*
X020650Y011370D01*
X019305Y012495D02*
X019305Y013870D01*
X018419Y014922D02*
X018419Y016006D01*
X018180Y016245D01*
X017305Y016245D01*
X017055Y015995D01*
X017055Y012495D01*
X016797Y012237D01*
X014299Y012237D01*
X014299Y012041D02*
X016975Y012041D01*
X017305Y012370D01*
X017305Y013745D01*
X017986Y014426D01*
X017986Y014922D01*
X017986Y014926D01*
X015930Y013370D02*
X015930Y012995D01*
X016055Y012870D01*
X016390Y012870D01*
X016430Y012911D01*
X015930Y013370D02*
X015720Y013580D01*
X015305Y013580D01*
X015220Y013495D01*
X014680Y013495D01*
X014406Y013222D01*
X014299Y013222D01*
X014299Y012828D02*
X013597Y012828D01*
X013555Y012870D01*
X014299Y012631D02*
X015025Y012631D01*
X015305Y012911D01*
X014299Y012434D02*
X011744Y012434D01*
X010430Y011120D01*
X010430Y010120D01*
X008930Y008620D01*
X008930Y006745D01*
X008305Y006120D01*
X007515Y006120D01*
X006845Y006120D02*
X005680Y006120D01*
X008055Y003995D02*
X008305Y004245D01*
X010425Y004245D01*
X010425Y004490D01*
X010555Y004620D01*
X010740Y004305D02*
X010930Y004495D01*
X010930Y004870D01*
X011305Y005091D02*
X011305Y004620D01*
X011305Y004370D01*
X011055Y004120D01*
X011055Y003506D01*
X010740Y003506D02*
X010740Y004305D01*
X010425Y004245D02*
X010425Y003506D01*
X011305Y005091D02*
X010775Y005620D01*
X010775Y009501D01*
X010972Y009501D02*
X010972Y005828D01*
X011680Y005120D01*
X012305Y004495D01*
X013805Y004495D01*
X014067Y004757D01*
X014067Y004871D01*
X013043Y004871D02*
X012554Y004871D01*
X012430Y004995D01*
X008430Y006870D02*
X008430Y008370D01*
X008180Y008620D01*
X007515Y008620D01*
X006845Y008620D02*
X006930Y009705D01*
X006930Y011120D01*
X008305Y012495D01*
X008805Y012870D02*
X009241Y012434D01*
X009811Y012434D01*
X009811Y012631D02*
X009419Y012631D01*
X009055Y012995D01*
X009055Y016245D01*
X010005Y017195D01*
X010180Y017195D01*
X009805Y017870D02*
X008805Y016870D01*
X008805Y012870D01*
X009430Y013245D02*
X009454Y013222D01*
X009811Y013222D01*
X010281Y013222D01*
X010305Y013245D01*
X011169Y013989D02*
X011169Y014881D01*
X011055Y014995D01*
X011366Y015181D02*
X011555Y015370D01*
X011366Y015181D02*
X011366Y013989D01*
X011563Y013989D02*
X011563Y012628D01*
X010385Y011450D01*
X009811Y011450D01*
X008635Y011450D01*
X008555Y011370D01*
X007555Y010370D01*
X007555Y009661D01*
X007515Y009620D01*
X007430Y009620D01*
X007515Y009620D02*
X007805Y009620D01*
X008555Y011370D02*
X008583Y011398D01*
X008055Y013120D02*
X006305Y011370D01*
X004265Y011370D01*
X004180Y011455D01*
X002180Y010786D02*
X001265Y010786D01*
X001180Y010870D01*
X001305Y013141D02*
X002034Y013141D01*
X002055Y013120D01*
X002180Y013245D01*
X002970Y013245D01*
X002345Y014120D02*
X001305Y014120D01*
X001305Y014391D01*
X001305Y014120D02*
X001305Y013850D01*
X001305Y015100D02*
X002241Y015100D01*
X002345Y014995D01*
X002305Y015036D01*
X002305Y015495D01*
X002555Y015745D01*
X002555Y017370D01*
X009805Y017870D02*
X010555Y017870D01*
X011130Y017295D01*
X011180Y017295D01*
X012180Y017195D02*
X012180Y017620D01*
X012430Y017870D01*
X015265Y017870D01*
X015305Y017830D01*
X016305Y017830D01*
X015305Y017161D02*
X015270Y017195D01*
X014180Y017195D01*
X011563Y014578D01*
X011563Y013989D01*
X011760Y013989D02*
X011760Y013325D01*
X012305Y012995D01*
X011957Y013989D02*
X011957Y014397D01*
X012180Y014620D01*
X012680Y014620D01*
X013138Y014578D02*
X013555Y014995D01*
X015180Y014995D01*
X015430Y014620D02*
X013555Y014620D01*
X013335Y014400D01*
X013335Y013989D01*
X013138Y013989D02*
X013138Y014578D01*
X013680Y011870D02*
X013707Y011844D01*
X014299Y011844D01*
X016707Y011844D01*
X016805Y011745D01*
X016528Y011647D02*
X016930Y011245D01*
X016528Y011647D02*
X014299Y011647D01*
X013555Y011120D02*
X013055Y011120D01*
X018930Y017120D02*
X017986Y018064D01*
X017986Y018662D01*
X018419Y018662D02*
X018419Y018256D01*
X019055Y017620D01*
X019305Y017620D01*
X020585Y018216D02*
X020585Y018662D01*
X020585Y018216D02*
X020930Y017870D01*
X022858Y017870D01*
X022911Y017924D01*
X008055Y003995D02*
X008055Y003455D01*
D34*
X013043Y004871D03*
X013043Y005245D03*
X013043Y005619D03*
X014067Y005619D03*
X014067Y004871D03*
D35*
X020908Y006783D03*
X020908Y007275D03*
X020908Y007767D03*
X020908Y008259D03*
X021774Y008259D03*
X021774Y007767D03*
X021774Y007275D03*
X021774Y006783D03*
D36*
X001566Y002265D02*
X001566Y000850D01*
X003294Y000850D01*
X003294Y002265D01*
X003387Y002359D01*
X004150Y002359D01*
X004244Y002265D01*
X004244Y000850D01*
X008749Y000850D01*
X008749Y001820D01*
X008843Y001914D01*
X009459Y001914D01*
X009459Y002476D01*
X009506Y002523D01*
X010247Y002523D01*
X010247Y002966D01*
X010167Y003046D01*
X010167Y003966D01*
X010215Y004015D01*
X010215Y004035D01*
X008392Y004035D01*
X008265Y003908D01*
X008265Y003871D01*
X008417Y003871D01*
X008510Y003777D01*
X008510Y003133D01*
X008507Y003130D01*
X008518Y003111D01*
X008530Y003065D01*
X008749Y003065D01*
X008749Y002908D02*
X008843Y002815D01*
X009960Y002815D01*
X010054Y002908D01*
X010054Y003907D01*
X009960Y004001D01*
X008843Y004001D01*
X008749Y003907D01*
X008749Y002908D01*
X008751Y002906D02*
X008530Y002906D01*
X008530Y002834D02*
X008530Y003065D01*
X008510Y003223D02*
X008749Y003223D01*
X008749Y003382D02*
X008510Y003382D01*
X008510Y003540D02*
X008749Y003540D01*
X008749Y003699D02*
X008510Y003699D01*
X008430Y003857D02*
X008749Y003857D01*
X008372Y004016D02*
X010215Y004016D01*
X010167Y003857D02*
X010054Y003857D01*
X010054Y003699D02*
X010167Y003699D01*
X010167Y003540D02*
X010054Y003540D01*
X010054Y003382D02*
X010167Y003382D01*
X010167Y003223D02*
X010054Y003223D01*
X010054Y003065D02*
X010167Y003065D01*
X010247Y002906D02*
X010052Y002906D01*
X010247Y002748D02*
X008103Y002748D01*
X008103Y002738D02*
X008103Y002834D01*
X008530Y002834D01*
X008530Y002738D02*
X008103Y002738D01*
X008103Y002350D01*
X008374Y002350D01*
X008420Y002362D01*
X008461Y002386D01*
X008494Y002419D01*
X008518Y002460D01*
X008530Y002506D01*
X008530Y002738D01*
X008530Y002589D02*
X010247Y002589D01*
X009459Y002431D02*
X008501Y002431D01*
X008103Y002431D02*
X008007Y002431D01*
X008007Y002350D02*
X008007Y002738D01*
X007580Y002738D01*
X007580Y002506D01*
X007592Y002460D01*
X007616Y002419D01*
X007649Y002386D01*
X007690Y002362D01*
X007736Y002350D01*
X008007Y002350D01*
X008007Y002589D02*
X008103Y002589D01*
X008103Y002738D02*
X008007Y002738D01*
X008007Y002834D01*
X007580Y002834D01*
X007580Y003065D01*
X006655Y003065D01*
X006643Y003111D01*
X006632Y003130D01*
X006635Y003133D01*
X006635Y003215D01*
X006809Y003215D01*
X006869Y003190D01*
X006991Y003190D01*
X007103Y003237D01*
X007189Y003323D01*
X007235Y003435D01*
X007235Y003556D01*
X007189Y003668D01*
X007103Y003754D01*
X006991Y003800D01*
X006869Y003800D01*
X006809Y003775D01*
X006635Y003775D01*
X006635Y003777D01*
X006542Y003871D01*
X005818Y003871D01*
X005725Y003777D01*
X005725Y003735D01*
X005635Y003735D01*
X005635Y003777D01*
X005542Y003871D01*
X005460Y003871D01*
X005460Y004676D01*
X005417Y004779D01*
X005339Y004858D01*
X004240Y005956D01*
X004240Y006907D01*
X004146Y007000D01*
X004120Y007000D01*
X004120Y007289D01*
X004292Y007462D01*
X004353Y007487D01*
X004439Y007573D01*
X004485Y007685D01*
X004485Y007806D01*
X004439Y007918D01*
X004353Y008004D01*
X004241Y008050D01*
X004119Y008050D01*
X004007Y008004D01*
X003921Y007918D01*
X003896Y007858D01*
X003603Y007564D01*
X003560Y007461D01*
X003560Y007000D01*
X003534Y007000D01*
X003440Y006907D01*
X003440Y005894D01*
X003534Y005800D01*
X003604Y005800D01*
X004900Y004504D01*
X004900Y003871D01*
X004818Y003871D01*
X004725Y003777D01*
X004725Y003133D01*
X004728Y003130D01*
X004717Y003111D01*
X004705Y003065D01*
X003201Y003065D01*
X003201Y003223D02*
X004725Y003223D01*
X004725Y003382D02*
X003201Y003382D01*
X003201Y003540D02*
X004725Y003540D01*
X004725Y003699D02*
X003201Y003699D01*
X003201Y003595D02*
X003201Y004506D01*
X003188Y004552D01*
X003165Y004593D01*
X003131Y004627D01*
X003090Y004650D01*
X003044Y004663D01*
X002842Y004663D01*
X002842Y003595D01*
X003201Y003595D01*
X003201Y003559D02*
X002842Y003559D01*
X002842Y003595D01*
X002805Y003595D01*
X002805Y003559D01*
X002447Y003559D01*
X002447Y002648D01*
X002459Y002602D01*
X002483Y002561D01*
X002516Y002527D01*
X002557Y002504D01*
X002603Y002492D01*
X002805Y002492D01*
X002805Y003559D01*
X002842Y003559D01*
X002842Y002492D01*
X003044Y002492D01*
X003090Y002504D01*
X003131Y002527D01*
X003165Y002561D01*
X003188Y002602D01*
X003201Y002648D01*
X003201Y003559D01*
X003201Y003857D02*
X004805Y003857D01*
X004900Y004016D02*
X003201Y004016D01*
X003201Y004174D02*
X004900Y004174D01*
X004900Y004333D02*
X003201Y004333D01*
X003201Y004491D02*
X004900Y004491D01*
X004755Y004650D02*
X003091Y004650D01*
X002842Y004650D02*
X002805Y004650D01*
X002805Y004663D02*
X002603Y004663D01*
X002557Y004650D01*
X002316Y004650D01*
X002316Y004626D02*
X002316Y005800D01*
X002326Y005800D01*
X002420Y005894D01*
X002420Y006907D01*
X002326Y007000D01*
X001714Y007000D01*
X001620Y006907D01*
X001620Y006650D01*
X001546Y006650D01*
X001460Y006736D01*
X001460Y009465D01*
X004429Y009465D01*
X004429Y009259D01*
X004523Y009165D01*
X004650Y009165D01*
X004650Y005940D01*
X004693Y005837D01*
X004771Y005758D01*
X005396Y005133D01*
X005499Y005090D01*
X009861Y005090D01*
X009964Y005133D01*
X010042Y005212D01*
X010292Y005462D01*
X010353Y005487D01*
X010439Y005573D01*
X010485Y005685D01*
X010485Y005806D01*
X010439Y005918D01*
X010565Y005918D01*
X010439Y005918D02*
X010353Y006004D01*
X010241Y006050D01*
X010119Y006050D01*
X010007Y006004D01*
X009921Y005918D01*
X008399Y005918D01*
X008392Y005910D02*
X008515Y006033D01*
X009017Y006535D01*
X009140Y006658D01*
X009140Y008533D01*
X010360Y009753D01*
X010360Y009199D01*
X010454Y009105D01*
X010565Y009105D01*
X010565Y005533D01*
X010923Y005175D01*
X010869Y005175D01*
X010757Y005129D01*
X010671Y005043D01*
X010625Y004931D01*
X010625Y004921D01*
X010616Y004925D01*
X010494Y004925D01*
X010382Y004879D01*
X010296Y004793D01*
X010250Y004681D01*
X010250Y004612D01*
X010215Y004577D01*
X010215Y004455D01*
X008218Y004455D01*
X008095Y004332D01*
X007845Y004082D01*
X007845Y003871D01*
X007693Y003871D01*
X007600Y003777D01*
X007600Y003133D01*
X007603Y003130D01*
X007592Y003111D01*
X007580Y003065D01*
X007580Y002906D02*
X006655Y002906D01*
X006655Y002834D02*
X006655Y003065D01*
X006655Y002834D02*
X006228Y002834D01*
X006228Y002738D01*
X006655Y002738D01*
X006655Y002506D01*
X006643Y002460D01*
X006619Y002419D01*
X006586Y002386D01*
X006545Y002362D01*
X006499Y002350D01*
X006228Y002350D01*
X006228Y002738D01*
X006132Y002738D01*
X005705Y002738D01*
X005705Y002506D01*
X005717Y002460D01*
X005741Y002419D01*
X005774Y002386D01*
X005815Y002362D01*
X005861Y002350D01*
X006132Y002350D01*
X006132Y002738D01*
X006132Y002834D01*
X005705Y002834D01*
X005705Y003065D01*
X005655Y003065D01*
X005643Y003111D01*
X005632Y003130D01*
X005635Y003133D01*
X005635Y003175D01*
X005725Y003175D01*
X005725Y003133D01*
X005728Y003130D01*
X005717Y003111D01*
X005705Y003065D01*
X005655Y003065D02*
X005655Y002834D01*
X005228Y002834D01*
X005228Y002738D01*
X005655Y002738D01*
X005655Y002506D01*
X005643Y002460D01*
X005619Y002419D01*
X005586Y002386D01*
X005545Y002362D01*
X005499Y002350D01*
X005228Y002350D01*
X005228Y002738D01*
X005132Y002738D01*
X004705Y002738D01*
X004705Y002506D01*
X004717Y002460D01*
X004741Y002419D01*
X004774Y002386D01*
X004815Y002362D01*
X004861Y002350D01*
X005132Y002350D01*
X005132Y002738D01*
X005132Y002834D01*
X004705Y002834D01*
X004705Y003065D01*
X004705Y002906D02*
X003201Y002906D01*
X003201Y002748D02*
X005132Y002748D01*
X005228Y002748D02*
X006132Y002748D01*
X006228Y002748D02*
X008007Y002748D01*
X007580Y002589D02*
X006655Y002589D01*
X006626Y002431D02*
X007609Y002431D01*
X007600Y003223D02*
X007070Y003223D01*
X007213Y003382D02*
X007600Y003382D01*
X007600Y003540D02*
X007235Y003540D01*
X007158Y003699D02*
X007600Y003699D01*
X007680Y003857D02*
X006555Y003857D01*
X005805Y003857D02*
X005555Y003857D01*
X005460Y004016D02*
X007845Y004016D01*
X007937Y004174D02*
X005460Y004174D01*
X005460Y004333D02*
X008096Y004333D01*
X007837Y005665D02*
X007192Y005665D01*
X007180Y005678D01*
X007168Y005665D01*
X006523Y005665D01*
X006429Y005759D01*
X006429Y005910D01*
X005901Y005910D01*
X005853Y005862D01*
X005741Y005815D01*
X005619Y005815D01*
X005507Y005862D01*
X005421Y005948D01*
X005375Y006060D01*
X005375Y006181D01*
X005421Y006293D01*
X005507Y006379D01*
X005619Y006425D01*
X005741Y006425D01*
X005853Y006379D01*
X005901Y006330D01*
X006429Y006330D01*
X006429Y006482D01*
X006523Y006576D01*
X007168Y006576D01*
X007180Y006563D01*
X007192Y006576D01*
X007837Y006576D01*
X007931Y006482D01*
X007931Y006330D01*
X008218Y006330D01*
X008453Y006565D01*
X008369Y006565D01*
X008257Y006612D01*
X008171Y006698D01*
X008125Y006810D01*
X008125Y006931D01*
X008171Y007043D01*
X008220Y007092D01*
X008220Y008283D01*
X008093Y008410D01*
X007931Y008410D01*
X007931Y008259D01*
X007837Y008165D01*
X007192Y008165D01*
X007180Y008178D01*
X007168Y008165D01*
X007085Y008165D01*
X007085Y008076D01*
X007168Y008076D01*
X007171Y008073D01*
X007189Y008083D01*
X007235Y008096D01*
X007467Y008096D01*
X007467Y007668D01*
X007563Y007668D01*
X007951Y007668D01*
X007951Y007939D01*
X007938Y007985D01*
X007915Y008026D01*
X007881Y008060D01*
X007840Y008083D01*
X007794Y008096D01*
X007563Y008096D01*
X007563Y007668D01*
X007563Y007572D01*
X007951Y007572D01*
X007951Y007301D01*
X007938Y007256D01*
X007915Y007215D01*
X007881Y007181D01*
X007840Y007157D01*
X007794Y007145D01*
X007563Y007145D01*
X007563Y007572D01*
X007467Y007572D01*
X007467Y007145D01*
X007235Y007145D01*
X007189Y007157D01*
X007171Y007168D01*
X007168Y007165D01*
X006523Y007165D01*
X006429Y007259D01*
X006429Y007982D01*
X006523Y008076D01*
X006605Y008076D01*
X006605Y008165D01*
X006523Y008165D01*
X006429Y008259D01*
X006429Y008982D01*
X006523Y009076D01*
X006605Y009076D01*
X006605Y009165D01*
X006523Y009165D01*
X006429Y009259D01*
X006429Y009982D01*
X006523Y010076D01*
X006720Y010076D01*
X006720Y011207D01*
X006843Y011330D01*
X008000Y012487D01*
X008000Y012556D01*
X008046Y012668D01*
X008132Y012754D01*
X008244Y012800D01*
X008366Y012800D01*
X008478Y012754D01*
X008564Y012668D01*
X008610Y012556D01*
X008610Y012435D01*
X008564Y012323D01*
X008478Y012237D01*
X008366Y012190D01*
X008297Y012190D01*
X007140Y011033D01*
X007140Y010076D01*
X007168Y010076D01*
X007180Y010063D01*
X007192Y010076D01*
X007345Y010076D01*
X007345Y010457D01*
X007468Y010580D01*
X008250Y011362D01*
X008250Y011431D01*
X008296Y011543D01*
X008382Y011629D01*
X008494Y011675D01*
X008616Y011675D01*
X008653Y011660D01*
X009415Y011660D01*
X009415Y012224D01*
X009154Y012224D01*
X008595Y012783D01*
X008595Y016957D01*
X009718Y018080D01*
X010642Y018080D01*
X010765Y017957D01*
X010949Y017773D01*
X011075Y017825D01*
X011285Y017825D01*
X011480Y017745D01*
X011629Y017596D01*
X011701Y017423D01*
X011731Y017496D01*
X011880Y017645D01*
X011970Y017682D01*
X011970Y017707D01*
X012220Y017957D01*
X012343Y018080D01*
X014850Y018080D01*
X014850Y018152D01*
X014943Y018246D01*
X015667Y018246D01*
X015760Y018152D01*
X015760Y018040D01*
X015850Y018040D01*
X015850Y018152D01*
X015943Y018246D01*
X016667Y018246D01*
X016760Y018152D01*
X016760Y017508D01*
X016757Y017505D01*
X016768Y017486D01*
X016780Y017440D01*
X016780Y017209D01*
X016353Y017209D01*
X016353Y017113D01*
X016780Y017113D01*
X016780Y016881D01*
X016768Y016835D01*
X016744Y016794D01*
X016711Y016761D01*
X016670Y016737D01*
X016624Y016725D01*
X016353Y016725D01*
X016353Y017113D01*
X016257Y017113D01*
X015830Y017113D01*
X015830Y016881D01*
X015842Y016835D01*
X015866Y016794D01*
X015899Y016761D01*
X015940Y016737D01*
X015986Y016725D01*
X016257Y016725D01*
X016257Y017113D01*
X016257Y017209D01*
X015830Y017209D01*
X015830Y017440D01*
X015842Y017486D01*
X015853Y017505D01*
X015850Y017508D01*
X015850Y017620D01*
X015760Y017620D01*
X015760Y017508D01*
X015748Y017495D01*
X015760Y017483D01*
X015760Y016839D01*
X015667Y016745D01*
X014943Y016745D01*
X014850Y016839D01*
X014850Y016985D01*
X014667Y016985D01*
X014629Y016895D01*
X014480Y016746D01*
X014285Y016665D01*
X014075Y016665D01*
X013984Y016703D01*
X012112Y014830D01*
X012459Y014830D01*
X012507Y014879D01*
X012619Y014925D01*
X012741Y014925D01*
X012853Y014879D01*
X012939Y014793D01*
X012973Y014710D01*
X013345Y015082D01*
X013468Y015205D01*
X014959Y015205D01*
X015007Y015254D01*
X015119Y015300D01*
X015241Y015300D01*
X015353Y015254D01*
X015439Y015168D01*
X015485Y015056D01*
X015485Y014935D01*
X015481Y014925D01*
X015491Y014925D01*
X015603Y014879D01*
X015689Y014793D01*
X015735Y014681D01*
X015735Y014560D01*
X015689Y014448D01*
X015603Y014362D01*
X015491Y014315D01*
X015369Y014315D01*
X015257Y014362D01*
X015209Y014410D01*
X013642Y014410D01*
X013617Y014386D01*
X013656Y014386D01*
X013750Y014292D01*
X013750Y013687D01*
X013656Y013593D01*
X011901Y013593D01*
X011888Y013585D01*
X011842Y013573D01*
X011773Y013573D01*
X011773Y012644D01*
X013350Y012644D01*
X013296Y012698D01*
X013250Y012810D01*
X013250Y012931D01*
X013296Y013043D01*
X013382Y013129D01*
X013494Y013175D01*
X013616Y013175D01*
X013728Y013129D01*
X013814Y013043D01*
X013816Y013038D01*
X013903Y013038D01*
X013903Y013347D01*
X013997Y013440D01*
X014328Y013440D01*
X014470Y013582D01*
X014470Y013582D01*
X014593Y013705D01*
X014850Y013705D01*
X014850Y013902D01*
X014943Y013996D01*
X015667Y013996D01*
X015760Y013902D01*
X015760Y013790D01*
X015807Y013790D01*
X015955Y013643D01*
X015955Y013860D01*
X015967Y013905D01*
X015991Y013946D01*
X016024Y013980D01*
X016065Y014004D01*
X016111Y014016D01*
X016382Y014016D01*
X016382Y013628D01*
X016478Y013628D01*
X016478Y014016D01*
X016749Y014016D01*
X016795Y014004D01*
X016836Y013980D01*
X016845Y013971D01*
X016845Y016082D01*
X017218Y016455D01*
X018267Y016455D01*
X018390Y016332D01*
X018629Y016093D01*
X018629Y015436D01*
X021202Y015436D01*
X021296Y015342D01*
X021296Y014501D01*
X021202Y014407D01*
X020795Y014407D01*
X020795Y014326D01*
X021087Y014326D01*
X021181Y014232D01*
X021181Y013509D01*
X021087Y013415D01*
X020975Y013415D01*
X020975Y012951D01*
X021087Y012951D01*
X021181Y012857D01*
X021181Y012705D01*
X021517Y012705D01*
X021640Y012582D01*
X021640Y012582D01*
X021767Y012455D01*
X021890Y012332D01*
X021890Y008857D01*
X021984Y008764D01*
X021984Y008537D01*
X022057Y008537D01*
X022125Y008469D01*
X022878Y008469D01*
X022967Y008380D01*
X023090Y008257D01*
X023090Y007283D01*
X022872Y007065D01*
X022125Y007065D01*
X022089Y007029D01*
X022150Y006967D01*
X022150Y006599D01*
X022057Y006505D01*
X021984Y006505D01*
X021984Y005877D01*
X021642Y005535D01*
X020635Y005535D01*
X020635Y005258D01*
X020632Y005255D01*
X020643Y005236D01*
X020655Y005190D01*
X020655Y004959D01*
X020228Y004959D01*
X020228Y004863D01*
X020655Y004863D01*
X020655Y004631D01*
X020643Y004585D01*
X020619Y004544D01*
X020586Y004511D01*
X020545Y004487D01*
X020499Y004475D01*
X020228Y004475D01*
X020228Y004863D01*
X020132Y004863D01*
X020132Y004475D01*
X019861Y004475D01*
X019815Y004487D01*
X019774Y004511D01*
X019741Y004544D01*
X019717Y004585D01*
X019705Y004631D01*
X019705Y004848D01*
X019140Y004283D01*
X019104Y004247D01*
X019230Y004195D01*
X019379Y004046D01*
X019400Y003996D01*
X019400Y004182D01*
X019494Y004275D01*
X020366Y004275D01*
X020460Y004182D01*
X020460Y003309D01*
X020366Y003215D01*
X019494Y003215D01*
X019400Y003309D01*
X019400Y003495D01*
X019379Y003445D01*
X019230Y003296D01*
X019035Y003215D01*
X018825Y003215D01*
X018630Y003296D01*
X018481Y003445D01*
X018441Y003540D01*
X018440Y003534D01*
X018400Y003457D01*
X018350Y003387D01*
X018288Y003326D01*
X018218Y003275D01*
X018141Y003236D01*
X018059Y003209D01*
X017973Y003195D01*
X017950Y003195D01*
X017950Y003725D01*
X017910Y003725D01*
X017910Y003195D01*
X017887Y003195D01*
X017801Y003209D01*
X017719Y003236D01*
X017642Y003275D01*
X017572Y003326D01*
X017510Y003387D01*
X017460Y003457D01*
X017420Y003534D01*
X017419Y003540D01*
X017379Y003445D01*
X017230Y003296D01*
X017210Y003288D01*
X017210Y002690D01*
X017167Y002587D01*
X016792Y002212D01*
X016714Y002133D01*
X016611Y002090D01*
X013926Y002090D01*
X013866Y002065D01*
X013744Y002065D01*
X013632Y002112D01*
X013546Y002198D01*
X013500Y002310D01*
X013500Y002431D01*
X013546Y002543D01*
X013632Y002629D01*
X013744Y002675D01*
X013866Y002675D01*
X013926Y002650D01*
X016439Y002650D01*
X016650Y002861D01*
X016650Y003288D01*
X016630Y003296D01*
X016481Y003445D01*
X016430Y003568D01*
X016379Y003445D01*
X016230Y003296D01*
X016035Y003215D01*
X015825Y003215D01*
X015630Y003296D01*
X015481Y003445D01*
X015430Y003568D01*
X015379Y003445D01*
X015230Y003296D01*
X015035Y003215D01*
X014825Y003215D01*
X014630Y003296D01*
X014481Y003445D01*
X014400Y003640D01*
X014400Y003851D01*
X014481Y004046D01*
X014630Y004195D01*
X014762Y004250D01*
X014843Y004330D01*
X015593Y005080D01*
X018593Y005080D01*
X018720Y005207D01*
X018720Y006649D01*
X018671Y006698D01*
X018625Y006810D01*
X018625Y006931D01*
X018671Y007043D01*
X018720Y007092D01*
X018720Y010649D01*
X018671Y010698D01*
X018625Y010810D01*
X018625Y010931D01*
X018671Y011043D01*
X018720Y011092D01*
X018720Y012870D01*
X018510Y012870D01*
X018510Y012758D01*
X018498Y012745D01*
X018510Y012733D01*
X018510Y012089D01*
X018417Y011995D01*
X018265Y011995D01*
X018265Y011621D01*
X018417Y011621D01*
X018510Y011527D01*
X018510Y010883D01*
X018507Y010880D01*
X018518Y010861D01*
X018530Y010815D01*
X018530Y010584D01*
X018103Y010584D01*
X018103Y010488D01*
X018530Y010488D01*
X018530Y010256D01*
X018518Y010210D01*
X018494Y010169D01*
X018461Y010136D01*
X018420Y010112D01*
X018374Y010100D01*
X018103Y010100D01*
X018103Y010488D01*
X018007Y010488D01*
X017580Y010488D01*
X017580Y010256D01*
X017592Y010210D01*
X017616Y010169D01*
X017649Y010136D01*
X017690Y010112D01*
X017736Y010100D01*
X018007Y010100D01*
X018007Y010488D01*
X018007Y010584D01*
X017580Y010584D01*
X017580Y010815D01*
X017592Y010861D01*
X017603Y010880D01*
X017600Y010883D01*
X017600Y011035D01*
X017151Y011035D01*
X017140Y011024D01*
X017140Y010783D01*
X017017Y010660D01*
X016612Y010256D01*
X014715Y010256D01*
X014715Y010187D01*
X014703Y010141D01*
X014679Y010100D01*
X014646Y010066D01*
X014605Y010043D01*
X014559Y010030D01*
X014299Y010030D01*
X014299Y010247D01*
X014299Y010247D01*
X014299Y010030D01*
X014039Y010030D01*
X013993Y010043D01*
X013952Y010066D01*
X013919Y010100D01*
X013895Y010141D01*
X013883Y010187D01*
X013883Y010256D01*
X013862Y010256D01*
X013741Y010135D01*
X013741Y009812D01*
X013750Y009804D01*
X013750Y009199D01*
X013656Y009105D01*
X013617Y009105D01*
X013767Y008955D01*
X014959Y008955D01*
X015007Y009004D01*
X015119Y009050D01*
X015241Y009050D01*
X015353Y009004D01*
X015439Y008918D01*
X015485Y008806D01*
X015485Y008685D01*
X015439Y008573D01*
X015353Y008487D01*
X015241Y008440D01*
X015119Y008440D01*
X015007Y008487D01*
X014959Y008535D01*
X013593Y008535D01*
X013470Y008658D01*
X013125Y009004D01*
X013125Y009105D01*
X012367Y009105D01*
X012517Y008955D01*
X012892Y008955D01*
X013142Y008705D01*
X013265Y008582D01*
X013265Y008521D01*
X013476Y008521D01*
X013569Y008428D01*
X013569Y007665D01*
X013476Y007572D01*
X012634Y007572D01*
X012555Y007651D01*
X012476Y007572D01*
X011634Y007572D01*
X011541Y007665D01*
X011541Y008428D01*
X011634Y008521D01*
X011747Y008521D01*
X011747Y009105D01*
X011379Y009105D01*
X011379Y006468D01*
X011547Y006300D01*
X011616Y006300D01*
X011728Y006254D01*
X011776Y006205D01*
X013892Y006205D01*
X014015Y006082D01*
X014210Y005888D01*
X014369Y005888D01*
X014428Y005829D01*
X016009Y005829D01*
X016009Y006021D01*
X016103Y006115D01*
X016639Y006115D01*
X016762Y005992D01*
X016762Y005682D01*
X016701Y005620D01*
X016762Y005559D01*
X016762Y005249D01*
X016639Y005126D01*
X016103Y005126D01*
X016009Y005219D01*
X016009Y005409D01*
X014428Y005409D01*
X014369Y005351D01*
X013764Y005351D01*
X013671Y005445D01*
X013671Y005785D01*
X013439Y005785D01*
X013439Y005445D01*
X013436Y005442D01*
X013447Y005423D01*
X013459Y005377D01*
X013459Y005245D01*
X013043Y005245D01*
X012627Y005245D01*
X012627Y005230D01*
X012603Y005254D01*
X012491Y005300D01*
X012369Y005300D01*
X012257Y005254D01*
X012171Y005168D01*
X012125Y005056D01*
X012125Y004972D01*
X011985Y005112D01*
X011985Y005181D01*
X011939Y005293D01*
X011853Y005379D01*
X011741Y005425D01*
X011672Y005425D01*
X011182Y005915D01*
X011182Y006071D01*
X011250Y006003D01*
X011250Y005935D01*
X011296Y005823D01*
X011382Y005737D01*
X011494Y005690D01*
X011616Y005690D01*
X011728Y005737D01*
X011776Y005785D01*
X012647Y005785D01*
X012647Y005445D01*
X012650Y005442D01*
X012639Y005423D01*
X012627Y005377D01*
X012627Y005245D01*
X013043Y005245D01*
X013043Y005245D01*
X013043Y005245D01*
X013459Y005245D01*
X013459Y005113D01*
X013447Y005068D01*
X013436Y005049D01*
X013439Y005046D01*
X013439Y004705D01*
X013671Y004705D01*
X013671Y005046D01*
X013764Y005140D01*
X014369Y005140D01*
X014463Y005046D01*
X014463Y004697D01*
X014369Y004603D01*
X014210Y004603D01*
X014015Y004408D01*
X014015Y004408D01*
X013892Y004285D01*
X012218Y004285D01*
X011688Y004815D01*
X011619Y004815D01*
X011515Y004859D01*
X011515Y004842D01*
X011564Y004793D01*
X011610Y004681D01*
X011610Y004560D01*
X011564Y004448D01*
X011515Y004399D01*
X011515Y004283D01*
X011392Y004160D01*
X011292Y004060D01*
X011504Y004060D01*
X011517Y004068D01*
X011563Y004080D01*
X011685Y004080D01*
X011685Y003506D01*
X011685Y003506D01*
X011963Y003506D01*
X011963Y003089D01*
X011951Y003043D01*
X011927Y003002D01*
X011894Y002968D01*
X011863Y002951D01*
X011863Y002523D01*
X012604Y002523D01*
X012651Y002476D01*
X012651Y001914D01*
X013267Y001914D01*
X013361Y001820D01*
X013361Y000850D01*
X023322Y000850D01*
X023322Y009716D01*
X023313Y009681D01*
X023289Y009640D01*
X023256Y009606D01*
X023214Y009583D01*
X023169Y009570D01*
X022710Y009570D01*
X022710Y009870D01*
X022710Y009870D01*
X022710Y009570D01*
X022251Y009570D01*
X022206Y009583D01*
X022164Y009606D01*
X022131Y009640D01*
X022107Y009681D01*
X022095Y009727D01*
X022095Y009870D01*
X022710Y009870D01*
X022710Y009870D01*
X022095Y009870D01*
X022095Y010014D01*
X022107Y010060D01*
X022131Y010101D01*
X022150Y010120D01*
X022131Y010140D01*
X022107Y010181D01*
X022095Y010227D01*
X022095Y010370D01*
X022710Y010370D01*
X022710Y010070D01*
X022710Y009870D01*
X022710Y010370D01*
X022710Y010370D01*
X022710Y010370D01*
X022095Y010370D01*
X022095Y010514D01*
X022107Y010560D01*
X022131Y010601D01*
X022150Y010620D01*
X022131Y010640D01*
X022107Y010681D01*
X022095Y010727D01*
X022095Y010870D01*
X022710Y010870D01*
X022710Y010570D01*
X022710Y010370D01*
X022710Y010870D01*
X022710Y010870D01*
X022710Y010870D01*
X022095Y010870D01*
X022095Y011014D01*
X022107Y011060D01*
X022131Y011101D01*
X022150Y011120D01*
X022131Y011140D01*
X022107Y011181D01*
X022095Y011227D01*
X022095Y011370D01*
X022710Y011370D01*
X022710Y011070D01*
X022710Y010870D01*
X022710Y011370D01*
X022710Y011370D01*
X022710Y011370D01*
X022095Y011370D01*
X022095Y011514D01*
X022107Y011560D01*
X022131Y011601D01*
X022164Y011634D01*
X022206Y011658D01*
X022251Y011670D01*
X022710Y011670D01*
X022710Y011370D01*
X022710Y011370D01*
X022710Y011670D01*
X023169Y011670D01*
X023214Y011658D01*
X023256Y011634D01*
X023289Y011601D01*
X023313Y011560D01*
X023322Y011525D01*
X023322Y014150D01*
X021440Y014150D01*
X021440Y017660D01*
X020843Y017660D01*
X020375Y018129D01*
X020375Y018139D01*
X020333Y018127D01*
X020151Y018127D01*
X020151Y018662D01*
X020151Y019196D01*
X019970Y019196D01*
X019924Y019184D01*
X019911Y019176D01*
X017369Y019176D01*
X017275Y019082D01*
X017275Y018241D01*
X017369Y018147D01*
X017776Y018147D01*
X017776Y017977D01*
X017899Y017854D01*
X018625Y017128D01*
X018625Y017060D01*
X018671Y016948D01*
X018757Y016862D01*
X018869Y016815D01*
X018991Y016815D01*
X019103Y016862D01*
X019189Y016948D01*
X019235Y017060D01*
X019235Y017181D01*
X019189Y017293D01*
X019103Y017379D01*
X019027Y017410D01*
X019084Y017410D01*
X019132Y017362D01*
X019244Y017315D01*
X019366Y017315D01*
X019478Y017362D01*
X019564Y017448D01*
X019610Y017560D01*
X019610Y017681D01*
X019564Y017793D01*
X019478Y017879D01*
X019366Y017925D01*
X019244Y017925D01*
X019132Y017879D01*
X019113Y017860D01*
X018825Y018147D01*
X019911Y018147D01*
X019924Y018140D01*
X019970Y018127D01*
X020151Y018127D01*
X020151Y018662D01*
X020151Y018662D01*
X020151Y019196D01*
X020333Y019196D01*
X020378Y019184D01*
X020392Y019176D01*
X020777Y019176D01*
X020791Y019184D01*
X020836Y019196D01*
X020998Y019196D01*
X020998Y018662D01*
X020998Y018662D01*
X020998Y019196D01*
X021159Y019196D01*
X021205Y019184D01*
X021246Y019160D01*
X021280Y019127D01*
X021303Y019086D01*
X021316Y019040D01*
X021316Y018662D01*
X020998Y018662D01*
X020998Y018662D01*
X021316Y018662D01*
X021316Y018284D01*
X021303Y018238D01*
X021280Y018197D01*
X021246Y018163D01*
X021205Y018140D01*
X021159Y018127D01*
X020998Y018127D01*
X020998Y018662D01*
X020998Y018662D01*
X020998Y018127D01*
X020970Y018127D01*
X021017Y018080D01*
X021440Y018080D01*
X021440Y019575D01*
X000660Y019575D01*
X000660Y002309D01*
X000710Y002359D01*
X001473Y002359D01*
X001566Y002265D01*
X001559Y002272D02*
X003301Y002272D01*
X003294Y002114D02*
X001566Y002114D01*
X001566Y001955D02*
X003294Y001955D01*
X003294Y001797D02*
X001566Y001797D01*
X001566Y001638D02*
X003294Y001638D01*
X003294Y001480D02*
X001566Y001480D01*
X001566Y001321D02*
X003294Y001321D01*
X003294Y001163D02*
X001566Y001163D01*
X001566Y001004D02*
X003294Y001004D01*
X004244Y001004D02*
X008749Y001004D01*
X008749Y001163D02*
X004244Y001163D01*
X004244Y001321D02*
X008749Y001321D01*
X008749Y001480D02*
X004244Y001480D01*
X004244Y001638D02*
X008749Y001638D01*
X008749Y001797D02*
X004244Y001797D01*
X004244Y001955D02*
X009459Y001955D01*
X009459Y002114D02*
X004244Y002114D01*
X004237Y002272D02*
X009459Y002272D01*
X011685Y003506D02*
X011685Y004080D01*
X011807Y004080D01*
X011853Y004068D01*
X011894Y004044D01*
X011927Y004010D01*
X011951Y003969D01*
X011963Y003924D01*
X011963Y003506D01*
X011685Y003506D01*
X011685Y003506D01*
X011685Y003540D02*
X011685Y003540D01*
X011685Y003699D02*
X011685Y003699D01*
X011685Y003857D02*
X011685Y003857D01*
X011685Y004016D02*
X011685Y004016D01*
X011922Y004016D02*
X014468Y004016D01*
X014403Y003857D02*
X013361Y003857D01*
X013361Y003907D02*
X013267Y004001D01*
X012150Y004001D01*
X012056Y003907D01*
X012056Y002908D01*
X012150Y002815D01*
X013267Y002815D01*
X013361Y002908D01*
X013361Y003907D01*
X013361Y003699D02*
X014400Y003699D01*
X014441Y003540D02*
X013361Y003540D01*
X013361Y003382D02*
X014544Y003382D01*
X014805Y003223D02*
X013361Y003223D01*
X013361Y003065D02*
X016650Y003065D01*
X016650Y003223D02*
X016055Y003223D01*
X015805Y003223D02*
X015055Y003223D01*
X015316Y003382D02*
X015544Y003382D01*
X015441Y003540D02*
X015419Y003540D01*
X016316Y003382D02*
X016544Y003382D01*
X016441Y003540D02*
X016419Y003540D01*
X016650Y002906D02*
X013359Y002906D01*
X013593Y002589D02*
X011863Y002589D01*
X011863Y002748D02*
X016537Y002748D01*
X017011Y002431D02*
X023322Y002431D01*
X023322Y002589D02*
X017168Y002589D01*
X017210Y002748D02*
X021424Y002748D01*
X021429Y002730D02*
X021452Y002689D01*
X021486Y002655D01*
X021527Y002632D01*
X021573Y002619D01*
X021854Y002619D01*
X021854Y002978D01*
X021890Y002978D01*
X021890Y002619D01*
X022171Y002619D01*
X022217Y002632D01*
X022258Y002655D01*
X022292Y002689D01*
X022315Y002730D01*
X022328Y002776D01*
X022328Y002978D01*
X021890Y002978D01*
X021890Y003015D01*
X021854Y003015D01*
X021854Y003373D01*
X021573Y003373D01*
X021527Y003361D01*
X021486Y003337D01*
X021452Y003304D01*
X021429Y003263D01*
X021416Y003217D01*
X021416Y003015D01*
X021853Y003015D01*
X021853Y002978D01*
X021416Y002978D01*
X021416Y002776D01*
X021429Y002730D01*
X021416Y002906D02*
X017210Y002906D01*
X017210Y003065D02*
X021416Y003065D01*
X021418Y003223D02*
X020374Y003223D01*
X020460Y003382D02*
X022302Y003382D01*
X022258Y003337D02*
X022217Y003361D01*
X022171Y003373D01*
X021890Y003373D01*
X021890Y003015D01*
X022328Y003015D01*
X022328Y003082D01*
X022396Y003014D01*
X023080Y003014D01*
X023174Y003107D01*
X023174Y003633D01*
X023080Y003727D01*
X023015Y003727D01*
X023015Y003899D01*
X023064Y003948D01*
X023110Y004060D01*
X023110Y004181D01*
X023064Y004293D01*
X022978Y004379D01*
X022866Y004425D01*
X022797Y004425D01*
X022722Y004501D01*
X023007Y004501D01*
X023101Y004594D01*
X023101Y005396D01*
X023033Y005464D01*
X023033Y005667D01*
X023064Y005698D01*
X023110Y005810D01*
X023110Y005931D01*
X023064Y006043D01*
X022978Y006129D01*
X022866Y006175D01*
X022744Y006175D01*
X022632Y006129D01*
X022546Y006043D01*
X022500Y005931D01*
X022500Y005810D01*
X022546Y005698D01*
X022613Y005631D01*
X022613Y005490D01*
X022471Y005490D01*
X022348Y005367D01*
X022348Y005057D01*
X022409Y004995D01*
X022348Y004934D01*
X022348Y004624D01*
X022391Y004580D01*
X021719Y004580D01*
X021762Y004624D01*
X021762Y004934D01*
X021701Y004995D01*
X021762Y005057D01*
X021762Y005367D01*
X021639Y005490D01*
X021103Y005490D01*
X021009Y005396D01*
X021009Y004594D01*
X021077Y004526D01*
X021077Y004426D01*
X021220Y004283D01*
X021343Y004160D01*
X022468Y004160D01*
X022500Y004128D01*
X022500Y004060D01*
X022546Y003948D01*
X022595Y003899D01*
X022595Y003727D01*
X022396Y003727D01*
X022308Y003639D01*
X022308Y004007D01*
X022214Y004101D01*
X021530Y004101D01*
X021436Y004007D01*
X021436Y003954D01*
X021277Y003954D01*
X021228Y004004D01*
X021116Y004050D01*
X020994Y004050D01*
X020882Y004004D01*
X020796Y003918D01*
X020750Y003806D01*
X020750Y003685D01*
X020796Y003573D01*
X020882Y003487D01*
X020994Y003440D01*
X021116Y003440D01*
X021228Y003487D01*
X021275Y003534D01*
X021436Y003534D01*
X021436Y003481D01*
X021530Y003388D01*
X022214Y003388D01*
X022302Y003476D01*
X022302Y003285D01*
X022292Y003304D01*
X022258Y003337D01*
X022328Y003065D02*
X022345Y003065D01*
X022328Y002906D02*
X023322Y002906D01*
X023322Y002748D02*
X022320Y002748D01*
X021890Y002748D02*
X021854Y002748D01*
X021854Y002906D02*
X021890Y002906D01*
X021890Y003065D02*
X021854Y003065D01*
X021854Y003223D02*
X021890Y003223D01*
X022308Y003699D02*
X022368Y003699D01*
X022308Y003857D02*
X022595Y003857D01*
X022518Y004016D02*
X022299Y004016D01*
X022348Y004650D02*
X021762Y004650D01*
X021762Y004808D02*
X022348Y004808D01*
X022381Y004967D02*
X021729Y004967D01*
X021762Y005125D02*
X022348Y005125D01*
X022348Y005284D02*
X021762Y005284D01*
X021687Y005442D02*
X022423Y005442D01*
X022613Y005601D02*
X021707Y005601D01*
X021866Y005759D02*
X022521Y005759D01*
X022500Y005918D02*
X021984Y005918D01*
X021984Y006076D02*
X022580Y006076D01*
X023030Y006076D02*
X023322Y006076D01*
X023322Y005918D02*
X023110Y005918D01*
X023089Y005759D02*
X023322Y005759D01*
X023322Y005601D02*
X023033Y005601D01*
X023055Y005442D02*
X023322Y005442D01*
X023322Y005284D02*
X023101Y005284D01*
X023101Y005125D02*
X023322Y005125D01*
X023322Y004967D02*
X023101Y004967D01*
X023101Y004808D02*
X023322Y004808D01*
X023322Y004650D02*
X023101Y004650D01*
X023322Y004491D02*
X022731Y004491D01*
X023024Y004333D02*
X023322Y004333D01*
X023322Y004174D02*
X023110Y004174D01*
X023092Y004016D02*
X023322Y004016D01*
X023322Y003857D02*
X023015Y003857D01*
X023108Y003699D02*
X023322Y003699D01*
X023322Y003540D02*
X023174Y003540D01*
X023174Y003382D02*
X023322Y003382D01*
X023322Y003223D02*
X023174Y003223D01*
X023131Y003065D02*
X023322Y003065D01*
X023322Y002272D02*
X016853Y002272D01*
X016667Y002114D02*
X023322Y002114D01*
X023322Y001955D02*
X012651Y001955D01*
X012651Y002114D02*
X013630Y002114D01*
X013515Y002272D02*
X012651Y002272D01*
X012651Y002431D02*
X013500Y002431D01*
X013361Y001797D02*
X023322Y001797D01*
X023322Y001638D02*
X013361Y001638D01*
X013361Y001480D02*
X023322Y001480D01*
X023322Y001321D02*
X013361Y001321D01*
X013361Y001163D02*
X023322Y001163D01*
X023322Y001004D02*
X013361Y001004D01*
X012058Y002906D02*
X011863Y002906D01*
X011957Y003065D02*
X012056Y003065D01*
X012056Y003223D02*
X011963Y003223D01*
X011963Y003382D02*
X012056Y003382D01*
X012056Y003540D02*
X011963Y003540D01*
X011963Y003699D02*
X012056Y003699D01*
X012056Y003857D02*
X011963Y003857D01*
X012171Y004333D02*
X011515Y004333D01*
X011582Y004491D02*
X012012Y004491D01*
X011854Y004650D02*
X011610Y004650D01*
X011548Y004808D02*
X011695Y004808D01*
X011985Y005125D02*
X012154Y005125D01*
X012330Y005284D02*
X011942Y005284D01*
X011655Y005442D02*
X012649Y005442D01*
X012647Y005601D02*
X011496Y005601D01*
X011360Y005759D02*
X011338Y005759D01*
X011257Y005918D02*
X011182Y005918D01*
X011454Y006393D02*
X016085Y006393D01*
X016103Y006376D02*
X016306Y006376D01*
X016639Y006376D01*
X016762Y006499D01*
X016762Y006809D01*
X016701Y006870D01*
X016762Y006932D01*
X016762Y007242D01*
X016639Y007365D01*
X016103Y007365D01*
X016085Y007347D01*
X016085Y007504D01*
X016171Y007590D01*
X018184Y007590D01*
X018244Y007565D01*
X018366Y007565D01*
X018478Y007612D01*
X018564Y007698D01*
X018610Y007810D01*
X018610Y007931D01*
X018564Y008043D01*
X018478Y008129D01*
X018366Y008175D01*
X018244Y008175D01*
X018184Y008150D01*
X015999Y008150D01*
X015896Y008108D01*
X015568Y007779D01*
X015525Y007676D01*
X015525Y007150D01*
X014176Y007150D01*
X014116Y007175D01*
X013994Y007175D01*
X013882Y007129D01*
X013796Y007043D01*
X013750Y006931D01*
X013750Y006810D01*
X013796Y006698D01*
X013882Y006612D01*
X013994Y006565D01*
X014116Y006565D01*
X014176Y006590D01*
X016009Y006590D01*
X016009Y006469D01*
X016103Y006376D01*
X016009Y006552D02*
X013573Y006552D01*
X013577Y006560D02*
X013589Y006606D01*
X013589Y006867D01*
X013132Y006867D01*
X013132Y006449D01*
X013433Y006449D01*
X013479Y006461D01*
X013520Y006485D01*
X013553Y006519D01*
X013577Y006560D01*
X013589Y006710D02*
X013791Y006710D01*
X013750Y006869D02*
X013132Y006869D01*
X013132Y006867D02*
X013132Y007022D01*
X012978Y007022D01*
X012978Y007439D01*
X012677Y007439D01*
X012631Y007427D01*
X012590Y007403D01*
X012557Y007370D01*
X012555Y007367D01*
X012553Y007370D01*
X012520Y007403D01*
X012479Y007427D01*
X012433Y007439D01*
X012132Y007439D01*
X012132Y007022D01*
X011978Y007022D01*
X011978Y007439D01*
X011677Y007439D01*
X011631Y007427D01*
X011590Y007403D01*
X011557Y007370D01*
X011533Y007329D01*
X011521Y007283D01*
X011521Y007022D01*
X011978Y007022D01*
X011978Y006867D01*
X012132Y006867D01*
X012132Y006449D01*
X012433Y006449D01*
X012479Y006461D01*
X012520Y006485D01*
X012553Y006519D01*
X012555Y006522D01*
X012557Y006519D01*
X012590Y006485D01*
X012631Y006461D01*
X012677Y006449D01*
X012978Y006449D01*
X012978Y006867D01*
X013132Y006867D01*
X012978Y006867D02*
X012132Y006867D01*
X012132Y007022D01*
X012589Y007022D01*
X012978Y007022D01*
X012978Y006867D01*
X012978Y006869D02*
X012132Y006869D01*
X011978Y006869D02*
X011379Y006869D01*
X011521Y006867D02*
X011521Y006606D01*
X011533Y006560D01*
X011557Y006519D01*
X011590Y006485D01*
X011631Y006461D01*
X011677Y006449D01*
X011978Y006449D01*
X011978Y006867D01*
X011521Y006867D01*
X011521Y006710D02*
X011379Y006710D01*
X011379Y006552D02*
X011537Y006552D01*
X011747Y006235D02*
X017613Y006235D01*
X017613Y006115D02*
X017613Y006376D01*
X017471Y006376D01*
X017348Y006499D01*
X017348Y006809D01*
X017409Y006870D01*
X017348Y006932D01*
X017348Y007242D01*
X017471Y007365D01*
X018007Y007365D01*
X018101Y007271D01*
X018101Y006469D01*
X018033Y006401D01*
X018033Y006089D01*
X018101Y006021D01*
X018101Y005219D01*
X018007Y005126D01*
X017471Y005126D01*
X017348Y005249D01*
X017348Y005559D01*
X017409Y005620D01*
X017348Y005682D01*
X017348Y005992D01*
X017471Y006115D01*
X017613Y006115D01*
X017432Y006076D02*
X016678Y006076D01*
X016762Y005918D02*
X017348Y005918D01*
X017348Y005759D02*
X016762Y005759D01*
X016720Y005601D02*
X017390Y005601D01*
X017348Y005442D02*
X016762Y005442D01*
X016762Y005284D02*
X017348Y005284D01*
X018101Y005284D02*
X018720Y005284D01*
X018720Y005442D02*
X018101Y005442D01*
X018101Y005601D02*
X018720Y005601D01*
X018720Y005759D02*
X018101Y005759D01*
X018101Y005918D02*
X018720Y005918D01*
X018720Y006076D02*
X018046Y006076D01*
X018033Y006235D02*
X018720Y006235D01*
X018720Y006393D02*
X018033Y006393D01*
X018101Y006552D02*
X018720Y006552D01*
X018666Y006710D02*
X018101Y006710D01*
X018101Y006869D02*
X018625Y006869D01*
X018665Y007027D02*
X018101Y007027D01*
X018101Y007186D02*
X018720Y007186D01*
X018720Y007344D02*
X018028Y007344D01*
X018527Y007661D02*
X018720Y007661D01*
X018720Y007503D02*
X016085Y007503D01*
X015767Y007978D02*
X013569Y007978D01*
X013569Y007820D02*
X015609Y007820D01*
X015525Y007661D02*
X013565Y007661D01*
X013479Y007427D02*
X013433Y007439D01*
X013132Y007439D01*
X013132Y007022D01*
X013589Y007022D01*
X013589Y007283D01*
X013577Y007329D01*
X013553Y007370D01*
X013520Y007403D01*
X013479Y007427D01*
X013568Y007344D02*
X015525Y007344D01*
X015525Y007186D02*
X013589Y007186D01*
X013589Y007027D02*
X013790Y007027D01*
X013132Y007027D02*
X012978Y007027D01*
X012978Y007186D02*
X013132Y007186D01*
X013132Y007344D02*
X012978Y007344D01*
X012978Y006710D02*
X013132Y006710D01*
X013132Y006552D02*
X012978Y006552D01*
X012132Y006552D02*
X011978Y006552D01*
X011978Y006710D02*
X012132Y006710D01*
X012132Y007027D02*
X011978Y007027D01*
X011978Y007186D02*
X012132Y007186D01*
X012132Y007344D02*
X011978Y007344D01*
X011542Y007344D02*
X011379Y007344D01*
X011379Y007186D02*
X011521Y007186D01*
X011521Y007027D02*
X011379Y007027D01*
X011379Y007503D02*
X015525Y007503D01*
X015967Y008137D02*
X013569Y008137D01*
X013569Y008295D02*
X018720Y008295D01*
X018720Y008137D02*
X018459Y008137D01*
X018590Y007978D02*
X018720Y007978D01*
X018720Y007820D02*
X018610Y007820D01*
X018720Y008454D02*
X015273Y008454D01*
X015087Y008454D02*
X013543Y008454D01*
X013516Y008612D02*
X013235Y008612D01*
X013358Y008771D02*
X013076Y008771D01*
X013199Y008929D02*
X012918Y008929D01*
X013125Y009088D02*
X012384Y009088D01*
X011747Y009088D02*
X011379Y009088D01*
X011379Y008929D02*
X011747Y008929D01*
X011747Y008771D02*
X011379Y008771D01*
X011379Y008612D02*
X011747Y008612D01*
X011567Y008454D02*
X011379Y008454D01*
X011379Y008295D02*
X011541Y008295D01*
X011541Y008137D02*
X011379Y008137D01*
X011379Y007978D02*
X011541Y007978D01*
X011541Y007820D02*
X011379Y007820D01*
X011379Y007661D02*
X011545Y007661D01*
X010565Y007661D02*
X009140Y007661D01*
X009140Y007503D02*
X010565Y007503D01*
X010565Y007344D02*
X009140Y007344D01*
X009140Y007186D02*
X010565Y007186D01*
X010565Y007027D02*
X009140Y007027D01*
X009140Y006869D02*
X010565Y006869D01*
X010565Y006710D02*
X009140Y006710D01*
X009033Y006552D02*
X010565Y006552D01*
X010565Y006393D02*
X008875Y006393D01*
X008716Y006235D02*
X010565Y006235D01*
X010565Y006076D02*
X008558Y006076D01*
X008392Y005910D02*
X007931Y005910D01*
X007931Y005759D01*
X007837Y005665D01*
X007931Y005759D02*
X009798Y005759D01*
X009896Y005858D02*
X009689Y005650D01*
X005671Y005650D01*
X005210Y006111D01*
X005210Y009152D01*
X005235Y009145D01*
X005467Y009145D01*
X005467Y009572D01*
X005563Y009572D01*
X005563Y009668D01*
X005951Y009668D01*
X005951Y009939D01*
X005938Y009985D01*
X005915Y010026D01*
X005881Y010060D01*
X005840Y010083D01*
X005794Y010096D01*
X005563Y010096D01*
X005563Y009668D01*
X005467Y009668D01*
X005467Y010096D01*
X005235Y010096D01*
X005189Y010083D01*
X005171Y010073D01*
X005168Y010076D01*
X004523Y010076D01*
X004473Y010025D01*
X001460Y010025D01*
X001460Y010576D01*
X001725Y010576D01*
X001725Y010464D01*
X001818Y010370D01*
X002542Y010370D01*
X002635Y010464D01*
X002635Y011108D01*
X002623Y011120D01*
X002635Y011133D01*
X002635Y011215D01*
X002725Y011215D01*
X002725Y011133D01*
X002728Y011130D01*
X002717Y011111D01*
X002705Y011065D01*
X002705Y010834D01*
X003132Y010834D01*
X003132Y010738D01*
X002705Y010738D01*
X002705Y010506D01*
X002717Y010460D01*
X002741Y010419D01*
X002774Y010386D01*
X002815Y010362D01*
X002861Y010350D01*
X003132Y010350D01*
X003132Y010738D01*
X003228Y010738D01*
X003228Y010834D01*
X003655Y010834D01*
X003655Y011065D01*
X003643Y011111D01*
X003632Y011130D01*
X003635Y011133D01*
X003635Y011215D01*
X003725Y011215D01*
X003725Y011133D01*
X003728Y011130D01*
X003717Y011111D01*
X003705Y011065D01*
X003705Y010834D01*
X004132Y010834D01*
X004132Y010738D01*
X003705Y010738D01*
X003705Y010506D01*
X003717Y010460D01*
X003741Y010419D01*
X003774Y010386D01*
X003815Y010362D01*
X003861Y010350D01*
X004132Y010350D01*
X004132Y010738D01*
X004228Y010738D01*
X004228Y010834D01*
X004655Y010834D01*
X004655Y011065D01*
X004643Y011111D01*
X004632Y011130D01*
X004635Y011133D01*
X004635Y011160D01*
X006392Y011160D01*
X006515Y011283D01*
X008047Y012815D01*
X008116Y012815D01*
X008228Y012862D01*
X008314Y012948D01*
X008360Y013060D01*
X008360Y013181D01*
X008314Y013293D01*
X008228Y013379D01*
X008116Y013425D01*
X007994Y013425D01*
X007882Y013379D01*
X007796Y013293D01*
X007750Y013181D01*
X007750Y013112D01*
X006218Y011580D01*
X004635Y011580D01*
X004635Y011777D01*
X004542Y011871D01*
X003818Y011871D01*
X003725Y011777D01*
X003725Y011695D01*
X003635Y011695D01*
X003635Y011777D01*
X003542Y011871D01*
X002818Y011871D01*
X002725Y011777D01*
X002725Y011695D01*
X002635Y011695D01*
X002635Y011777D01*
X002542Y011871D01*
X001818Y011871D01*
X001725Y011777D01*
X001725Y011133D01*
X001737Y011120D01*
X001725Y011108D01*
X001725Y010996D01*
X001460Y010996D01*
X001460Y011754D01*
X001796Y012090D01*
X006361Y012090D01*
X006464Y012133D01*
X006542Y012212D01*
X007627Y013296D01*
X007670Y013399D01*
X007670Y014540D01*
X007712Y014540D01*
X007806Y014634D01*
X007806Y014715D01*
X008059Y014715D01*
X008119Y014690D01*
X008241Y014690D01*
X008353Y014737D01*
X008439Y014823D01*
X008485Y014935D01*
X008485Y015056D01*
X008439Y015168D01*
X008353Y015254D01*
X008241Y015300D01*
X008119Y015300D01*
X008059Y015275D01*
X007806Y015275D01*
X007806Y015357D01*
X007712Y015451D01*
X007067Y015451D01*
X007064Y015448D01*
X007046Y015458D01*
X007000Y015471D01*
X006768Y015471D01*
X006768Y015043D01*
X006672Y015043D01*
X006672Y014947D01*
X006768Y014947D01*
X006768Y014520D01*
X007000Y014520D01*
X007046Y014532D01*
X007064Y014543D01*
X007067Y014540D01*
X007110Y014540D01*
X007110Y013571D01*
X006189Y012650D01*
X001624Y012650D01*
X001521Y012608D01*
X001021Y012108D01*
X000943Y012029D01*
X000900Y011926D01*
X000900Y006565D01*
X000943Y006462D01*
X001193Y006212D01*
X001271Y006133D01*
X001374Y006090D01*
X001620Y006090D01*
X001620Y005894D01*
X001714Y005800D01*
X001756Y005800D01*
X001756Y004626D01*
X001679Y004549D01*
X001679Y002605D01*
X001773Y002512D01*
X002299Y002512D01*
X002393Y002605D01*
X002393Y004549D01*
X002316Y004626D01*
X002393Y004491D02*
X002447Y004491D01*
X002447Y004506D02*
X002447Y003595D01*
X002805Y003595D01*
X002805Y004663D01*
X002805Y004491D02*
X002842Y004491D01*
X002842Y004333D02*
X002805Y004333D01*
X002805Y004174D02*
X002842Y004174D01*
X002842Y004016D02*
X002805Y004016D01*
X002805Y003857D02*
X002842Y003857D01*
X002842Y003699D02*
X002805Y003699D01*
X002805Y003540D02*
X002842Y003540D01*
X002842Y003382D02*
X002805Y003382D01*
X002805Y003223D02*
X002842Y003223D01*
X002842Y003065D02*
X002805Y003065D01*
X002805Y002906D02*
X002842Y002906D01*
X002842Y002748D02*
X002805Y002748D01*
X002805Y002589D02*
X002842Y002589D01*
X002466Y002589D02*
X002377Y002589D01*
X002393Y002748D02*
X002447Y002748D01*
X002447Y002906D02*
X002393Y002906D01*
X002393Y003065D02*
X002447Y003065D01*
X002447Y003223D02*
X002393Y003223D01*
X002393Y003382D02*
X002447Y003382D01*
X002447Y003540D02*
X002393Y003540D01*
X002393Y003699D02*
X002447Y003699D01*
X002447Y003857D02*
X002393Y003857D01*
X002393Y004016D02*
X002447Y004016D01*
X002447Y004174D02*
X002393Y004174D01*
X002393Y004333D02*
X002447Y004333D01*
X002447Y004506D02*
X002459Y004552D01*
X002483Y004593D01*
X002516Y004627D01*
X002557Y004650D01*
X002316Y004808D02*
X004596Y004808D01*
X004438Y004967D02*
X002316Y004967D01*
X002316Y005125D02*
X004279Y005125D01*
X004121Y005284D02*
X002316Y005284D01*
X002316Y005442D02*
X003962Y005442D01*
X003804Y005601D02*
X002316Y005601D01*
X002316Y005759D02*
X003645Y005759D01*
X003440Y005918D02*
X003345Y005918D01*
X003350Y005937D02*
X003350Y006360D01*
X002970Y006360D01*
X002970Y005780D01*
X003194Y005780D01*
X003239Y005793D01*
X003281Y005816D01*
X003314Y005850D01*
X003338Y005891D01*
X003350Y005937D01*
X003350Y006076D02*
X003440Y006076D01*
X003440Y006235D02*
X003350Y006235D01*
X003440Y006393D02*
X002970Y006393D01*
X002970Y006360D02*
X002970Y006440D01*
X003350Y006440D01*
X003350Y006864D01*
X003338Y006910D01*
X003314Y006951D01*
X003281Y006984D01*
X003239Y007008D01*
X003194Y007020D01*
X002970Y007020D01*
X002970Y006440D01*
X002890Y006440D01*
X002890Y006360D01*
X002970Y006360D01*
X002890Y006360D02*
X002890Y005780D01*
X002666Y005780D01*
X002621Y005793D01*
X002579Y005816D01*
X002546Y005850D01*
X002522Y005891D01*
X002510Y005937D01*
X002510Y006360D01*
X002890Y006360D01*
X002890Y006393D02*
X002420Y006393D01*
X002510Y006440D02*
X002890Y006440D01*
X002890Y007020D01*
X002666Y007020D01*
X002621Y007008D01*
X002579Y006984D01*
X002546Y006951D01*
X002522Y006910D01*
X002510Y006864D01*
X002510Y006440D01*
X002510Y006552D02*
X002420Y006552D01*
X002420Y006710D02*
X002510Y006710D01*
X002511Y006869D02*
X002420Y006869D01*
X002890Y006869D02*
X002970Y006869D01*
X002970Y006710D02*
X002890Y006710D01*
X002890Y006552D02*
X002970Y006552D01*
X002970Y006235D02*
X002890Y006235D01*
X002890Y006076D02*
X002970Y006076D01*
X002970Y005918D02*
X002890Y005918D01*
X002515Y005918D02*
X002420Y005918D01*
X002420Y006076D02*
X002510Y006076D01*
X002510Y006235D02*
X002420Y006235D01*
X001756Y005759D02*
X000660Y005759D01*
X000660Y005601D02*
X001756Y005601D01*
X001756Y005442D02*
X000660Y005442D01*
X000660Y005284D02*
X001756Y005284D01*
X001756Y005125D02*
X000660Y005125D01*
X000660Y004967D02*
X001756Y004967D01*
X001756Y004808D02*
X000660Y004808D01*
X000660Y004650D02*
X001756Y004650D01*
X001679Y004491D02*
X000660Y004491D01*
X000660Y004333D02*
X001679Y004333D01*
X001679Y004174D02*
X000660Y004174D01*
X000660Y004016D02*
X001679Y004016D01*
X001679Y003857D02*
X000660Y003857D01*
X000660Y003699D02*
X001679Y003699D01*
X001679Y003540D02*
X000660Y003540D01*
X000660Y003382D02*
X001679Y003382D01*
X001679Y003223D02*
X000660Y003223D01*
X000660Y003065D02*
X001679Y003065D01*
X001679Y002906D02*
X000660Y002906D01*
X000660Y002748D02*
X001679Y002748D01*
X001695Y002589D02*
X000660Y002589D01*
X000660Y002431D02*
X004734Y002431D01*
X004705Y002589D02*
X003181Y002589D01*
X005132Y002589D02*
X005228Y002589D01*
X005228Y002431D02*
X005132Y002431D01*
X005626Y002431D02*
X005734Y002431D01*
X005705Y002589D02*
X005655Y002589D01*
X005655Y002906D02*
X005705Y002906D01*
X006132Y002589D02*
X006228Y002589D01*
X006228Y002431D02*
X006132Y002431D01*
X005460Y004491D02*
X010215Y004491D01*
X010250Y004650D02*
X005460Y004650D01*
X005388Y004808D02*
X010312Y004808D01*
X010640Y004967D02*
X005229Y004967D01*
X005071Y005125D02*
X005415Y005125D01*
X005246Y005284D02*
X004912Y005284D01*
X004754Y005442D02*
X005087Y005442D01*
X004929Y005601D02*
X004595Y005601D01*
X004437Y005759D02*
X004770Y005759D01*
X004659Y005918D02*
X004278Y005918D01*
X004240Y006076D02*
X004650Y006076D01*
X004650Y006235D02*
X004240Y006235D01*
X004240Y006393D02*
X004650Y006393D01*
X004650Y006552D02*
X004240Y006552D01*
X004240Y006710D02*
X004650Y006710D01*
X004650Y006869D02*
X004240Y006869D01*
X004120Y007027D02*
X004650Y007027D01*
X004650Y007186D02*
X004120Y007186D01*
X004175Y007344D02*
X004650Y007344D01*
X004650Y007503D02*
X004369Y007503D01*
X004475Y007661D02*
X004650Y007661D01*
X004650Y007820D02*
X004479Y007820D01*
X004378Y007978D02*
X004650Y007978D01*
X004650Y008137D02*
X001460Y008137D01*
X001460Y008295D02*
X002107Y008295D01*
X002061Y008341D02*
X002155Y008247D01*
X003705Y008247D01*
X003799Y008341D01*
X003799Y009340D01*
X003705Y009434D01*
X002155Y009434D01*
X002061Y009340D01*
X002061Y008341D01*
X002061Y008454D02*
X001460Y008454D01*
X001460Y008612D02*
X002061Y008612D01*
X002061Y008771D02*
X001460Y008771D01*
X001460Y008929D02*
X002061Y008929D01*
X002061Y009088D02*
X001460Y009088D01*
X001460Y009246D02*
X002061Y009246D01*
X002126Y009405D02*
X001460Y009405D01*
X000900Y009405D02*
X000660Y009405D01*
X000660Y009563D02*
X000900Y009563D01*
X000900Y009722D02*
X000660Y009722D01*
X000660Y009880D02*
X000900Y009880D01*
X000900Y010039D02*
X000660Y010039D01*
X000660Y010197D02*
X000900Y010197D01*
X000900Y010356D02*
X000660Y010356D01*
X000660Y010514D02*
X000900Y010514D01*
X000900Y010673D02*
X000660Y010673D01*
X000660Y010831D02*
X000900Y010831D01*
X000900Y010990D02*
X000660Y010990D01*
X000660Y011148D02*
X000900Y011148D01*
X000900Y011307D02*
X000660Y011307D01*
X000660Y011465D02*
X000900Y011465D01*
X000900Y011624D02*
X000660Y011624D01*
X000660Y011782D02*
X000900Y011782D01*
X000906Y011941D02*
X000660Y011941D01*
X000660Y012099D02*
X001013Y012099D01*
X001172Y012258D02*
X000660Y012258D01*
X000660Y012416D02*
X001330Y012416D01*
X001489Y012575D02*
X000660Y012575D01*
X000660Y012733D02*
X006272Y012733D01*
X006431Y012892D02*
X004066Y012892D01*
X004063Y012881D02*
X004076Y012926D01*
X004076Y013197D01*
X003688Y013197D01*
X003688Y013293D01*
X004076Y013293D01*
X004076Y013564D01*
X004063Y013610D01*
X004040Y013651D01*
X004006Y013685D01*
X003965Y013708D01*
X003919Y013721D01*
X003688Y013721D01*
X003688Y013293D01*
X003592Y013293D01*
X003592Y013721D01*
X003418Y013721D01*
X003438Y013756D01*
X003451Y013801D01*
X003451Y014072D01*
X003063Y014072D01*
X003063Y014168D01*
X003451Y014168D01*
X003451Y014439D01*
X003438Y014485D01*
X003415Y014526D01*
X003383Y014558D01*
X003415Y014590D01*
X003438Y014631D01*
X003451Y014676D01*
X003451Y014947D01*
X003063Y014947D01*
X003063Y015043D01*
X003451Y015043D01*
X003451Y015314D01*
X003438Y015360D01*
X003415Y015401D01*
X003381Y015435D01*
X003340Y015458D01*
X003294Y015471D01*
X003063Y015471D01*
X003063Y015043D01*
X002967Y015043D01*
X002967Y015471D01*
X002735Y015471D01*
X002689Y015458D01*
X002671Y015448D01*
X002668Y015451D01*
X002557Y015451D01*
X002765Y015658D01*
X002765Y016878D01*
X002858Y016917D01*
X003009Y017067D01*
X003090Y017264D01*
X003090Y017477D01*
X003009Y017673D01*
X002858Y017824D01*
X002661Y017905D01*
X002449Y017905D01*
X002252Y017824D01*
X002101Y017673D01*
X002020Y017477D01*
X002020Y017264D01*
X002101Y017067D01*
X002252Y016917D01*
X002345Y016878D01*
X002345Y015832D01*
X002218Y015705D01*
X002095Y015582D01*
X002095Y015451D01*
X002023Y015451D01*
X001929Y015357D01*
X001929Y015310D01*
X001701Y015310D01*
X001701Y015323D01*
X001607Y015417D01*
X001003Y015417D01*
X000909Y015323D01*
X000909Y014876D01*
X001003Y014782D01*
X001607Y014782D01*
X001701Y014876D01*
X001701Y014890D01*
X001929Y014890D01*
X001929Y014634D01*
X002005Y014558D01*
X001929Y014482D01*
X001929Y014330D01*
X001701Y014330D01*
X001701Y014615D01*
X001607Y014709D01*
X001003Y014709D01*
X000909Y014615D01*
X000909Y014167D01*
X000956Y014120D01*
X000909Y014073D01*
X000909Y013626D01*
X001003Y013532D01*
X001607Y013532D01*
X001701Y013626D01*
X001701Y013910D01*
X001929Y013910D01*
X001929Y013759D01*
X002023Y013665D01*
X002613Y013665D01*
X002554Y013607D01*
X002554Y013455D01*
X002093Y013455D01*
X002063Y013425D01*
X001994Y013425D01*
X001882Y013379D01*
X001854Y013351D01*
X001701Y013351D01*
X001701Y013365D01*
X001607Y013459D01*
X001003Y013459D01*
X000909Y013365D01*
X000909Y012917D01*
X001003Y012824D01*
X001607Y012824D01*
X001701Y012917D01*
X001701Y012931D01*
X001813Y012931D01*
X001882Y012862D01*
X001994Y012815D01*
X002116Y012815D01*
X002228Y012862D01*
X002314Y012948D01*
X002350Y013035D01*
X002554Y013035D01*
X002554Y012884D01*
X002648Y012790D01*
X003293Y012790D01*
X003296Y012793D01*
X003314Y012782D01*
X003360Y012770D01*
X003592Y012770D01*
X003592Y013197D01*
X003688Y013197D01*
X003688Y012770D01*
X003919Y012770D01*
X003965Y012782D01*
X004006Y012806D01*
X004040Y012840D01*
X004063Y012881D01*
X004076Y013050D02*
X006589Y013050D01*
X006748Y013209D02*
X003688Y013209D01*
X003688Y013367D02*
X003592Y013367D01*
X003592Y013526D02*
X003688Y013526D01*
X003688Y013684D02*
X003592Y013684D01*
X003451Y013843D02*
X007110Y013843D01*
X007110Y014001D02*
X003451Y014001D01*
X003451Y014318D02*
X007110Y014318D01*
X007110Y014160D02*
X003063Y014160D01*
X003063Y014168D02*
X002967Y014168D01*
X002967Y014596D01*
X002967Y014947D01*
X003063Y014947D01*
X003063Y014168D01*
X003063Y014318D02*
X002967Y014318D01*
X002967Y014477D02*
X003063Y014477D01*
X003063Y014635D02*
X002967Y014635D01*
X002967Y014794D02*
X003063Y014794D01*
X003063Y014952D02*
X006672Y014952D01*
X006672Y014947D02*
X006284Y014947D01*
X006284Y014676D01*
X006297Y014631D01*
X006320Y014590D01*
X006354Y014556D01*
X006395Y014532D01*
X006441Y014520D01*
X006672Y014520D01*
X006672Y014947D01*
X006672Y015043D02*
X006284Y015043D01*
X006284Y015314D01*
X006297Y015360D01*
X006320Y015401D01*
X006354Y015435D01*
X006395Y015458D01*
X006441Y015471D01*
X006672Y015471D01*
X006672Y015043D01*
X006672Y015111D02*
X006768Y015111D01*
X006768Y015269D02*
X006672Y015269D01*
X006672Y015428D02*
X006768Y015428D01*
X006347Y015428D02*
X003388Y015428D01*
X003451Y015269D02*
X006284Y015269D01*
X006284Y015111D02*
X003451Y015111D01*
X003451Y014794D02*
X006284Y014794D01*
X006295Y014635D02*
X003440Y014635D01*
X003440Y014477D02*
X007110Y014477D01*
X006768Y014635D02*
X006672Y014635D01*
X006672Y014794D02*
X006768Y014794D01*
X007670Y014477D02*
X008595Y014477D01*
X008595Y014635D02*
X007806Y014635D01*
X007670Y014318D02*
X008595Y014318D01*
X008595Y014160D02*
X007670Y014160D01*
X007670Y014001D02*
X008595Y014001D01*
X008595Y013843D02*
X007670Y013843D01*
X007670Y013684D02*
X008595Y013684D01*
X008595Y013526D02*
X007670Y013526D01*
X007656Y013367D02*
X007871Y013367D01*
X007762Y013209D02*
X007539Y013209D01*
X007688Y013050D02*
X007381Y013050D01*
X007530Y012892D02*
X007222Y012892D01*
X007371Y012733D02*
X007064Y012733D01*
X007213Y012575D02*
X006905Y012575D01*
X007054Y012416D02*
X006747Y012416D01*
X006896Y012258D02*
X006588Y012258D01*
X006737Y012099D02*
X006382Y012099D01*
X006579Y011941D02*
X001646Y011941D01*
X001730Y011782D02*
X001488Y011782D01*
X001460Y011624D02*
X001725Y011624D01*
X001725Y011465D02*
X001460Y011465D01*
X001460Y011307D02*
X001725Y011307D01*
X001725Y011148D02*
X001460Y011148D01*
X001460Y010514D02*
X001725Y010514D01*
X001460Y010356D02*
X002838Y010356D01*
X002705Y010514D02*
X002635Y010514D01*
X002635Y010673D02*
X002705Y010673D01*
X002635Y010831D02*
X003132Y010831D01*
X003228Y010831D02*
X004132Y010831D01*
X004228Y010831D02*
X006720Y010831D01*
X006720Y010673D02*
X004655Y010673D01*
X004655Y010738D02*
X004655Y010506D01*
X004643Y010460D01*
X004619Y010419D01*
X004586Y010386D01*
X004545Y010362D01*
X004499Y010350D01*
X004228Y010350D01*
X004228Y010738D01*
X004655Y010738D01*
X004655Y010514D02*
X006720Y010514D01*
X006720Y010356D02*
X004522Y010356D01*
X004228Y010356D02*
X004132Y010356D01*
X004132Y010514D02*
X004228Y010514D01*
X004228Y010673D02*
X004132Y010673D01*
X003838Y010356D02*
X003522Y010356D01*
X003545Y010362D02*
X003586Y010386D01*
X003619Y010419D01*
X003643Y010460D01*
X003655Y010506D01*
X003655Y010738D01*
X003228Y010738D01*
X003228Y010350D01*
X003499Y010350D01*
X003545Y010362D01*
X003655Y010514D02*
X003705Y010514D01*
X003705Y010673D02*
X003655Y010673D01*
X003655Y010990D02*
X003705Y010990D01*
X003725Y011148D02*
X003635Y011148D01*
X003180Y011455D02*
X002180Y011455D01*
X002635Y011148D02*
X002725Y011148D01*
X002705Y010990D02*
X002635Y010990D01*
X003132Y010673D02*
X003228Y010673D01*
X003228Y010514D02*
X003132Y010514D01*
X003132Y010356D02*
X003228Y010356D01*
X003734Y009405D02*
X004429Y009405D01*
X004442Y009246D02*
X003799Y009246D01*
X003799Y009088D02*
X004650Y009088D01*
X004650Y008929D02*
X003799Y008929D01*
X003799Y008771D02*
X004650Y008771D01*
X004650Y008612D02*
X003799Y008612D01*
X003799Y008454D02*
X004650Y008454D01*
X004650Y008295D02*
X003753Y008295D01*
X003982Y007978D02*
X001460Y007978D01*
X001460Y007820D02*
X003859Y007820D01*
X003700Y007661D02*
X001460Y007661D01*
X001460Y007503D02*
X003577Y007503D01*
X003560Y007344D02*
X001460Y007344D01*
X001460Y007186D02*
X003560Y007186D01*
X003560Y007027D02*
X001460Y007027D01*
X001460Y006869D02*
X001620Y006869D01*
X001620Y006710D02*
X001486Y006710D01*
X001011Y006393D02*
X000660Y006393D01*
X000660Y006235D02*
X001170Y006235D01*
X000905Y006552D02*
X000660Y006552D01*
X000660Y006710D02*
X000900Y006710D01*
X000900Y006869D02*
X000660Y006869D01*
X000660Y007027D02*
X000900Y007027D01*
X000900Y007186D02*
X000660Y007186D01*
X000660Y007344D02*
X000900Y007344D01*
X000900Y007503D02*
X000660Y007503D01*
X000660Y007661D02*
X000900Y007661D01*
X000900Y007820D02*
X000660Y007820D01*
X000660Y007978D02*
X000900Y007978D01*
X000900Y008137D02*
X000660Y008137D01*
X000660Y008295D02*
X000900Y008295D01*
X000900Y008454D02*
X000660Y008454D01*
X000660Y008612D02*
X000900Y008612D01*
X000900Y008771D02*
X000660Y008771D01*
X000660Y008929D02*
X000900Y008929D01*
X000900Y009088D02*
X000660Y009088D01*
X000660Y009246D02*
X000900Y009246D01*
X001460Y010039D02*
X004486Y010039D01*
X004655Y010990D02*
X006720Y010990D01*
X006720Y011148D02*
X004635Y011148D01*
X004635Y011624D02*
X006262Y011624D01*
X006420Y011782D02*
X004630Y011782D01*
X004180Y011455D02*
X003180Y011455D01*
X002730Y011782D02*
X002630Y011782D01*
X003630Y011782D02*
X003730Y011782D01*
X003688Y012892D02*
X003592Y012892D01*
X003592Y013050D02*
X003688Y013050D01*
X004076Y013367D02*
X006906Y013367D01*
X007065Y013526D02*
X004076Y013526D01*
X004006Y013684D02*
X007110Y013684D01*
X008239Y013367D02*
X008595Y013367D01*
X008595Y013209D02*
X008348Y013209D01*
X008356Y013050D02*
X008595Y013050D01*
X008595Y012892D02*
X008258Y012892D01*
X008112Y012733D02*
X007965Y012733D01*
X008008Y012575D02*
X007807Y012575D01*
X007929Y012416D02*
X007648Y012416D01*
X007771Y012258D02*
X007490Y012258D01*
X007612Y012099D02*
X007331Y012099D01*
X007454Y011941D02*
X007173Y011941D01*
X007295Y011782D02*
X007014Y011782D01*
X007137Y011624D02*
X006856Y011624D01*
X006978Y011465D02*
X006697Y011465D01*
X006820Y011307D02*
X006539Y011307D01*
X007140Y010990D02*
X007878Y010990D01*
X008036Y011148D02*
X007255Y011148D01*
X007414Y011307D02*
X008195Y011307D01*
X008264Y011465D02*
X007572Y011465D01*
X007731Y011624D02*
X008377Y011624D01*
X008048Y011941D02*
X009415Y011941D01*
X009415Y012099D02*
X008206Y012099D01*
X008499Y012258D02*
X009120Y012258D01*
X008962Y012416D02*
X008602Y012416D01*
X008602Y012575D02*
X008803Y012575D01*
X008645Y012733D02*
X008498Y012733D01*
X009265Y013082D02*
X009265Y016158D01*
X009866Y016760D01*
X009880Y016746D01*
X010075Y016665D01*
X010285Y016665D01*
X010480Y016746D01*
X010629Y016895D01*
X010701Y017068D01*
X010731Y016995D01*
X010880Y016846D01*
X011075Y016765D01*
X011285Y016765D01*
X011480Y016846D01*
X011629Y016995D01*
X011659Y017068D01*
X011731Y016895D01*
X011880Y016746D01*
X012075Y016665D01*
X012285Y016665D01*
X012480Y016746D01*
X012629Y016895D01*
X012691Y017044D01*
X012710Y017007D01*
X012760Y016937D01*
X012822Y016876D01*
X012892Y016825D01*
X012969Y016786D01*
X013051Y016759D01*
X013137Y016745D01*
X013160Y016745D01*
X013160Y017275D01*
X013200Y017275D01*
X013200Y016745D01*
X013223Y016745D01*
X013309Y016759D01*
X013391Y016786D01*
X013468Y016825D01*
X013538Y016876D01*
X013600Y016937D01*
X013650Y017007D01*
X013669Y017044D01*
X013687Y017000D01*
X011576Y014888D01*
X011576Y015065D01*
X011616Y015065D01*
X011728Y015112D01*
X011814Y015198D01*
X011860Y015310D01*
X011860Y015431D01*
X011814Y015543D01*
X011728Y015629D01*
X011616Y015675D01*
X011494Y015675D01*
X011382Y015629D01*
X011296Y015543D01*
X011250Y015431D01*
X011250Y015362D01*
X011167Y015279D01*
X011116Y015300D01*
X010994Y015300D01*
X010882Y015254D01*
X010796Y015168D01*
X010750Y015056D01*
X010750Y014935D01*
X010796Y014823D01*
X010882Y014737D01*
X010959Y014705D01*
X010959Y014386D01*
X010454Y014386D01*
X010360Y014292D01*
X010360Y013687D01*
X010454Y013593D01*
X011353Y013593D01*
X011353Y012715D01*
X010298Y011660D01*
X010207Y011660D01*
X010207Y013080D01*
X010215Y013094D01*
X010227Y013140D01*
X010227Y013222D01*
X010227Y013304D01*
X010215Y013350D01*
X010191Y013391D01*
X010158Y013424D01*
X010117Y013448D01*
X010071Y013460D01*
X009811Y013460D01*
X009811Y013243D01*
X009811Y013243D01*
X009811Y013460D01*
X009551Y013460D01*
X009505Y013448D01*
X009464Y013424D01*
X009431Y013391D01*
X009407Y013350D01*
X009395Y013304D01*
X009395Y013222D01*
X009487Y013222D01*
X009487Y013222D01*
X009395Y013222D01*
X009395Y013140D01*
X009407Y013094D01*
X009415Y013080D01*
X009415Y012933D01*
X009265Y013082D01*
X009297Y013050D02*
X009415Y013050D01*
X009395Y013209D02*
X009265Y013209D01*
X009265Y013367D02*
X009417Y013367D01*
X009265Y013526D02*
X011353Y013526D01*
X011353Y013367D02*
X010205Y013367D01*
X010227Y013222D02*
X010135Y013222D01*
X010135Y013222D01*
X010227Y013222D01*
X010227Y013209D02*
X011353Y013209D01*
X011353Y013050D02*
X010207Y013050D01*
X010207Y012892D02*
X011353Y012892D01*
X011353Y012733D02*
X010207Y012733D01*
X010207Y012575D02*
X011213Y012575D01*
X011054Y012416D02*
X010207Y012416D01*
X010207Y012258D02*
X010896Y012258D01*
X010737Y012099D02*
X010207Y012099D01*
X010207Y011941D02*
X010579Y011941D01*
X010420Y011782D02*
X010207Y011782D01*
X009415Y011782D02*
X007889Y011782D01*
X008547Y011065D02*
X008616Y011065D01*
X008728Y011112D01*
X008814Y011198D01*
X008831Y011240D01*
X009415Y011240D01*
X009415Y010144D01*
X009508Y010050D01*
X010063Y010050D01*
X008720Y008707D01*
X008720Y008533D01*
X008720Y006967D01*
X008689Y007043D01*
X008640Y007092D01*
X008640Y008457D01*
X008390Y008707D01*
X008267Y008830D01*
X007931Y008830D01*
X007931Y008982D01*
X007837Y009076D01*
X007192Y009076D01*
X007180Y009063D01*
X007168Y009076D01*
X007092Y009076D01*
X007099Y009165D01*
X007168Y009165D01*
X007180Y009178D01*
X007192Y009165D01*
X007837Y009165D01*
X007931Y009259D01*
X007931Y009449D01*
X008015Y009533D01*
X008015Y009707D01*
X007931Y009792D01*
X007931Y009982D01*
X007837Y010076D01*
X007765Y010076D01*
X007765Y010283D01*
X008547Y011065D01*
X008471Y010990D02*
X009415Y010990D01*
X009415Y011148D02*
X008764Y011148D01*
X008313Y010831D02*
X009415Y010831D01*
X009415Y010673D02*
X008154Y010673D01*
X007996Y010514D02*
X009415Y010514D01*
X009415Y010356D02*
X007837Y010356D01*
X007765Y010197D02*
X009415Y010197D01*
X009735Y009722D02*
X008000Y009722D01*
X008015Y009563D02*
X009576Y009563D01*
X009418Y009405D02*
X007931Y009405D01*
X007918Y009246D02*
X009259Y009246D01*
X009101Y009088D02*
X007092Y009088D01*
X006605Y009088D02*
X005210Y009088D01*
X005210Y008929D02*
X006429Y008929D01*
X006429Y008771D02*
X005210Y008771D01*
X005210Y008612D02*
X006429Y008612D01*
X006429Y008454D02*
X005210Y008454D01*
X005210Y008295D02*
X006429Y008295D01*
X006605Y008137D02*
X005210Y008137D01*
X005210Y007978D02*
X006429Y007978D01*
X006429Y007820D02*
X005210Y007820D01*
X005210Y007661D02*
X006429Y007661D01*
X006429Y007503D02*
X005210Y007503D01*
X005210Y007344D02*
X006429Y007344D01*
X006502Y007186D02*
X005210Y007186D01*
X005210Y007027D02*
X008165Y007027D01*
X008125Y006869D02*
X005210Y006869D01*
X005210Y006710D02*
X008166Y006710D01*
X008440Y006552D02*
X007861Y006552D01*
X007931Y006393D02*
X008281Y006393D01*
X008695Y007027D02*
X008720Y007027D01*
X008720Y007186D02*
X008640Y007186D01*
X008640Y007344D02*
X008720Y007344D01*
X008720Y007503D02*
X008640Y007503D01*
X008640Y007661D02*
X008720Y007661D01*
X008720Y007820D02*
X008640Y007820D01*
X008640Y007978D02*
X008720Y007978D01*
X008720Y008137D02*
X008640Y008137D01*
X008640Y008295D02*
X008720Y008295D01*
X008720Y008454D02*
X008640Y008454D01*
X008720Y008612D02*
X008485Y008612D01*
X008326Y008771D02*
X008784Y008771D01*
X008942Y008929D02*
X007931Y008929D01*
X007931Y008295D02*
X008208Y008295D01*
X008220Y008137D02*
X007085Y008137D01*
X007467Y007978D02*
X007563Y007978D01*
X007563Y007820D02*
X007467Y007820D01*
X007563Y007661D02*
X008220Y007661D01*
X008220Y007503D02*
X007951Y007503D01*
X007951Y007344D02*
X008220Y007344D01*
X008220Y007186D02*
X007886Y007186D01*
X007563Y007186D02*
X007467Y007186D01*
X007467Y007344D02*
X007563Y007344D01*
X007563Y007503D02*
X007467Y007503D01*
X007951Y007820D02*
X008220Y007820D01*
X008220Y007978D02*
X007940Y007978D01*
X006845Y007620D02*
X006845Y009620D01*
X006845Y008620D01*
X006442Y009246D02*
X005933Y009246D01*
X005938Y009256D02*
X005951Y009301D01*
X005951Y009572D01*
X005563Y009572D01*
X005563Y009145D01*
X005794Y009145D01*
X005840Y009157D01*
X005881Y009181D01*
X005915Y009215D01*
X005938Y009256D01*
X005951Y009405D02*
X006429Y009405D01*
X006429Y009563D02*
X005951Y009563D01*
X005951Y009722D02*
X006429Y009722D01*
X006429Y009880D02*
X005951Y009880D01*
X005902Y010039D02*
X006486Y010039D01*
X006720Y010197D02*
X001460Y010197D01*
X001676Y012892D02*
X001852Y012892D01*
X002258Y012892D02*
X002554Y012892D01*
X002554Y013526D02*
X000660Y013526D01*
X000660Y013684D02*
X000909Y013684D01*
X000909Y013843D02*
X000660Y013843D01*
X000660Y014001D02*
X000909Y014001D01*
X000916Y014160D02*
X000660Y014160D01*
X000660Y014318D02*
X000909Y014318D01*
X000909Y014477D02*
X000660Y014477D01*
X000660Y014635D02*
X000929Y014635D01*
X000991Y014794D02*
X000660Y014794D01*
X000660Y014952D02*
X000909Y014952D01*
X000909Y015111D02*
X000660Y015111D01*
X000660Y015269D02*
X000909Y015269D01*
X000660Y015428D02*
X002000Y015428D01*
X002099Y015586D02*
X000660Y015586D01*
X000660Y015745D02*
X001218Y015745D01*
X001239Y015733D02*
X001324Y015697D01*
X001413Y015674D01*
X001471Y015666D01*
X001471Y016286D01*
X001631Y016286D01*
X001631Y015666D01*
X001689Y015674D01*
X001778Y015697D01*
X001864Y015733D01*
X001944Y015779D01*
X002017Y015835D01*
X002082Y015901D01*
X002139Y015974D01*
X002185Y016054D01*
X002220Y016139D01*
X002244Y016229D01*
X002252Y016286D01*
X001631Y016286D01*
X001631Y016446D01*
X002252Y016446D01*
X002244Y016504D01*
X002220Y016594D01*
X002185Y016679D01*
X002139Y016759D01*
X002082Y016832D01*
X002017Y016898D01*
X001944Y016954D01*
X001864Y017000D01*
X001778Y017035D01*
X001689Y017059D01*
X001631Y017067D01*
X001631Y016446D01*
X001471Y016446D01*
X001471Y016286D01*
X000851Y016286D01*
X000858Y016229D01*
X000882Y016139D01*
X000917Y016054D01*
X000964Y015974D01*
X001020Y015901D01*
X001085Y015835D01*
X001159Y015779D01*
X001239Y015733D01*
X001471Y015745D02*
X001631Y015745D01*
X001631Y015903D02*
X001471Y015903D01*
X001471Y016062D02*
X001631Y016062D01*
X001631Y016220D02*
X001471Y016220D01*
X001471Y016379D02*
X000660Y016379D01*
X000660Y016537D02*
X000867Y016537D01*
X000858Y016504D02*
X000851Y016446D01*
X001471Y016446D01*
X001471Y017067D01*
X001413Y017059D01*
X001324Y017035D01*
X001239Y017000D01*
X001159Y016954D01*
X001085Y016898D01*
X001020Y016832D01*
X000964Y016759D01*
X000917Y016679D01*
X000882Y016594D01*
X000858Y016504D01*
X000927Y016696D02*
X000660Y016696D01*
X000660Y016854D02*
X001042Y016854D01*
X001269Y017013D02*
X000660Y017013D01*
X000660Y017171D02*
X002058Y017171D01*
X002020Y017330D02*
X000660Y017330D01*
X000660Y017488D02*
X002025Y017488D01*
X002090Y017647D02*
X000660Y017647D01*
X000660Y017805D02*
X001134Y017805D01*
X001159Y017787D02*
X001239Y017741D01*
X001324Y017705D01*
X001413Y017681D01*
X001471Y017674D01*
X001471Y018294D01*
X001631Y018294D01*
X001631Y017674D01*
X001689Y017681D01*
X001778Y017705D01*
X001864Y017741D01*
X001944Y017787D01*
X002017Y017843D01*
X002082Y017908D01*
X002139Y017982D01*
X002185Y018062D01*
X002220Y018147D01*
X002244Y018236D01*
X002252Y018294D01*
X001631Y018294D01*
X001631Y018454D01*
X002252Y018454D01*
X002244Y018512D01*
X002220Y018601D01*
X002185Y018687D01*
X002139Y018767D01*
X002082Y018840D01*
X002017Y018905D01*
X001944Y018962D01*
X001864Y019008D01*
X001778Y019043D01*
X001689Y019067D01*
X001631Y019075D01*
X001631Y018454D01*
X001471Y018454D01*
X001471Y018294D01*
X000851Y018294D01*
X000858Y018236D01*
X000882Y018147D01*
X000917Y018062D01*
X000964Y017982D01*
X001020Y017908D01*
X001085Y017843D01*
X001159Y017787D01*
X000977Y017964D02*
X000660Y017964D01*
X000660Y018122D02*
X000892Y018122D01*
X000852Y018281D02*
X000660Y018281D01*
X000660Y018439D02*
X001471Y018439D01*
X001471Y018454D02*
X000851Y018454D01*
X000858Y018512D01*
X000882Y018601D01*
X000917Y018687D01*
X000964Y018767D01*
X001020Y018840D01*
X001085Y018905D01*
X001159Y018962D01*
X001239Y019008D01*
X001324Y019043D01*
X001413Y019067D01*
X001471Y019075D01*
X001471Y018454D01*
X001471Y018598D02*
X001631Y018598D01*
X001631Y018756D02*
X001471Y018756D01*
X001471Y018915D02*
X001631Y018915D01*
X001631Y019073D02*
X001471Y019073D01*
X001460Y019073D02*
X000660Y019073D01*
X000660Y018915D02*
X001098Y018915D01*
X000958Y018756D02*
X000660Y018756D01*
X000660Y018598D02*
X000881Y018598D01*
X001471Y018281D02*
X001631Y018281D01*
X001631Y018439D02*
X003479Y018439D01*
X003479Y018454D02*
X003479Y018294D01*
X003639Y018294D01*
X003639Y017674D01*
X003697Y017681D01*
X003786Y017705D01*
X003871Y017741D01*
X003951Y017787D01*
X004025Y017843D01*
X004090Y017908D01*
X004146Y017982D01*
X004193Y018062D01*
X004228Y018147D01*
X004252Y018236D01*
X004259Y018294D01*
X003639Y018294D01*
X003639Y018454D01*
X004259Y018454D01*
X004252Y018512D01*
X004228Y018601D01*
X004193Y018687D01*
X004146Y018767D01*
X004090Y018840D01*
X004025Y018905D01*
X003951Y018962D01*
X003871Y019008D01*
X003786Y019043D01*
X003697Y019067D01*
X003639Y019075D01*
X003639Y018454D01*
X003479Y018454D01*
X002858Y018454D01*
X002866Y018512D01*
X002890Y018601D01*
X002925Y018687D01*
X002971Y018767D01*
X003028Y018840D01*
X003093Y018905D01*
X003166Y018962D01*
X003246Y019008D01*
X003332Y019043D01*
X003421Y019067D01*
X003479Y019075D01*
X003479Y018454D01*
X003479Y018598D02*
X003639Y018598D01*
X003639Y018756D02*
X003479Y018756D01*
X003479Y018915D02*
X003639Y018915D01*
X003639Y019073D02*
X003479Y019073D01*
X003468Y019073D02*
X001642Y019073D01*
X002005Y018915D02*
X003105Y018915D01*
X002965Y018756D02*
X002145Y018756D01*
X002221Y018598D02*
X002889Y018598D01*
X002858Y018294D02*
X002866Y018236D01*
X002890Y018147D01*
X002925Y018062D01*
X002971Y017982D01*
X003028Y017908D01*
X003093Y017843D01*
X003166Y017787D01*
X003246Y017741D01*
X003332Y017705D01*
X003421Y017681D01*
X003479Y017674D01*
X003479Y018294D01*
X002858Y018294D01*
X002860Y018281D02*
X002250Y018281D01*
X002210Y018122D02*
X002900Y018122D01*
X002985Y017964D02*
X002125Y017964D01*
X002233Y017805D02*
X001968Y017805D01*
X001631Y017805D02*
X001471Y017805D01*
X001471Y017964D02*
X001631Y017964D01*
X001631Y018122D02*
X001471Y018122D01*
X001471Y017013D02*
X001631Y017013D01*
X001631Y016854D02*
X001471Y016854D01*
X001471Y016696D02*
X001631Y016696D01*
X001631Y016537D02*
X001471Y016537D01*
X001631Y016379D02*
X002345Y016379D01*
X002345Y016537D02*
X002235Y016537D01*
X002175Y016696D02*
X002345Y016696D01*
X002345Y016854D02*
X002060Y016854D01*
X002156Y017013D02*
X001833Y017013D01*
X002242Y016220D02*
X002345Y016220D01*
X002345Y016062D02*
X002188Y016062D01*
X002084Y015903D02*
X002345Y015903D01*
X002258Y015745D02*
X001884Y015745D01*
X001018Y015903D02*
X000660Y015903D01*
X000660Y016062D02*
X000914Y016062D01*
X000860Y016220D02*
X000660Y016220D01*
X001619Y014794D02*
X001929Y014794D01*
X001929Y014635D02*
X001681Y014635D01*
X001701Y014477D02*
X001929Y014477D01*
X001929Y013843D02*
X001701Y013843D01*
X001701Y013684D02*
X002004Y013684D01*
X001871Y013367D02*
X001699Y013367D01*
X000911Y013367D02*
X000660Y013367D01*
X000660Y013209D02*
X000909Y013209D01*
X000909Y013050D02*
X000660Y013050D01*
X000660Y012892D02*
X000934Y012892D01*
X002967Y015111D02*
X003063Y015111D01*
X003063Y015269D02*
X002967Y015269D01*
X002967Y015428D02*
X003063Y015428D01*
X003246Y015733D02*
X003332Y015697D01*
X003421Y015674D01*
X003479Y015666D01*
X003479Y016286D01*
X003639Y016286D01*
X003639Y015666D01*
X003697Y015674D01*
X003786Y015697D01*
X003871Y015733D01*
X003951Y015779D01*
X004025Y015835D01*
X004090Y015901D01*
X004146Y015974D01*
X004193Y016054D01*
X004228Y016139D01*
X004252Y016229D01*
X004259Y016286D01*
X003639Y016286D01*
X003639Y016446D01*
X004259Y016446D01*
X004252Y016504D01*
X004228Y016594D01*
X004193Y016679D01*
X004146Y016759D01*
X004090Y016832D01*
X004025Y016898D01*
X003951Y016954D01*
X003871Y017000D01*
X003786Y017035D01*
X003697Y017059D01*
X003639Y017067D01*
X003639Y016446D01*
X003479Y016446D01*
X003479Y016286D01*
X002858Y016286D01*
X002866Y016229D01*
X002890Y016139D01*
X002925Y016054D01*
X002971Y015974D01*
X003028Y015901D01*
X003093Y015835D01*
X003166Y015779D01*
X003246Y015733D01*
X003226Y015745D02*
X002765Y015745D01*
X002765Y015903D02*
X003026Y015903D01*
X002922Y016062D02*
X002765Y016062D01*
X002765Y016220D02*
X002868Y016220D01*
X002765Y016379D02*
X003479Y016379D01*
X003479Y016446D02*
X002858Y016446D01*
X002866Y016504D01*
X002890Y016594D01*
X002925Y016679D01*
X002971Y016759D01*
X003028Y016832D01*
X003093Y016898D01*
X003166Y016954D01*
X003246Y017000D01*
X003332Y017035D01*
X003421Y017059D01*
X003479Y017067D01*
X003479Y016446D01*
X003479Y016537D02*
X003639Y016537D01*
X003639Y016379D02*
X008595Y016379D01*
X008595Y016537D02*
X004243Y016537D01*
X004183Y016696D02*
X008595Y016696D01*
X008595Y016854D02*
X004068Y016854D01*
X003841Y017013D02*
X008651Y017013D01*
X008809Y017171D02*
X003052Y017171D01*
X003090Y017330D02*
X008968Y017330D01*
X009126Y017488D02*
X003085Y017488D01*
X003020Y017647D02*
X009285Y017647D01*
X009443Y017805D02*
X003976Y017805D01*
X004133Y017964D02*
X009602Y017964D01*
X010758Y017964D02*
X012227Y017964D01*
X012068Y017805D02*
X011334Y017805D01*
X011578Y017647D02*
X011885Y017647D01*
X011728Y017488D02*
X011674Y017488D01*
X011682Y017013D02*
X011637Y017013D01*
X011771Y016854D02*
X011489Y016854D01*
X010871Y016854D02*
X010589Y016854D01*
X010678Y017013D02*
X010723Y017013D01*
X010359Y016696D02*
X012001Y016696D01*
X012359Y016696D02*
X013384Y016696D01*
X013509Y016854D02*
X013542Y016854D01*
X013653Y017013D02*
X013682Y017013D01*
X013978Y016696D02*
X014001Y016696D01*
X013819Y016537D02*
X021440Y016537D01*
X021440Y016379D02*
X018343Y016379D01*
X018502Y016220D02*
X021440Y016220D01*
X021440Y016062D02*
X018629Y016062D01*
X018629Y015903D02*
X021440Y015903D01*
X021440Y015745D02*
X018629Y015745D01*
X018629Y015586D02*
X021440Y015586D01*
X021440Y015428D02*
X021210Y015428D01*
X021296Y015269D02*
X021440Y015269D01*
X021440Y015111D02*
X021296Y015111D01*
X021296Y014952D02*
X021440Y014952D01*
X021440Y014794D02*
X021296Y014794D01*
X021296Y014635D02*
X021440Y014635D01*
X021440Y014477D02*
X021272Y014477D01*
X021440Y014318D02*
X021094Y014318D01*
X021181Y014160D02*
X021440Y014160D01*
X021181Y014001D02*
X023322Y014001D01*
X023322Y013843D02*
X021181Y013843D01*
X021181Y013684D02*
X023322Y013684D01*
X023322Y013526D02*
X021181Y013526D01*
X020975Y013367D02*
X023322Y013367D01*
X023322Y013209D02*
X020975Y013209D01*
X020975Y013050D02*
X023322Y013050D01*
X023322Y012892D02*
X021146Y012892D01*
X021181Y012733D02*
X023322Y012733D01*
X023322Y012575D02*
X021647Y012575D01*
X021806Y012416D02*
X023322Y012416D01*
X023322Y012258D02*
X021890Y012258D01*
X021890Y012099D02*
X023322Y012099D01*
X023322Y011941D02*
X021890Y011941D01*
X021890Y011782D02*
X023322Y011782D01*
X023322Y011624D02*
X023266Y011624D01*
X022710Y011624D02*
X022710Y011624D01*
X022710Y011465D02*
X022710Y011465D01*
X022710Y011307D02*
X022710Y011307D01*
X022710Y011148D02*
X022710Y011148D01*
X022710Y010990D02*
X022710Y010990D01*
X022710Y010870D02*
X022710Y010870D01*
X022710Y010831D02*
X022710Y010831D01*
X022710Y010673D02*
X022710Y010673D01*
X022710Y010514D02*
X022710Y010514D01*
X022710Y010370D02*
X022710Y010370D01*
X022710Y010356D02*
X022710Y010356D01*
X022710Y010197D02*
X022710Y010197D01*
X022710Y010039D02*
X022710Y010039D01*
X022710Y009880D02*
X022710Y009880D01*
X022710Y009870D02*
X022710Y009870D01*
X022710Y009722D02*
X022710Y009722D01*
X022096Y009722D02*
X021890Y009722D01*
X021890Y009880D02*
X022095Y009880D01*
X022102Y010039D02*
X021890Y010039D01*
X021890Y010197D02*
X022103Y010197D01*
X022095Y010356D02*
X021890Y010356D01*
X021890Y010514D02*
X022095Y010514D01*
X022112Y010673D02*
X021890Y010673D01*
X021890Y010831D02*
X022095Y010831D01*
X022095Y010990D02*
X021890Y010990D01*
X021890Y011148D02*
X022126Y011148D01*
X022095Y011307D02*
X021890Y011307D01*
X021890Y011465D02*
X022095Y011465D01*
X022154Y011624D02*
X021890Y011624D01*
X021470Y011624D02*
X021178Y011624D01*
X021151Y011650D02*
X020149Y011650D01*
X020079Y011580D01*
X019515Y011580D01*
X019515Y012285D01*
X019679Y012285D01*
X019679Y012134D01*
X019773Y012040D01*
X020418Y012040D01*
X020430Y012053D01*
X020442Y012040D01*
X021087Y012040D01*
X021181Y012134D01*
X021181Y012285D01*
X021343Y012285D01*
X021470Y012158D01*
X021470Y010080D01*
X021221Y010080D01*
X021195Y010106D01*
X021196Y010106D01*
X021229Y010140D01*
X021253Y010181D01*
X021265Y010227D01*
X021265Y010370D01*
X020650Y010370D01*
X020035Y010370D01*
X020035Y010227D01*
X020047Y010181D01*
X020071Y010140D01*
X020104Y010106D01*
X020105Y010106D01*
X020055Y010057D01*
X020055Y009684D01*
X020149Y009590D01*
X021151Y009590D01*
X021221Y009660D01*
X021470Y009660D01*
X021470Y008980D01*
X020893Y008980D01*
X020770Y008857D01*
X020698Y008785D01*
X020698Y008537D01*
X020625Y008537D01*
X020531Y008444D01*
X020531Y008075D01*
X020593Y008013D01*
X020531Y007952D01*
X020531Y007583D01*
X020593Y007521D01*
X020557Y007485D01*
X019515Y007485D01*
X019515Y010609D01*
X019619Y010565D01*
X019741Y010565D01*
X019853Y010612D01*
X019901Y010660D01*
X020079Y010660D01*
X020105Y010634D01*
X020104Y010634D01*
X020071Y010601D01*
X020047Y010560D01*
X020035Y010514D01*
X020035Y010370D01*
X020650Y010370D01*
X020650Y010370D01*
X020650Y010370D01*
X021265Y010370D01*
X021265Y010514D01*
X021253Y010560D01*
X021229Y010601D01*
X021196Y010634D01*
X021195Y010634D01*
X021245Y010684D01*
X021245Y011057D01*
X021181Y011120D01*
X021245Y011184D01*
X021245Y011557D01*
X021151Y011650D01*
X021245Y011465D02*
X021470Y011465D01*
X021470Y011307D02*
X021245Y011307D01*
X021209Y011148D02*
X021470Y011148D01*
X021470Y010990D02*
X021245Y010990D01*
X021245Y010831D02*
X021470Y010831D01*
X021470Y010673D02*
X021234Y010673D01*
X021265Y010514D02*
X021470Y010514D01*
X021470Y010356D02*
X021265Y010356D01*
X021257Y010197D02*
X021470Y010197D01*
X021470Y009563D02*
X019515Y009563D01*
X019515Y009405D02*
X021470Y009405D01*
X021470Y009246D02*
X019515Y009246D01*
X019515Y009088D02*
X021470Y009088D01*
X021890Y009088D02*
X023322Y009088D01*
X023322Y009246D02*
X021890Y009246D01*
X021890Y009405D02*
X023322Y009405D01*
X023322Y009563D02*
X021890Y009563D01*
X021890Y008929D02*
X023322Y008929D01*
X023322Y008771D02*
X021976Y008771D01*
X021984Y008612D02*
X023322Y008612D01*
X023322Y008454D02*
X022893Y008454D01*
X023052Y008295D02*
X023322Y008295D01*
X023322Y008137D02*
X023090Y008137D01*
X023090Y007978D02*
X023322Y007978D01*
X023322Y007820D02*
X023090Y007820D01*
X023090Y007661D02*
X023322Y007661D01*
X023322Y007503D02*
X023090Y007503D01*
X023090Y007344D02*
X023322Y007344D01*
X023322Y007186D02*
X022992Y007186D01*
X023322Y007027D02*
X022090Y007027D01*
X022150Y006869D02*
X023322Y006869D01*
X023322Y006710D02*
X022150Y006710D01*
X022104Y006552D02*
X023322Y006552D01*
X023322Y006393D02*
X021984Y006393D01*
X021984Y006235D02*
X023322Y006235D01*
X022670Y007485D02*
X022125Y007485D01*
X022103Y007507D01*
X022134Y007539D01*
X022158Y007580D01*
X022170Y007625D01*
X022170Y007767D01*
X021774Y007767D01*
X021774Y007767D01*
X022170Y007767D01*
X022170Y007909D01*
X022158Y007955D01*
X022134Y007996D01*
X022103Y008027D01*
X022125Y008049D01*
X022670Y008049D01*
X022670Y007485D01*
X022670Y007503D02*
X022107Y007503D01*
X022170Y007661D02*
X022670Y007661D01*
X022670Y007820D02*
X022170Y007820D01*
X022144Y007978D02*
X022670Y007978D01*
X021564Y006505D02*
X021564Y006051D01*
X021468Y005955D01*
X020582Y005955D01*
X020542Y005996D01*
X019818Y005996D01*
X019725Y005902D01*
X019725Y005790D01*
X019553Y005790D01*
X019515Y005752D01*
X019515Y006773D01*
X019546Y006698D01*
X019632Y006612D01*
X019744Y006565D01*
X019866Y006565D01*
X019884Y006573D01*
X020557Y006573D01*
X020625Y006505D01*
X021190Y006505D01*
X021263Y006578D01*
X021418Y006578D01*
X021491Y006505D01*
X021564Y006505D01*
X021564Y006393D02*
X019515Y006393D01*
X019515Y006235D02*
X021564Y006235D01*
X021564Y006076D02*
X019515Y006076D01*
X019515Y005918D02*
X019740Y005918D01*
X019522Y005759D02*
X019515Y005759D01*
X019515Y006552D02*
X020578Y006552D01*
X021237Y006552D02*
X021444Y006552D01*
X021055Y005442D02*
X020635Y005442D01*
X020635Y005284D02*
X021009Y005284D01*
X021009Y005125D02*
X020655Y005125D01*
X020655Y004967D02*
X021009Y004967D01*
X021009Y004808D02*
X020655Y004808D01*
X020655Y004650D02*
X021009Y004650D01*
X021077Y004491D02*
X020552Y004491D01*
X020228Y004491D02*
X020132Y004491D01*
X020132Y004650D02*
X020228Y004650D01*
X020228Y004808D02*
X020132Y004808D01*
X019705Y004808D02*
X019665Y004808D01*
X019705Y004650D02*
X019506Y004650D01*
X019348Y004491D02*
X019808Y004491D01*
X019400Y004174D02*
X019251Y004174D01*
X019189Y004333D02*
X021171Y004333D01*
X021220Y004283D02*
X021220Y004283D01*
X021329Y004174D02*
X020460Y004174D01*
X020460Y004016D02*
X020911Y004016D01*
X020771Y003857D02*
X020460Y003857D01*
X020460Y003699D02*
X020750Y003699D01*
X020829Y003540D02*
X020460Y003540D01*
X021199Y004016D02*
X021445Y004016D01*
X019486Y003223D02*
X019055Y003223D01*
X018805Y003223D02*
X018103Y003223D01*
X017950Y003223D02*
X017910Y003223D01*
X017757Y003223D02*
X017210Y003223D01*
X017316Y003382D02*
X017516Y003382D01*
X017910Y003382D02*
X017950Y003382D01*
X017950Y003540D02*
X017910Y003540D01*
X017910Y003699D02*
X017950Y003699D01*
X018344Y003382D02*
X018544Y003382D01*
X019316Y003382D02*
X019400Y003382D01*
X019392Y004016D02*
X019400Y004016D01*
X018638Y005125D02*
X014384Y005125D01*
X014463Y004967D02*
X015480Y004967D01*
X015321Y004808D02*
X014463Y004808D01*
X014416Y004650D02*
X015163Y004650D01*
X015004Y004491D02*
X014098Y004491D01*
X013939Y004333D02*
X014846Y004333D01*
X014609Y004174D02*
X011406Y004174D01*
X010754Y005125D02*
X009945Y005125D01*
X010114Y005284D02*
X010815Y005284D01*
X010656Y005442D02*
X010273Y005442D01*
X010450Y005601D02*
X010565Y005601D01*
X010565Y005759D02*
X010485Y005759D01*
X009921Y005918D02*
X009896Y005858D01*
X011750Y005759D02*
X012647Y005759D01*
X012627Y005284D02*
X012530Y005284D01*
X013437Y005442D02*
X013673Y005442D01*
X013671Y005601D02*
X013439Y005601D01*
X013439Y005759D02*
X013671Y005759D01*
X014021Y006076D02*
X016064Y006076D01*
X016009Y005918D02*
X014179Y005918D01*
X013750Y005125D02*
X013459Y005125D01*
X013459Y005284D02*
X016009Y005284D01*
X016657Y006393D02*
X017453Y006393D01*
X017348Y006552D02*
X016762Y006552D01*
X016762Y006710D02*
X017348Y006710D01*
X017408Y006869D02*
X016702Y006869D01*
X016762Y007027D02*
X017348Y007027D01*
X017348Y007186D02*
X016762Y007186D01*
X016660Y007344D02*
X017450Y007344D01*
X018720Y008612D02*
X015455Y008612D01*
X015485Y008771D02*
X018720Y008771D01*
X018720Y008929D02*
X015427Y008929D01*
X014590Y010039D02*
X018720Y010039D01*
X018720Y010197D02*
X018511Y010197D01*
X018530Y010356D02*
X018720Y010356D01*
X018720Y010514D02*
X018103Y010514D01*
X018007Y010514D02*
X016871Y010514D01*
X016713Y010356D02*
X017580Y010356D01*
X017599Y010197D02*
X014715Y010197D01*
X014299Y010197D02*
X014299Y010197D01*
X014299Y010039D02*
X014299Y010039D01*
X014008Y010039D02*
X013741Y010039D01*
X013741Y009880D02*
X018720Y009880D01*
X018720Y009722D02*
X013750Y009722D01*
X013750Y009563D02*
X018720Y009563D01*
X018720Y009405D02*
X013750Y009405D01*
X013750Y009246D02*
X018720Y009246D01*
X018720Y009088D02*
X013634Y009088D01*
X012534Y009897D02*
X010504Y009897D01*
X010517Y009910D01*
X010640Y010033D01*
X010640Y010359D01*
X010744Y010315D01*
X010866Y010315D01*
X010978Y010362D01*
X011055Y010439D01*
X011132Y010362D01*
X011244Y010315D01*
X011366Y010315D01*
X011478Y010362D01*
X011526Y010410D01*
X012293Y010410D01*
X012250Y010306D01*
X012250Y010185D01*
X012296Y010073D01*
X012382Y009987D01*
X012494Y009940D01*
X012534Y009940D01*
X012534Y009897D01*
X012330Y010039D02*
X010640Y010039D01*
X010640Y010197D02*
X012250Y010197D01*
X012271Y010356D02*
X011463Y010356D01*
X011147Y010356D02*
X010963Y010356D01*
X010647Y010356D02*
X010640Y010356D01*
X010052Y010039D02*
X007874Y010039D01*
X007931Y009880D02*
X009893Y009880D01*
X010170Y009563D02*
X010360Y009563D01*
X010360Y009405D02*
X010011Y009405D01*
X009853Y009246D02*
X010360Y009246D01*
X010565Y009088D02*
X009694Y009088D01*
X009536Y008929D02*
X010565Y008929D01*
X010565Y008771D02*
X009377Y008771D01*
X009219Y008612D02*
X010565Y008612D01*
X010565Y008454D02*
X009140Y008454D01*
X009140Y008295D02*
X010565Y008295D01*
X010565Y008137D02*
X009140Y008137D01*
X009140Y007978D02*
X010565Y007978D01*
X010565Y007820D02*
X009140Y007820D01*
X010328Y009722D02*
X010360Y009722D01*
X011437Y011830D02*
X011831Y012224D01*
X013903Y012224D01*
X013903Y012113D01*
X013903Y011985D01*
X013895Y011972D01*
X013883Y011926D01*
X013883Y011844D01*
X013975Y011844D01*
X013975Y011844D01*
X013975Y011844D01*
X013883Y011844D01*
X013883Y011762D01*
X013895Y011716D01*
X013903Y011702D01*
X013903Y011463D01*
X013884Y011463D01*
X013640Y011707D01*
X013517Y011830D01*
X011437Y011830D01*
X011548Y011941D02*
X013887Y011941D01*
X013883Y011782D02*
X013565Y011782D01*
X013723Y011624D02*
X013903Y011624D01*
X013903Y011465D02*
X013882Y011465D01*
X013903Y012099D02*
X011706Y012099D01*
X011773Y012733D02*
X013282Y012733D01*
X013250Y012892D02*
X011773Y012892D01*
X011773Y013050D02*
X013304Y013050D01*
X013806Y013050D02*
X013903Y013050D01*
X013903Y013209D02*
X011773Y013209D01*
X011773Y013367D02*
X013924Y013367D01*
X013747Y013684D02*
X014572Y013684D01*
X014414Y013526D02*
X011773Y013526D01*
X010959Y014477D02*
X009265Y014477D01*
X009265Y014635D02*
X010959Y014635D01*
X010825Y014794D02*
X009265Y014794D01*
X009265Y014952D02*
X010750Y014952D01*
X010773Y015111D02*
X009265Y015111D01*
X009265Y015269D02*
X010920Y015269D01*
X011250Y015428D02*
X009265Y015428D01*
X009265Y015586D02*
X011340Y015586D01*
X011770Y015586D02*
X012274Y015586D01*
X012116Y015428D02*
X011860Y015428D01*
X011843Y015269D02*
X011957Y015269D01*
X011799Y015111D02*
X011726Y015111D01*
X011640Y014952D02*
X011576Y014952D01*
X012234Y014952D02*
X013215Y014952D01*
X013057Y014794D02*
X012938Y014794D01*
X013374Y015111D02*
X012393Y015111D01*
X012551Y015269D02*
X015045Y015269D01*
X015315Y015269D02*
X016845Y015269D01*
X016845Y015111D02*
X015462Y015111D01*
X015485Y014952D02*
X016845Y014952D01*
X016845Y014794D02*
X015688Y014794D01*
X015735Y014635D02*
X016845Y014635D01*
X016845Y014477D02*
X015701Y014477D01*
X015498Y014318D02*
X016845Y014318D01*
X016845Y014160D02*
X013750Y014160D01*
X013750Y014001D02*
X016061Y014001D01*
X015955Y013843D02*
X015760Y013843D01*
X015913Y013684D02*
X015955Y013684D01*
X016382Y013684D02*
X016478Y013684D01*
X016478Y013843D02*
X016382Y013843D01*
X016382Y014001D02*
X016478Y014001D01*
X016799Y014001D02*
X016845Y014001D01*
X017265Y014002D02*
X017265Y014506D01*
X017267Y014498D01*
X017291Y014457D01*
X017324Y014423D01*
X017365Y014399D01*
X017411Y014387D01*
X017573Y014387D01*
X017650Y014387D01*
X017265Y014002D01*
X017265Y014160D02*
X017423Y014160D01*
X017265Y014318D02*
X017581Y014318D01*
X017573Y014387D02*
X017573Y014922D01*
X017573Y014922D01*
X017573Y015456D01*
X017734Y015456D01*
X017780Y015444D01*
X017793Y015436D01*
X018209Y015436D01*
X018209Y015919D01*
X018093Y016035D01*
X017392Y016035D01*
X017265Y015908D01*
X017265Y015337D01*
X017267Y015345D01*
X017291Y015386D01*
X017324Y015420D01*
X017365Y015444D01*
X017411Y015456D01*
X017573Y015456D01*
X017573Y014922D01*
X017573Y014922D01*
X017573Y014387D01*
X017573Y014477D02*
X017573Y014477D01*
X017573Y014635D02*
X017573Y014635D01*
X017573Y014794D02*
X017573Y014794D01*
X017573Y014952D02*
X017573Y014952D01*
X017573Y015111D02*
X017573Y015111D01*
X017573Y015269D02*
X017573Y015269D01*
X017573Y015428D02*
X017573Y015428D01*
X017338Y015428D02*
X017265Y015428D01*
X017265Y015586D02*
X018209Y015586D01*
X018209Y015745D02*
X017265Y015745D01*
X017265Y015903D02*
X018209Y015903D01*
X018775Y016854D02*
X016773Y016854D01*
X016780Y017013D02*
X018644Y017013D01*
X018582Y017171D02*
X016353Y017171D01*
X016257Y017171D02*
X015760Y017171D01*
X015760Y017013D02*
X015830Y017013D01*
X015837Y016854D02*
X015760Y016854D01*
X016257Y016854D02*
X016353Y016854D01*
X016353Y017013D02*
X016257Y017013D01*
X015830Y017330D02*
X015760Y017330D01*
X015755Y017488D02*
X015843Y017488D01*
X015850Y018122D02*
X015760Y018122D01*
X014850Y018122D02*
X004218Y018122D01*
X004258Y018281D02*
X017275Y018281D01*
X017275Y018439D02*
X003639Y018439D01*
X003639Y018281D02*
X003479Y018281D01*
X003479Y018122D02*
X003639Y018122D01*
X003639Y017964D02*
X003479Y017964D01*
X003479Y017805D02*
X003639Y017805D01*
X003142Y017805D02*
X002877Y017805D01*
X002954Y017013D02*
X003277Y017013D01*
X003479Y017013D02*
X003639Y017013D01*
X003639Y016854D02*
X003479Y016854D01*
X003479Y016696D02*
X003639Y016696D01*
X003639Y016220D02*
X003479Y016220D01*
X003479Y016062D02*
X003639Y016062D01*
X003639Y015903D02*
X003479Y015903D01*
X003479Y015745D02*
X003639Y015745D01*
X003892Y015745D02*
X008595Y015745D01*
X008595Y015903D02*
X004092Y015903D01*
X004196Y016062D02*
X008595Y016062D01*
X008595Y016220D02*
X004250Y016220D01*
X003050Y016854D02*
X002765Y016854D01*
X002765Y016696D02*
X002935Y016696D01*
X002875Y016537D02*
X002765Y016537D01*
X002693Y015586D02*
X008595Y015586D01*
X008595Y015428D02*
X007735Y015428D01*
X008315Y015269D02*
X008595Y015269D01*
X008595Y015111D02*
X008462Y015111D01*
X008485Y014952D02*
X008595Y014952D01*
X008595Y014794D02*
X008410Y014794D01*
X009265Y014318D02*
X010387Y014318D01*
X010360Y014160D02*
X009265Y014160D01*
X009265Y014001D02*
X010360Y014001D01*
X010360Y013843D02*
X009265Y013843D01*
X009265Y013684D02*
X010363Y013684D01*
X009811Y013367D02*
X009811Y013367D01*
X009265Y015745D02*
X012433Y015745D01*
X012591Y015903D02*
X009265Y015903D01*
X009265Y016062D02*
X012750Y016062D01*
X012908Y016220D02*
X009327Y016220D01*
X009486Y016379D02*
X013067Y016379D01*
X013225Y016537D02*
X009644Y016537D01*
X009803Y016696D02*
X010001Y016696D01*
X010917Y017805D02*
X011026Y017805D01*
X012589Y016854D02*
X012851Y016854D01*
X012707Y017013D02*
X012678Y017013D01*
X013160Y017013D02*
X013200Y017013D01*
X013200Y017171D02*
X013160Y017171D01*
X013160Y016854D02*
X013200Y016854D01*
X013661Y016379D02*
X017142Y016379D01*
X016983Y016220D02*
X013502Y016220D01*
X013344Y016062D02*
X016845Y016062D01*
X016845Y015903D02*
X013185Y015903D01*
X013027Y015745D02*
X016845Y015745D01*
X016845Y015586D02*
X012868Y015586D01*
X012710Y015428D02*
X016845Y015428D01*
X017265Y014477D02*
X017279Y014477D01*
X017858Y014001D02*
X018279Y014001D01*
X018296Y014043D02*
X018250Y013931D01*
X018250Y013810D01*
X018296Y013698D01*
X018382Y013612D01*
X018494Y013565D01*
X018616Y013565D01*
X018632Y013572D01*
X018625Y013556D01*
X018625Y013435D01*
X018671Y013323D01*
X018704Y013290D01*
X018510Y013290D01*
X018510Y013402D01*
X018417Y013496D01*
X017693Y013496D01*
X017600Y013402D01*
X017600Y012758D01*
X017612Y012745D01*
X017600Y012733D01*
X017600Y012089D01*
X017693Y011995D01*
X017845Y011995D01*
X017845Y011621D01*
X017693Y011621D01*
X017600Y011527D01*
X017600Y011455D01*
X017151Y011455D01*
X017103Y011504D01*
X016991Y011550D01*
X016922Y011550D01*
X016642Y011831D01*
X017062Y011831D01*
X017185Y011954D01*
X017392Y012160D01*
X017515Y012283D01*
X017515Y013658D01*
X018196Y014339D01*
X018196Y014407D01*
X018643Y014407D01*
X020375Y014407D01*
X020375Y014346D01*
X020143Y014346D01*
X020143Y013918D01*
X020047Y013918D01*
X020047Y013822D01*
X020143Y013822D01*
X020143Y013395D01*
X020375Y013395D01*
X020421Y013407D01*
X020439Y013418D01*
X020442Y013415D01*
X020555Y013415D01*
X020555Y012951D01*
X020442Y012951D01*
X020430Y012938D01*
X020418Y012951D01*
X019773Y012951D01*
X019679Y012857D01*
X019679Y012705D01*
X019515Y012705D01*
X019515Y013649D01*
X019564Y013698D01*
X019610Y013810D01*
X019610Y013931D01*
X019564Y014043D01*
X019478Y014129D01*
X019366Y014175D01*
X019244Y014175D01*
X019132Y014129D01*
X019084Y014080D01*
X018776Y014080D01*
X018728Y014129D01*
X018616Y014175D01*
X018494Y014175D01*
X018382Y014129D01*
X018296Y014043D01*
X018457Y014160D02*
X018017Y014160D01*
X018175Y014318D02*
X019744Y014318D01*
X019729Y014310D02*
X019695Y014276D01*
X019672Y014235D01*
X019659Y014189D01*
X019659Y013918D01*
X020047Y013918D01*
X020047Y014346D01*
X019816Y014346D01*
X019770Y014333D01*
X019729Y014310D01*
X019659Y014160D02*
X019403Y014160D01*
X019207Y014160D02*
X018653Y014160D01*
X018250Y013843D02*
X017700Y013843D01*
X017541Y013684D02*
X018310Y013684D01*
X018625Y013526D02*
X017515Y013526D01*
X017515Y013367D02*
X017600Y013367D01*
X017600Y013209D02*
X017515Y013209D01*
X017515Y013050D02*
X017600Y013050D01*
X017600Y012892D02*
X017515Y012892D01*
X017515Y012733D02*
X017600Y012733D01*
X017600Y012575D02*
X017515Y012575D01*
X017515Y012416D02*
X017600Y012416D01*
X017600Y012258D02*
X017490Y012258D01*
X017600Y012099D02*
X017331Y012099D01*
X017173Y011941D02*
X017845Y011941D01*
X017845Y011782D02*
X016690Y011782D01*
X016848Y011624D02*
X017845Y011624D01*
X017600Y011465D02*
X017141Y011465D01*
X017140Y010990D02*
X017600Y010990D01*
X017584Y010831D02*
X017140Y010831D01*
X017030Y010673D02*
X017580Y010673D01*
X018007Y010356D02*
X018103Y010356D01*
X018103Y010197D02*
X018007Y010197D01*
X018530Y010673D02*
X018696Y010673D01*
X018625Y010831D02*
X018526Y010831D01*
X018510Y010990D02*
X018649Y010990D01*
X018720Y011148D02*
X018510Y011148D01*
X018510Y011307D02*
X018720Y011307D01*
X018720Y011465D02*
X018510Y011465D01*
X018720Y011624D02*
X018265Y011624D01*
X018265Y011782D02*
X018720Y011782D01*
X018720Y011941D02*
X018265Y011941D01*
X018510Y012099D02*
X018720Y012099D01*
X018720Y012258D02*
X018510Y012258D01*
X018510Y012416D02*
X018720Y012416D01*
X018720Y012575D02*
X018510Y012575D01*
X018510Y012733D02*
X018720Y012733D01*
X018653Y013367D02*
X018510Y013367D01*
X019515Y013367D02*
X020555Y013367D01*
X020555Y013209D02*
X019515Y013209D01*
X019515Y013050D02*
X020555Y013050D01*
X020047Y013395D02*
X020047Y013822D01*
X019659Y013822D01*
X019659Y013551D01*
X019672Y013506D01*
X019695Y013465D01*
X019729Y013431D01*
X019770Y013407D01*
X019816Y013395D01*
X020047Y013395D01*
X020047Y013526D02*
X020143Y013526D01*
X020143Y013684D02*
X020047Y013684D01*
X020047Y013843D02*
X019610Y013843D01*
X019581Y014001D02*
X019659Y014001D01*
X019659Y013684D02*
X019550Y013684D01*
X019515Y013526D02*
X019666Y013526D01*
X020047Y014001D02*
X020143Y014001D01*
X020143Y014160D02*
X020047Y014160D01*
X020047Y014318D02*
X020143Y014318D01*
X019714Y012892D02*
X019515Y012892D01*
X019515Y012733D02*
X019679Y012733D01*
X019679Y012258D02*
X019515Y012258D01*
X019515Y012099D02*
X019714Y012099D01*
X019515Y011941D02*
X021470Y011941D01*
X021470Y012099D02*
X021146Y012099D01*
X021181Y012258D02*
X021370Y012258D01*
X021470Y011782D02*
X019515Y011782D01*
X019515Y011624D02*
X020122Y011624D01*
X020035Y010514D02*
X019515Y010514D01*
X019515Y010356D02*
X020035Y010356D01*
X020043Y010197D02*
X019515Y010197D01*
X019515Y010039D02*
X020055Y010039D01*
X020055Y009880D02*
X019515Y009880D01*
X019515Y009722D02*
X020055Y009722D01*
X019515Y008929D02*
X020842Y008929D01*
X020698Y008771D02*
X019515Y008771D01*
X019515Y008612D02*
X020698Y008612D01*
X020541Y008454D02*
X019515Y008454D01*
X019515Y008295D02*
X020531Y008295D01*
X020531Y008137D02*
X019515Y008137D01*
X019515Y007978D02*
X020558Y007978D01*
X020531Y007820D02*
X019515Y007820D01*
X019515Y007661D02*
X020531Y007661D01*
X020574Y007503D02*
X019515Y007503D01*
X019515Y006710D02*
X019541Y006710D01*
X016438Y010676D02*
X014695Y010676D01*
X014695Y011437D01*
X016441Y011437D01*
X016625Y011253D01*
X016625Y011185D01*
X016671Y011073D01*
X016720Y011024D01*
X016720Y010957D01*
X016438Y010676D01*
X016594Y010831D02*
X014695Y010831D01*
X014695Y010990D02*
X016720Y010990D01*
X016640Y011148D02*
X014695Y011148D01*
X014695Y011307D02*
X016571Y011307D01*
X013883Y010197D02*
X013804Y010197D01*
X013750Y013843D02*
X014850Y013843D01*
X015362Y014318D02*
X013723Y014318D01*
X014359Y016696D02*
X021440Y016696D01*
X021440Y016854D02*
X019085Y016854D01*
X019216Y017013D02*
X021440Y017013D01*
X021440Y017171D02*
X019235Y017171D01*
X019209Y017330D02*
X019152Y017330D01*
X019401Y017330D02*
X021440Y017330D01*
X021440Y017488D02*
X019580Y017488D01*
X019610Y017647D02*
X021440Y017647D01*
X021440Y018122D02*
X020975Y018122D01*
X020998Y018281D02*
X020998Y018281D01*
X020998Y018439D02*
X020998Y018439D01*
X020998Y018598D02*
X020998Y018598D01*
X020998Y018756D02*
X020998Y018756D01*
X020998Y018915D02*
X020998Y018915D01*
X020998Y019073D02*
X020998Y019073D01*
X021307Y019073D02*
X021440Y019073D01*
X021440Y018915D02*
X021316Y018915D01*
X021316Y018756D02*
X021440Y018756D01*
X021440Y018598D02*
X021316Y018598D01*
X021316Y018439D02*
X021440Y018439D01*
X021440Y018281D02*
X021315Y018281D01*
X020698Y017805D02*
X019551Y017805D01*
X019008Y017964D02*
X020539Y017964D01*
X020381Y018122D02*
X018850Y018122D01*
X018265Y017488D02*
X016767Y017488D01*
X016780Y017330D02*
X018423Y017330D01*
X018106Y017647D02*
X016760Y017647D01*
X016760Y017805D02*
X017948Y017805D01*
X017789Y017964D02*
X016760Y017964D01*
X016760Y018122D02*
X017776Y018122D01*
X017275Y018598D02*
X004229Y018598D01*
X004152Y018756D02*
X017275Y018756D01*
X017275Y018915D02*
X004012Y018915D01*
X003650Y019073D02*
X017275Y019073D01*
X014850Y016854D02*
X014589Y016854D01*
X020151Y018281D02*
X020151Y018281D01*
X020151Y018439D02*
X020151Y018439D01*
X020151Y018598D02*
X020151Y018598D01*
X020151Y018662D02*
X020151Y018662D01*
X020151Y018756D02*
X020151Y018756D01*
X020151Y018915D02*
X020151Y018915D01*
X020151Y019073D02*
X020151Y019073D01*
X021440Y019232D02*
X000660Y019232D01*
X000660Y019390D02*
X021440Y019390D01*
X021440Y019549D02*
X000660Y019549D01*
X007140Y010831D02*
X007719Y010831D01*
X007561Y010673D02*
X007140Y010673D01*
X007140Y010514D02*
X007402Y010514D01*
X007345Y010356D02*
X007140Y010356D01*
X007140Y010197D02*
X007345Y010197D01*
X005563Y010039D02*
X005467Y010039D01*
X005467Y009880D02*
X005563Y009880D01*
X005563Y009722D02*
X005467Y009722D01*
X005467Y009563D02*
X005563Y009563D01*
X005563Y009405D02*
X005467Y009405D01*
X005467Y009246D02*
X005563Y009246D01*
X003440Y006869D02*
X003349Y006869D01*
X003350Y006710D02*
X003440Y006710D01*
X003440Y006552D02*
X003350Y006552D01*
X001620Y006076D02*
X000660Y006076D01*
X000660Y005918D02*
X001620Y005918D01*
X005210Y006235D02*
X005397Y006235D01*
X005375Y006076D02*
X005245Y006076D01*
X005403Y005918D02*
X005451Y005918D01*
X005562Y005759D02*
X006429Y005759D01*
X006429Y006393D02*
X005818Y006393D01*
X005542Y006393D02*
X005210Y006393D01*
X005210Y006552D02*
X006499Y006552D01*
X013439Y004967D02*
X013671Y004967D01*
X013671Y004808D02*
X013439Y004808D01*
D37*
X012430Y004995D03*
X012180Y005495D03*
X011680Y005120D03*
X011305Y004620D03*
X010930Y004870D03*
X010555Y004620D03*
X010180Y005745D03*
X011555Y005995D03*
X014055Y006870D03*
X015180Y008745D03*
X015805Y009120D03*
X015805Y010995D03*
X016930Y011245D03*
X017430Y011745D03*
X018930Y010870D03*
X019680Y010870D03*
X019805Y009120D03*
X021180Y009120D03*
X022430Y007820D03*
X022430Y006245D03*
X022805Y005870D03*
X022805Y004120D03*
X021055Y003745D03*
X019805Y001620D03*
X019805Y006245D03*
X019805Y006870D03*
X018930Y006870D03*
X018305Y007870D03*
X018180Y009120D03*
X013430Y010745D03*
X013055Y011120D03*
X013055Y011995D03*
X013555Y012870D03*
X012305Y012995D03*
X012680Y014620D03*
X011555Y015370D03*
X011055Y014995D03*
X010180Y016120D03*
X008180Y014995D03*
X008055Y013120D03*
X008305Y012495D03*
X008555Y011995D03*
X008555Y011370D03*
X008555Y010245D03*
X010805Y010620D03*
X011305Y010620D03*
X011805Y010245D03*
X012555Y010245D03*
X012055Y010995D03*
X015930Y014245D03*
X015430Y014620D03*
X015180Y014995D03*
X016180Y016120D03*
X017680Y015745D03*
X018930Y017120D03*
X019305Y017620D03*
X020430Y017495D03*
X020430Y015745D03*
X019305Y013870D03*
X018930Y013495D03*
X018555Y013870D03*
X019805Y013245D03*
X022430Y013245D03*
X017680Y017495D03*
X016305Y018995D03*
X004305Y014120D03*
X002055Y013120D03*
X004180Y007745D03*
X005680Y006120D03*
X006555Y004495D03*
X006930Y003495D03*
X006555Y001620D03*
X001055Y004620D03*
X008430Y006870D03*
X013805Y002370D03*
X013805Y001620D03*
D38*
X013805Y002370D02*
X016555Y002370D01*
X016930Y002745D01*
X016930Y003745D01*
X016287Y006870D02*
X015805Y006870D01*
X015805Y007620D01*
X016055Y007870D01*
X018305Y007870D01*
X015805Y006870D02*
X014055Y006870D01*
X010180Y005745D02*
X009805Y005370D01*
X005555Y005370D01*
X004930Y005995D01*
X004930Y009536D01*
X004845Y009620D01*
X004720Y009745D01*
X001180Y009745D01*
X001180Y006620D01*
X001430Y006370D01*
X001740Y006370D01*
X002020Y006400D01*
X002036Y006384D01*
X002036Y003577D01*
X003840Y005960D02*
X005180Y004620D01*
X005180Y003455D01*
X006180Y003455D01*
X006220Y003495D01*
X006930Y003495D01*
X003840Y005960D02*
X003840Y006400D01*
X003840Y007405D01*
X004180Y007745D01*
X001180Y009745D02*
X001180Y010870D01*
X001180Y011870D01*
X001680Y012370D01*
X006305Y012370D01*
X007390Y013455D01*
X007390Y014995D01*
X008180Y014995D01*
M02*
