G75*
%MOIN*%
%OFA0B0*%
%FSLAX24Y24*%
%IPPOS*%
%LPD*%
%AMOC8*
5,1,8,0,0,1.08239X$1,22.5*
%
%ADD10C,0.0000*%
%ADD11C,0.0030*%
%ADD12C,0.0020*%
%ADD13C,0.0080*%
%ADD14C,0.0039*%
%ADD15C,0.0050*%
%ADD16C,0.0472*%
%ADD17C,0.0060*%
%ADD18C,0.0040*%
%ADD19R,0.0079X0.0079*%
%ADD20R,0.0098X0.0059*%
D10*
X000100Y001125D02*
X000100Y026495D01*
X023842Y026495D01*
X023842Y001125D01*
X000100Y001125D01*
D11*
X004740Y001938D02*
X004788Y001890D01*
X004885Y001890D01*
X004933Y001938D01*
X004933Y001987D01*
X004885Y002035D01*
X004837Y002035D01*
X004885Y002035D02*
X004933Y002083D01*
X004933Y002132D01*
X004885Y002180D01*
X004788Y002180D01*
X004740Y002132D01*
X005035Y001938D02*
X005083Y001938D01*
X005083Y001890D01*
X005035Y001890D01*
X005035Y001938D01*
X005182Y001938D02*
X005182Y001890D01*
X005182Y001938D02*
X005375Y002132D01*
X005375Y002180D01*
X005182Y002180D01*
X005477Y002180D02*
X005477Y001987D01*
X005573Y001890D01*
X005670Y001987D01*
X005670Y002180D01*
X017990Y004015D02*
X018087Y004015D01*
X018038Y004015D02*
X018038Y004305D01*
X017990Y004305D02*
X018087Y004305D01*
X018186Y004208D02*
X018332Y004208D01*
X018380Y004160D01*
X018380Y004015D01*
X018529Y004063D02*
X018578Y004015D01*
X018529Y004063D02*
X018529Y004257D01*
X018481Y004208D02*
X018578Y004208D01*
X018678Y004160D02*
X018726Y004208D01*
X018823Y004208D01*
X018871Y004160D01*
X018871Y004112D01*
X018678Y004112D01*
X018678Y004160D02*
X018678Y004063D01*
X018726Y004015D01*
X018823Y004015D01*
X018972Y004015D02*
X018972Y004208D01*
X018972Y004112D02*
X019069Y004208D01*
X019117Y004208D01*
X019218Y004160D02*
X019314Y004160D01*
X019266Y004257D02*
X019266Y004015D01*
X019414Y004063D02*
X019463Y004112D01*
X019608Y004112D01*
X019608Y004160D02*
X019608Y004015D01*
X019463Y004015D01*
X019414Y004063D01*
X019463Y004208D02*
X019559Y004208D01*
X019608Y004160D01*
X019709Y004160D02*
X019709Y004063D01*
X019757Y004015D01*
X019902Y004015D01*
X020003Y004015D02*
X020100Y004015D01*
X020052Y004015D02*
X020052Y004208D01*
X020003Y004208D01*
X019902Y004208D02*
X019757Y004208D01*
X019709Y004160D01*
X020052Y004305D02*
X020052Y004354D01*
X020200Y004208D02*
X020345Y004208D01*
X020393Y004160D01*
X020393Y004015D01*
X020495Y004063D02*
X020543Y004015D01*
X020688Y004015D01*
X020688Y003967D02*
X020688Y004208D01*
X020543Y004208D01*
X020495Y004160D01*
X020495Y004063D01*
X020591Y003918D02*
X020640Y003918D01*
X020688Y003967D01*
X020200Y004015D02*
X020200Y004208D01*
X021084Y004112D02*
X021229Y004112D01*
X021277Y004160D01*
X021277Y004257D01*
X021229Y004305D01*
X021084Y004305D01*
X021084Y004015D01*
X021378Y004063D02*
X021427Y004015D01*
X021524Y004015D01*
X021572Y004063D01*
X021572Y004160D01*
X021524Y004208D01*
X021427Y004208D01*
X021378Y004160D01*
X021378Y004063D01*
X021673Y004015D02*
X021673Y004208D01*
X021673Y004112D02*
X021770Y004208D01*
X021818Y004208D01*
X021919Y004208D02*
X022015Y004208D01*
X021967Y004257D02*
X021967Y004063D01*
X022015Y004015D01*
X019314Y004305D02*
X019266Y004257D01*
X018186Y004208D02*
X018186Y004015D01*
X005255Y024140D02*
X005255Y024285D01*
X005207Y024333D01*
X005158Y024285D01*
X005158Y024140D01*
X005062Y024140D02*
X005062Y024333D01*
X005110Y024333D01*
X005158Y024285D01*
X004960Y024285D02*
X004912Y024333D01*
X004815Y024333D01*
X004767Y024285D01*
X004767Y024188D01*
X004815Y024140D01*
X004912Y024140D01*
X004960Y024188D01*
X004960Y024285D01*
X004666Y024333D02*
X004521Y024333D01*
X004472Y024285D01*
X004472Y024188D01*
X004521Y024140D01*
X004666Y024140D01*
X004373Y024140D02*
X004325Y024140D01*
X004325Y024188D01*
X004373Y024188D01*
X004373Y024140D01*
X004224Y024188D02*
X004175Y024237D01*
X004079Y024237D01*
X004030Y024285D01*
X004079Y024333D01*
X004224Y024333D01*
X004224Y024188D02*
X004175Y024140D01*
X004030Y024140D01*
X003929Y024140D02*
X003784Y024140D01*
X003736Y024188D01*
X003736Y024285D01*
X003784Y024333D01*
X003929Y024333D01*
X003929Y024430D02*
X003929Y024140D01*
X003634Y024285D02*
X003441Y024285D01*
X003340Y024285D02*
X003340Y024140D01*
X003243Y024140D02*
X003243Y024285D01*
X003291Y024333D01*
X003340Y024285D01*
X003243Y024285D02*
X003195Y024333D01*
X003146Y024333D01*
X003146Y024140D01*
X003045Y024188D02*
X003045Y024285D01*
X002997Y024333D01*
X002900Y024333D01*
X002852Y024285D01*
X002852Y024188D01*
X002900Y024140D01*
X002997Y024140D01*
X003045Y024188D01*
X002752Y024140D02*
X002704Y024188D01*
X002704Y024382D01*
X002752Y024333D02*
X002655Y024333D01*
X002554Y024333D02*
X002409Y024333D01*
X002361Y024285D01*
X002409Y024237D01*
X002506Y024237D01*
X002554Y024188D01*
X002506Y024140D01*
X002361Y024140D01*
X002259Y024140D02*
X002259Y024333D01*
X002259Y024140D02*
X002114Y024140D01*
X002066Y024188D01*
X002066Y024333D01*
X001965Y024333D02*
X001820Y024333D01*
X001771Y024285D01*
X001771Y024188D01*
X001820Y024140D01*
X001965Y024140D01*
X001672Y024140D02*
X001624Y024140D01*
X001624Y024188D01*
X001672Y024188D01*
X001672Y024140D01*
X001523Y024188D02*
X001523Y024333D01*
X001523Y024188D02*
X001474Y024140D01*
X001426Y024188D01*
X001378Y024140D01*
X001329Y024188D01*
X001329Y024333D01*
X001228Y024333D02*
X001228Y024188D01*
X001180Y024140D01*
X001131Y024188D01*
X001083Y024140D01*
X001035Y024188D01*
X001035Y024333D01*
X000933Y024333D02*
X000933Y024188D01*
X000885Y024140D01*
X000837Y024188D01*
X000788Y024140D01*
X000740Y024188D01*
X000740Y024333D01*
X001329Y024668D02*
X001378Y024620D01*
X001474Y024620D01*
X001523Y024668D01*
X001523Y024717D01*
X001474Y024765D01*
X001378Y024765D01*
X001329Y024813D01*
X001329Y024862D01*
X001378Y024910D01*
X001474Y024910D01*
X001523Y024862D01*
X001624Y024765D02*
X001672Y024813D01*
X001769Y024813D01*
X001817Y024765D01*
X001817Y024717D01*
X001624Y024717D01*
X001624Y024765D02*
X001624Y024668D01*
X001672Y024620D01*
X001769Y024620D01*
X001919Y024620D02*
X001919Y024813D01*
X001919Y024717D02*
X002015Y024813D01*
X002064Y024813D01*
X002164Y024813D02*
X002261Y024620D01*
X002358Y024813D01*
X002459Y024813D02*
X002507Y024813D01*
X002507Y024620D01*
X002459Y024620D02*
X002556Y024620D01*
X002655Y024668D02*
X002704Y024620D01*
X002849Y024620D01*
X002950Y024668D02*
X002950Y024765D01*
X002998Y024813D01*
X003095Y024813D01*
X003143Y024765D01*
X003143Y024717D01*
X002950Y024717D01*
X002950Y024668D02*
X002998Y024620D01*
X003095Y024620D01*
X003245Y024620D02*
X003390Y024620D01*
X003438Y024668D01*
X003390Y024717D01*
X003293Y024717D01*
X003245Y024765D01*
X003293Y024813D01*
X003438Y024813D01*
X003588Y024668D02*
X003588Y024620D01*
X003636Y024620D01*
X003636Y024668D01*
X003588Y024668D01*
X003636Y024620D02*
X003539Y024523D01*
X004030Y024620D02*
X004224Y024620D01*
X004325Y024620D02*
X004518Y024620D01*
X004620Y024668D02*
X004668Y024620D01*
X004765Y024620D01*
X004813Y024668D01*
X004620Y024668D02*
X004620Y024862D01*
X004668Y024910D01*
X004765Y024910D01*
X004813Y024862D01*
X004325Y024910D02*
X004325Y024620D01*
X004030Y024620D02*
X004030Y024910D01*
X004076Y025100D02*
X003931Y025100D01*
X003883Y025148D01*
X003931Y025197D01*
X004076Y025197D01*
X004076Y025245D02*
X004076Y025100D01*
X004178Y025100D02*
X004274Y025100D01*
X004226Y025100D02*
X004226Y025390D01*
X004178Y025390D01*
X004076Y025245D02*
X004028Y025293D01*
X003931Y025293D01*
X003783Y025293D02*
X003687Y025293D01*
X003735Y025342D02*
X003735Y025148D01*
X003783Y025100D01*
X003587Y025100D02*
X003490Y025100D01*
X003538Y025100D02*
X003538Y025293D01*
X003490Y025293D01*
X003389Y025293D02*
X003244Y025293D01*
X003195Y025245D01*
X003195Y025148D01*
X003244Y025100D01*
X003389Y025100D01*
X003389Y025052D02*
X003389Y025293D01*
X003538Y025390D02*
X003538Y025439D01*
X003488Y025580D02*
X003391Y025580D01*
X003343Y025628D01*
X003536Y025822D01*
X003536Y025628D01*
X003488Y025580D01*
X003343Y025628D02*
X003343Y025822D01*
X003391Y025870D01*
X003488Y025870D01*
X003536Y025822D01*
X003637Y025822D02*
X003637Y025628D01*
X003831Y025822D01*
X003831Y025628D01*
X003783Y025580D01*
X003686Y025580D01*
X003637Y025628D01*
X003637Y025822D02*
X003686Y025870D01*
X003783Y025870D01*
X003831Y025822D01*
X003244Y025628D02*
X003244Y025580D01*
X003195Y025580D01*
X003195Y025628D01*
X003244Y025628D01*
X003094Y025580D02*
X002901Y025580D01*
X002998Y025580D02*
X002998Y025870D01*
X002901Y025773D01*
X002800Y025773D02*
X002703Y025580D01*
X002606Y025773D01*
X002704Y025390D02*
X002849Y025390D01*
X002898Y025342D01*
X002898Y025148D01*
X002849Y025100D01*
X002704Y025100D01*
X002704Y025390D01*
X002999Y025293D02*
X003047Y025293D01*
X003047Y025100D01*
X002999Y025100D02*
X003096Y025100D01*
X003292Y025003D02*
X003341Y025003D01*
X003389Y025052D01*
X003047Y025390D02*
X003047Y025439D01*
X002849Y024813D02*
X002704Y024813D01*
X002655Y024765D01*
X002655Y024668D01*
X002507Y024910D02*
X002507Y024959D01*
X002309Y025100D02*
X002309Y025245D01*
X002260Y025293D01*
X002212Y025245D01*
X002212Y025100D01*
X002115Y025100D02*
X002115Y025293D01*
X002163Y025293D01*
X002212Y025245D01*
X002014Y025245D02*
X001966Y025293D01*
X001869Y025293D01*
X001820Y025245D01*
X001820Y025148D01*
X001869Y025100D01*
X001966Y025100D01*
X002014Y025148D01*
X002014Y025245D01*
X001721Y025293D02*
X001624Y025293D01*
X001672Y025342D02*
X001672Y025148D01*
X001721Y025100D01*
X001523Y025148D02*
X001474Y025197D01*
X001378Y025197D01*
X001329Y025245D01*
X001378Y025293D01*
X001523Y025293D01*
X001523Y025148D02*
X001474Y025100D01*
X001329Y025100D01*
X001228Y025100D02*
X001228Y025293D01*
X001228Y025100D02*
X001083Y025100D01*
X001035Y025148D01*
X001035Y025293D01*
X000933Y025342D02*
X000885Y025390D01*
X000788Y025390D01*
X000740Y025342D01*
X000740Y025148D01*
X000788Y025100D01*
X000885Y025100D01*
X000933Y025148D01*
X000740Y025580D02*
X000740Y025870D01*
X000885Y025870D01*
X000933Y025822D01*
X000933Y025725D01*
X000885Y025677D01*
X000740Y025677D01*
X001035Y025870D02*
X001228Y025870D01*
X001131Y025870D02*
X001131Y025580D01*
X001329Y025580D02*
X001329Y025870D01*
X001426Y025773D01*
X001523Y025870D01*
X001523Y025580D01*
X001624Y025580D02*
X001721Y025580D01*
X001672Y025580D02*
X001672Y025773D01*
X001624Y025773D01*
X001672Y025870D02*
X001672Y025919D01*
X001820Y025773D02*
X001966Y025773D01*
X002014Y025725D01*
X002014Y025580D01*
X002115Y025580D02*
X002212Y025580D01*
X002163Y025580D02*
X002163Y025773D01*
X002115Y025773D01*
X002163Y025870D02*
X002163Y025919D01*
X001820Y025773D02*
X001820Y025580D01*
D12*
X001924Y019990D02*
X001998Y019917D01*
X001998Y019770D01*
X002072Y019770D02*
X002072Y019990D01*
X002219Y019770D01*
X002219Y019990D01*
X002293Y019990D02*
X002440Y019990D01*
X002366Y019990D02*
X002366Y019770D01*
X002514Y019770D02*
X002661Y019917D01*
X002661Y019953D01*
X002624Y019990D01*
X002551Y019990D01*
X002514Y019953D01*
X002514Y019770D02*
X002661Y019770D01*
X003060Y019555D02*
X003060Y019335D01*
X003207Y019335D01*
X003281Y019335D02*
X003428Y019482D01*
X003428Y019518D01*
X003391Y019555D01*
X003318Y019555D01*
X003281Y019518D01*
X003281Y019335D02*
X003428Y019335D01*
X004643Y019178D02*
X004643Y019032D01*
X004680Y018995D01*
X004753Y018995D01*
X004790Y019032D01*
X004864Y019032D02*
X004864Y018995D01*
X004864Y019032D02*
X005011Y019178D01*
X005011Y019215D01*
X004864Y019215D01*
X004790Y019178D02*
X004753Y019215D01*
X004680Y019215D01*
X004643Y019178D01*
X001998Y019880D02*
X001851Y019880D01*
X001851Y019917D02*
X001924Y019990D01*
X001851Y019917D02*
X001851Y019770D01*
X000980Y019249D02*
X000980Y019176D01*
X000943Y019139D01*
X000907Y019139D01*
X000870Y019176D01*
X000870Y019249D01*
X000907Y019286D01*
X000943Y019286D01*
X000980Y019249D01*
X000870Y019249D02*
X000833Y019286D01*
X000797Y019286D01*
X000760Y019249D01*
X000760Y019176D01*
X000797Y019139D01*
X000833Y019139D01*
X000870Y019176D01*
X000943Y019065D02*
X000980Y019028D01*
X000980Y018955D01*
X000943Y018918D01*
X000797Y018918D01*
X000760Y018955D01*
X000760Y019028D01*
X000797Y019065D01*
X000797Y018036D02*
X000760Y017999D01*
X000760Y017926D01*
X000797Y017889D01*
X000833Y017889D01*
X000870Y017926D01*
X000870Y018036D01*
X000943Y018036D02*
X000797Y018036D01*
X000943Y018036D02*
X000980Y017999D01*
X000980Y017926D01*
X000943Y017889D01*
X000943Y017815D02*
X000980Y017778D01*
X000980Y017705D01*
X000943Y017668D01*
X000797Y017668D01*
X000760Y017705D01*
X000760Y017778D01*
X000797Y017815D01*
X000797Y016911D02*
X000943Y016764D01*
X000980Y016801D01*
X000980Y016874D01*
X000943Y016911D01*
X000797Y016911D01*
X000760Y016874D01*
X000760Y016801D01*
X000797Y016764D01*
X000943Y016764D01*
X000980Y016690D02*
X000980Y016543D01*
X000980Y016616D02*
X000760Y016616D01*
X000833Y016543D01*
X000797Y016469D02*
X000760Y016432D01*
X000760Y016359D01*
X000797Y016322D01*
X000943Y016322D01*
X000980Y016359D01*
X000980Y016432D01*
X000943Y016469D01*
X003060Y016430D02*
X003060Y016210D01*
X003207Y016210D01*
X003281Y016210D02*
X003428Y016210D01*
X003354Y016210D02*
X003354Y016430D01*
X003281Y016357D01*
X003179Y013005D02*
X003179Y012785D01*
X003106Y012785D02*
X003253Y012785D01*
X003106Y012932D02*
X003179Y013005D01*
X003032Y012968D02*
X002995Y013005D01*
X002922Y013005D01*
X002885Y012968D01*
X002885Y012822D01*
X002922Y012785D01*
X002995Y012785D01*
X003032Y012822D01*
X003968Y012818D02*
X004078Y012818D01*
X004115Y012855D01*
X004115Y012928D01*
X004078Y012965D01*
X003968Y012965D01*
X003968Y012745D01*
X004041Y012818D02*
X004115Y012745D01*
X004189Y012855D02*
X004336Y012855D01*
X004299Y012745D02*
X004299Y012965D01*
X004189Y012855D01*
X004797Y011005D02*
X004760Y010968D01*
X004760Y010822D01*
X004797Y010785D01*
X004870Y010785D01*
X004907Y010822D01*
X004981Y010785D02*
X005128Y010785D01*
X005054Y010785D02*
X005054Y011005D01*
X004981Y010932D01*
X004907Y010968D02*
X004870Y011005D01*
X004797Y011005D01*
X005202Y011005D02*
X005349Y011005D01*
X005349Y010968D01*
X005202Y010822D01*
X005202Y010785D01*
X006010Y009536D02*
X006047Y009462D01*
X006120Y009389D01*
X006120Y009499D01*
X006157Y009536D01*
X006193Y009536D01*
X006230Y009499D01*
X006230Y009426D01*
X006193Y009389D01*
X006120Y009389D01*
X006193Y009315D02*
X006230Y009278D01*
X006230Y009205D01*
X006193Y009168D01*
X006047Y009168D01*
X006010Y009205D01*
X006010Y009278D01*
X006047Y009315D01*
X006047Y008486D02*
X006010Y008449D01*
X006010Y008376D01*
X006047Y008339D01*
X006047Y008265D02*
X006120Y008265D01*
X006157Y008228D01*
X006157Y008118D01*
X006230Y008118D02*
X006010Y008118D01*
X006010Y008228D01*
X006047Y008265D01*
X006157Y008191D02*
X006230Y008265D01*
X006230Y008339D02*
X006083Y008486D01*
X006047Y008486D01*
X006230Y008486D02*
X006230Y008339D01*
X006930Y007590D02*
X006893Y007553D01*
X006893Y007407D01*
X006930Y007370D01*
X007003Y007370D01*
X007040Y007407D01*
X007114Y007407D02*
X007151Y007370D01*
X007224Y007370D01*
X007261Y007407D01*
X007261Y007480D01*
X007224Y007517D01*
X007187Y007517D01*
X007114Y007480D01*
X007114Y007590D01*
X007261Y007590D01*
X007040Y007553D02*
X007003Y007590D01*
X006930Y007590D01*
X005422Y005686D02*
X005422Y005466D01*
X005349Y005466D02*
X005495Y005466D01*
X005349Y005613D02*
X005422Y005686D01*
X005201Y005686D02*
X005201Y005466D01*
X005128Y005466D02*
X005274Y005466D01*
X005128Y005613D02*
X005201Y005686D01*
X005053Y005649D02*
X005017Y005686D01*
X004943Y005686D01*
X004907Y005649D01*
X004907Y005503D01*
X004943Y005466D01*
X005017Y005466D01*
X005053Y005503D01*
X001161Y005145D02*
X001014Y005145D01*
X001087Y005145D02*
X001087Y005365D01*
X001014Y005292D01*
X000940Y005365D02*
X000866Y005365D01*
X000903Y005365D02*
X000903Y005182D01*
X000866Y005145D01*
X000830Y005145D01*
X000793Y005182D01*
X001272Y009780D02*
X001345Y009780D01*
X001382Y009817D01*
X001382Y010000D01*
X001456Y009927D02*
X001529Y010000D01*
X001529Y009780D01*
X001456Y009780D02*
X001603Y009780D01*
X001272Y009780D02*
X001235Y009817D01*
X001235Y010000D01*
X001810Y012785D02*
X001810Y013005D01*
X001920Y013005D01*
X001957Y012968D01*
X001957Y012895D01*
X001920Y012858D01*
X001810Y012858D01*
X001883Y012858D02*
X001957Y012785D01*
X002031Y012822D02*
X002068Y012785D01*
X002141Y012785D01*
X002178Y012822D01*
X002178Y012858D01*
X002141Y012895D01*
X002104Y012895D01*
X002141Y012895D02*
X002178Y012932D01*
X002178Y012968D01*
X002141Y013005D01*
X002068Y013005D01*
X002031Y012968D01*
X006810Y011005D02*
X006810Y010785D01*
X006810Y010858D02*
X006920Y010858D01*
X006957Y010895D01*
X006957Y010968D01*
X006920Y011005D01*
X006810Y011005D01*
X006883Y010858D02*
X006957Y010785D01*
X007031Y010785D02*
X007178Y010785D01*
X007104Y010785D02*
X007104Y011005D01*
X007031Y010932D01*
X011360Y008237D02*
X011580Y008237D01*
X011580Y008164D02*
X011580Y008311D01*
X011433Y008164D02*
X011360Y008237D01*
X011397Y008090D02*
X011360Y008053D01*
X011360Y007943D01*
X011580Y007943D01*
X011580Y008053D01*
X011543Y008090D01*
X011397Y008090D01*
X011360Y007869D02*
X011360Y007722D01*
X011580Y007722D01*
X011580Y007869D01*
X011470Y007795D02*
X011470Y007722D01*
X011580Y007648D02*
X011580Y007501D01*
X011360Y007501D01*
X013610Y007501D02*
X013830Y007501D01*
X013830Y007648D01*
X013830Y007722D02*
X013610Y007722D01*
X013610Y007869D01*
X013610Y007943D02*
X013610Y008053D01*
X013647Y008090D01*
X013793Y008090D01*
X013830Y008053D01*
X013830Y007943D01*
X013610Y007943D01*
X013720Y007795D02*
X013720Y007722D01*
X013830Y007722D02*
X013830Y007869D01*
X013830Y008164D02*
X013683Y008311D01*
X013647Y008311D01*
X013610Y008274D01*
X013610Y008201D01*
X013647Y008164D01*
X013830Y008164D02*
X013830Y008311D01*
X015918Y009557D02*
X015955Y009520D01*
X016028Y009520D01*
X016065Y009557D01*
X016065Y009740D01*
X016139Y009703D02*
X016176Y009740D01*
X016249Y009740D01*
X016286Y009703D01*
X016286Y009667D01*
X016139Y009520D01*
X016286Y009520D01*
X015918Y009557D02*
X015918Y009740D01*
X016643Y009390D02*
X016643Y009170D01*
X016753Y009170D01*
X016790Y009207D01*
X016790Y009353D01*
X016753Y009390D01*
X016643Y009390D01*
X016864Y009353D02*
X016901Y009390D01*
X016974Y009390D01*
X017011Y009353D01*
X017011Y009317D01*
X016864Y009170D01*
X017011Y009170D01*
X017709Y012495D02*
X017782Y012495D01*
X017819Y012532D01*
X017893Y012495D02*
X018040Y012495D01*
X017966Y012495D02*
X017966Y012715D01*
X017893Y012642D01*
X017819Y012678D02*
X017782Y012715D01*
X017709Y012715D01*
X017672Y012678D01*
X017672Y012532D01*
X017709Y012495D01*
X018114Y012532D02*
X018151Y012495D01*
X018224Y012495D01*
X018261Y012532D01*
X018261Y012568D01*
X018224Y012605D01*
X018187Y012605D01*
X018224Y012605D02*
X018261Y012642D01*
X018261Y012678D01*
X018224Y012715D01*
X018151Y012715D01*
X018114Y012678D01*
X016940Y014210D02*
X016720Y014210D01*
X016720Y014320D01*
X016757Y014357D01*
X016830Y014357D01*
X016867Y014320D01*
X016867Y014210D01*
X016867Y014283D02*
X016940Y014357D01*
X016903Y014431D02*
X016867Y014431D01*
X016830Y014468D01*
X016830Y014541D01*
X016867Y014578D01*
X016903Y014578D01*
X016940Y014541D01*
X016940Y014468D01*
X016903Y014431D01*
X016830Y014468D02*
X016793Y014431D01*
X016757Y014431D01*
X016720Y014468D01*
X016720Y014541D01*
X016757Y014578D01*
X016793Y014578D01*
X016830Y014541D01*
X016903Y015910D02*
X016940Y015947D01*
X016940Y016020D01*
X016903Y016057D01*
X016940Y016131D02*
X016940Y016278D01*
X016940Y016204D02*
X016720Y016204D01*
X016793Y016131D01*
X016757Y016057D02*
X016720Y016020D01*
X016720Y015947D01*
X016757Y015910D01*
X016903Y015910D01*
X016830Y016352D02*
X016830Y016499D01*
X016940Y016462D02*
X016720Y016462D01*
X016830Y016352D01*
X014080Y017407D02*
X014043Y017407D01*
X013969Y017333D01*
X013969Y017260D02*
X013969Y017407D01*
X013895Y017370D02*
X013895Y017333D01*
X013748Y017333D01*
X013748Y017297D02*
X013748Y017370D01*
X013785Y017407D01*
X013859Y017407D01*
X013895Y017370D01*
X013859Y017260D02*
X013785Y017260D01*
X013748Y017297D01*
X013674Y017260D02*
X013674Y017480D01*
X013674Y017407D02*
X013564Y017407D01*
X013527Y017370D01*
X013527Y017297D01*
X013564Y017260D01*
X013674Y017260D01*
X013453Y017260D02*
X013453Y017370D01*
X013417Y017407D01*
X013343Y017407D01*
X013343Y017333D02*
X013453Y017333D01*
X013453Y017260D02*
X013343Y017260D01*
X013307Y017297D01*
X013343Y017333D01*
X013232Y017333D02*
X013086Y017333D01*
X013086Y017297D02*
X013086Y017370D01*
X013122Y017407D01*
X013196Y017407D01*
X013232Y017370D01*
X013232Y017333D01*
X013196Y017260D02*
X013122Y017260D01*
X013086Y017297D01*
X013011Y017260D02*
X013011Y017480D01*
X013011Y017370D02*
X012865Y017370D01*
X012865Y017260D02*
X012865Y017480D01*
X012569Y017407D02*
X012569Y017223D01*
X012533Y017187D01*
X012496Y017187D01*
X012459Y017260D02*
X012569Y017260D01*
X012459Y017260D02*
X012423Y017297D01*
X012423Y017370D01*
X012459Y017407D01*
X012569Y017407D01*
X012348Y017370D02*
X012348Y017260D01*
X012348Y017370D02*
X012312Y017407D01*
X012202Y017407D01*
X012202Y017260D01*
X012128Y017260D02*
X012054Y017260D01*
X012091Y017260D02*
X012091Y017407D01*
X012054Y017407D01*
X012091Y017480D02*
X012091Y017517D01*
X011980Y017370D02*
X011980Y017260D01*
X011907Y017260D02*
X011907Y017370D01*
X011943Y017407D01*
X011980Y017370D01*
X011907Y017370D02*
X011870Y017407D01*
X011833Y017407D01*
X011833Y017260D01*
X011759Y017260D02*
X011759Y017370D01*
X011722Y017407D01*
X011686Y017370D01*
X011686Y017260D01*
X011612Y017260D02*
X011612Y017407D01*
X011649Y017407D01*
X011686Y017370D01*
X011538Y017370D02*
X011538Y017260D01*
X011428Y017260D01*
X011391Y017297D01*
X011428Y017333D01*
X011538Y017333D01*
X011538Y017370D02*
X011501Y017407D01*
X011428Y017407D01*
X011317Y017407D02*
X011281Y017407D01*
X011207Y017333D01*
X011207Y017260D02*
X011207Y017407D01*
X011133Y017407D02*
X011133Y017223D01*
X011096Y017187D01*
X011060Y017187D01*
X011023Y017260D02*
X011133Y017260D01*
X011023Y017260D02*
X010986Y017297D01*
X010986Y017370D01*
X011023Y017407D01*
X011133Y017407D01*
X010912Y017370D02*
X010875Y017407D01*
X010802Y017407D01*
X010765Y017370D01*
X010765Y017297D01*
X010802Y017260D01*
X010875Y017260D01*
X010912Y017297D01*
X010912Y017370D01*
X010691Y017407D02*
X010654Y017407D01*
X010581Y017333D01*
X010581Y017260D02*
X010581Y017407D01*
X010507Y017443D02*
X010507Y017370D01*
X010470Y017333D01*
X010360Y017333D01*
X010360Y017260D02*
X010360Y017480D01*
X010470Y017480D01*
X010507Y017443D01*
X010161Y018730D02*
X010088Y018730D01*
X010051Y018767D01*
X010124Y018840D02*
X010161Y018840D01*
X010198Y018803D01*
X010198Y018767D01*
X010161Y018730D01*
X010161Y018840D02*
X010198Y018877D01*
X010198Y018913D01*
X010161Y018950D01*
X010088Y018950D01*
X010051Y018913D01*
X009977Y018950D02*
X009903Y018950D01*
X009940Y018950D02*
X009940Y018767D01*
X009903Y018730D01*
X009867Y018730D01*
X009830Y018767D01*
X013470Y019210D02*
X013470Y019320D01*
X013507Y019357D01*
X013580Y019357D01*
X013617Y019320D01*
X013617Y019210D01*
X013690Y019210D02*
X013470Y019210D01*
X013617Y019283D02*
X013690Y019357D01*
X013690Y019431D02*
X013653Y019431D01*
X013507Y019578D01*
X013470Y019578D01*
X013470Y019431D01*
X013507Y020035D02*
X013653Y020035D01*
X013690Y020072D01*
X013690Y020145D01*
X013653Y020182D01*
X013690Y020256D02*
X013690Y020403D01*
X013690Y020329D02*
X013470Y020329D01*
X013543Y020256D01*
X013507Y020182D02*
X013470Y020145D01*
X013470Y020072D01*
X013507Y020035D01*
X013470Y020477D02*
X013580Y020477D01*
X013543Y020550D01*
X013543Y020587D01*
X013580Y020624D01*
X013653Y020624D01*
X013690Y020587D01*
X013690Y020514D01*
X013653Y020477D01*
X013470Y020477D02*
X013470Y020624D01*
X015055Y023220D02*
X015018Y023257D01*
X015018Y023403D01*
X015055Y023440D01*
X015128Y023440D01*
X015165Y023403D01*
X015165Y023257D01*
X015128Y023220D01*
X015055Y023220D01*
X015091Y023293D02*
X015165Y023220D01*
X015239Y023220D02*
X015386Y023220D01*
X015312Y023220D02*
X015312Y023440D01*
X015239Y023367D01*
X013628Y025485D02*
X013481Y025485D01*
X013554Y025485D02*
X013554Y025705D01*
X013481Y025632D01*
X013407Y025668D02*
X013370Y025705D01*
X013260Y025705D01*
X013260Y025485D01*
X013370Y025485D01*
X013407Y025522D01*
X013407Y025668D01*
X021470Y017828D02*
X021507Y017754D01*
X021580Y017681D01*
X021580Y017791D01*
X021617Y017828D01*
X021653Y017828D01*
X021690Y017791D01*
X021690Y017718D01*
X021653Y017681D01*
X021580Y017681D01*
X021580Y017607D02*
X021617Y017570D01*
X021617Y017460D01*
X021690Y017460D02*
X021470Y017460D01*
X021470Y017570D01*
X021507Y017607D01*
X021580Y017607D01*
X021617Y017533D02*
X021690Y017607D01*
X021653Y016828D02*
X021690Y016791D01*
X021690Y016718D01*
X021653Y016681D01*
X021580Y016681D02*
X021543Y016754D01*
X021543Y016791D01*
X021580Y016828D01*
X021653Y016828D01*
X021580Y016681D02*
X021470Y016681D01*
X021470Y016828D01*
X021507Y016607D02*
X021580Y016607D01*
X021617Y016570D01*
X021617Y016460D01*
X021690Y016460D02*
X021470Y016460D01*
X021470Y016570D01*
X021507Y016607D01*
X021617Y016533D02*
X021690Y016607D01*
X022547Y017910D02*
X022620Y017910D01*
X022657Y017947D01*
X022731Y017947D02*
X022768Y017910D01*
X022841Y017910D01*
X022878Y017947D01*
X022878Y017983D01*
X022841Y018020D01*
X022804Y018020D01*
X022841Y018020D02*
X022878Y018057D01*
X022878Y018093D01*
X022841Y018130D01*
X022768Y018130D01*
X022731Y018093D01*
X022657Y018093D02*
X022620Y018130D01*
X022547Y018130D01*
X022510Y018093D01*
X022510Y017947D01*
X022547Y017910D01*
X024945Y019422D02*
X024982Y019385D01*
X025018Y019385D01*
X025055Y019422D01*
X025055Y019495D01*
X025092Y019532D01*
X025128Y019532D01*
X025165Y019495D01*
X025165Y019422D01*
X025128Y019385D01*
X025305Y019422D02*
X025342Y019385D01*
X025378Y019385D01*
X025415Y019422D01*
X025415Y019495D01*
X025452Y019532D01*
X025488Y019532D01*
X025525Y019495D01*
X025525Y019422D01*
X025488Y019385D01*
X025305Y019422D02*
X025305Y019495D01*
X025342Y019532D01*
X025305Y019606D02*
X025305Y019716D01*
X025342Y019753D01*
X025488Y019753D01*
X025525Y019716D01*
X025525Y019606D01*
X025305Y019606D01*
X025165Y019643D02*
X025165Y019716D01*
X025128Y019753D01*
X025165Y019827D02*
X025165Y019974D01*
X025165Y019827D02*
X024945Y019827D01*
X024982Y019753D02*
X024945Y019716D01*
X024945Y019643D01*
X024982Y019606D01*
X025128Y019606D01*
X025165Y019643D01*
X024982Y019532D02*
X024945Y019495D01*
X024945Y019422D01*
X025378Y019827D02*
X025305Y019900D01*
X025378Y019974D01*
X025525Y019974D01*
X025415Y019974D02*
X025415Y019827D01*
X025378Y019827D02*
X025525Y019827D01*
X025665Y019716D02*
X025665Y019643D01*
X025702Y019606D01*
X025775Y019679D02*
X025775Y019716D01*
X025812Y019753D01*
X025848Y019753D01*
X025885Y019716D01*
X025885Y019643D01*
X025848Y019606D01*
X025775Y019532D02*
X025775Y019385D01*
X025702Y019458D02*
X025848Y019458D01*
X026025Y019422D02*
X026062Y019385D01*
X026208Y019385D01*
X026245Y019422D01*
X026245Y019495D01*
X026208Y019532D01*
X026135Y019532D01*
X026135Y019458D01*
X026062Y019532D02*
X026025Y019495D01*
X026025Y019422D01*
X026025Y019606D02*
X026245Y019753D01*
X026025Y019753D01*
X026025Y019827D02*
X026025Y019937D01*
X026062Y019974D01*
X026208Y019974D01*
X026245Y019937D01*
X026245Y019827D01*
X026025Y019827D01*
X025885Y019827D02*
X025885Y019864D01*
X025848Y019864D01*
X025848Y019827D01*
X025885Y019827D01*
X025848Y019937D02*
X025885Y019974D01*
X025885Y020048D01*
X025848Y020084D01*
X025812Y020084D01*
X025775Y020048D01*
X025775Y020011D01*
X025775Y020048D02*
X025738Y020084D01*
X025702Y020084D01*
X025665Y020048D01*
X025665Y019974D01*
X025702Y019937D01*
X025702Y019753D02*
X025738Y019753D01*
X025775Y019716D01*
X025702Y019753D02*
X025665Y019716D01*
X026025Y019606D02*
X026245Y019606D01*
X026385Y019495D02*
X026422Y019532D01*
X026495Y019532D01*
X026532Y019495D01*
X026532Y019385D01*
X026605Y019385D02*
X026385Y019385D01*
X026385Y019495D01*
X026458Y019606D02*
X026605Y019753D01*
X026605Y019606D02*
X026458Y019753D01*
X026605Y019532D02*
X026532Y019458D01*
X026745Y019458D02*
X026965Y019458D01*
X026965Y019606D02*
X026818Y019753D01*
X026818Y019606D02*
X026965Y019753D01*
X026745Y019532D02*
X026745Y019385D01*
X025885Y020232D02*
X025812Y020305D01*
X025665Y020305D01*
X025665Y020158D02*
X025812Y020158D01*
X025885Y020232D01*
X023330Y025126D02*
X023183Y025126D01*
X023110Y025199D01*
X023183Y025273D01*
X023330Y025273D01*
X023330Y025347D02*
X023110Y025347D01*
X023330Y025494D01*
X023110Y025494D01*
X023110Y025568D02*
X023110Y025715D01*
X023110Y025641D02*
X023330Y025641D01*
X023330Y025789D02*
X023330Y025936D01*
X023330Y025862D02*
X023110Y025862D01*
X023183Y025789D01*
X023220Y025273D02*
X023220Y025126D01*
X022036Y014490D02*
X021889Y014490D01*
X021889Y014380D01*
X021962Y014417D01*
X021999Y014417D01*
X022036Y014380D01*
X022036Y014307D01*
X021999Y014270D01*
X021926Y014270D01*
X021889Y014307D01*
X021815Y014307D02*
X021815Y014490D01*
X021668Y014490D02*
X021668Y014307D01*
X021705Y014270D01*
X021778Y014270D01*
X021815Y014307D01*
X022672Y010755D02*
X022635Y010718D01*
X022635Y010572D01*
X022672Y010535D01*
X022745Y010535D01*
X022782Y010572D01*
X022856Y010535D02*
X023003Y010535D01*
X022929Y010535D02*
X022929Y010755D01*
X022856Y010682D01*
X022782Y010718D02*
X022745Y010755D01*
X022672Y010755D01*
X023077Y010718D02*
X023114Y010755D01*
X023187Y010755D01*
X023224Y010718D01*
X023224Y010682D01*
X023077Y010535D01*
X023224Y010535D01*
X020841Y007630D02*
X020768Y007630D01*
X020731Y007593D01*
X020657Y007593D02*
X020620Y007630D01*
X020547Y007630D01*
X020510Y007593D01*
X020510Y007447D01*
X020547Y007410D01*
X020620Y007410D01*
X020657Y007447D01*
X020731Y007410D02*
X020878Y007557D01*
X020878Y007593D01*
X020841Y007630D01*
X020878Y007410D02*
X020731Y007410D01*
X021290Y005555D02*
X021437Y005555D01*
X021510Y005482D01*
X021437Y005408D01*
X021290Y005408D01*
X021327Y005334D02*
X021363Y005334D01*
X021400Y005298D01*
X021437Y005334D01*
X021473Y005334D01*
X021510Y005298D01*
X021510Y005224D01*
X021473Y005187D01*
X021473Y005114D02*
X021510Y005114D01*
X021510Y005077D01*
X021473Y005077D01*
X021473Y005114D01*
X021473Y005003D02*
X021510Y004966D01*
X021510Y004893D01*
X021473Y004856D01*
X021400Y004929D02*
X021400Y004966D01*
X021437Y005003D01*
X021473Y005003D01*
X021400Y004966D02*
X021363Y005003D01*
X021327Y005003D01*
X021290Y004966D01*
X021290Y004893D01*
X021327Y004856D01*
X021400Y004782D02*
X021400Y004635D01*
X021327Y004708D02*
X021473Y004708D01*
X021650Y004672D02*
X021687Y004635D01*
X021833Y004635D01*
X021870Y004672D01*
X021870Y004745D01*
X021833Y004782D01*
X021760Y004782D01*
X021760Y004708D01*
X021687Y004782D02*
X021650Y004745D01*
X021650Y004672D01*
X021650Y004856D02*
X021870Y005003D01*
X021650Y005003D01*
X021650Y005077D02*
X021650Y005187D01*
X021687Y005224D01*
X021833Y005224D01*
X021870Y005187D01*
X021870Y005077D01*
X021650Y005077D01*
X021650Y004856D02*
X021870Y004856D01*
X022010Y004745D02*
X022047Y004782D01*
X022120Y004782D01*
X022157Y004745D01*
X022157Y004635D01*
X022230Y004635D02*
X022010Y004635D01*
X022010Y004745D01*
X022083Y004856D02*
X022230Y005003D01*
X022230Y004856D02*
X022083Y005003D01*
X022230Y004782D02*
X022157Y004708D01*
X022370Y004708D02*
X022590Y004708D01*
X022590Y004856D02*
X022443Y005003D01*
X022443Y004856D02*
X022590Y005003D01*
X022370Y004782D02*
X022370Y004635D01*
X021400Y005261D02*
X021400Y005298D01*
X021327Y005334D02*
X021290Y005298D01*
X021290Y005224D01*
X021327Y005187D01*
X021150Y005224D02*
X021003Y005224D01*
X020930Y005150D01*
X021003Y005077D01*
X021150Y005077D01*
X021113Y005003D02*
X020967Y005003D01*
X020930Y004966D01*
X020930Y004856D01*
X021150Y004856D01*
X021150Y004966D01*
X021113Y005003D01*
X021040Y005077D02*
X021040Y005224D01*
X020790Y005224D02*
X020790Y005077D01*
X020570Y005077D01*
X020607Y005003D02*
X020570Y004966D01*
X020570Y004893D01*
X020607Y004856D01*
X020753Y004856D01*
X020790Y004893D01*
X020790Y004966D01*
X020753Y005003D01*
X020753Y004782D02*
X020717Y004782D01*
X020680Y004745D01*
X020680Y004672D01*
X020643Y004635D01*
X020607Y004635D01*
X020570Y004672D01*
X020570Y004745D01*
X020607Y004782D01*
X020753Y004782D02*
X020790Y004745D01*
X020790Y004672D01*
X020753Y004635D01*
X020930Y004672D02*
X020967Y004635D01*
X021003Y004635D01*
X021040Y004672D01*
X021040Y004745D01*
X021077Y004782D01*
X021113Y004782D01*
X021150Y004745D01*
X021150Y004672D01*
X021113Y004635D01*
X020930Y004672D02*
X020930Y004745D01*
X020967Y004782D01*
X017253Y005397D02*
X017216Y005360D01*
X017143Y005360D01*
X017106Y005397D01*
X017032Y005397D02*
X017032Y005543D01*
X016995Y005580D01*
X016885Y005580D01*
X016885Y005360D01*
X016995Y005360D01*
X017032Y005397D01*
X017106Y005543D02*
X017143Y005580D01*
X017216Y005580D01*
X017253Y005543D01*
X017253Y005507D01*
X017216Y005470D01*
X017253Y005433D01*
X017253Y005397D01*
X017216Y005470D02*
X017179Y005470D01*
X016849Y003840D02*
X016776Y003840D01*
X016739Y003803D01*
X016665Y003840D02*
X016591Y003840D01*
X016628Y003840D02*
X016628Y003657D01*
X016591Y003620D01*
X016555Y003620D01*
X016518Y003657D01*
X016739Y003620D02*
X016886Y003767D01*
X016886Y003803D01*
X016849Y003840D01*
X016886Y003620D02*
X016739Y003620D01*
X014266Y005469D02*
X014266Y005506D01*
X014413Y005652D01*
X014413Y005689D01*
X014266Y005689D01*
X014192Y005689D02*
X014192Y005506D01*
X014155Y005469D01*
X014082Y005469D01*
X014045Y005506D01*
X014045Y005689D01*
X010599Y002880D02*
X010525Y002843D01*
X010452Y002770D01*
X010562Y002770D01*
X010599Y002733D01*
X010599Y002697D01*
X010562Y002660D01*
X010489Y002660D01*
X010452Y002697D01*
X010452Y002770D01*
X010378Y002660D02*
X010231Y002660D01*
X010304Y002660D02*
X010304Y002880D01*
X010231Y002807D01*
X010157Y002843D02*
X010120Y002880D01*
X010047Y002880D01*
X010010Y002843D01*
X010010Y002697D01*
X010047Y002660D01*
X010120Y002660D01*
X010157Y002697D01*
X010153Y002240D02*
X010153Y002057D01*
X010116Y002020D01*
X010080Y002020D01*
X010043Y002057D01*
X010116Y002240D02*
X010190Y002240D01*
X010264Y002130D02*
X010411Y002130D01*
X010374Y002020D02*
X010374Y002240D01*
X010264Y002130D01*
X009091Y002660D02*
X009091Y002880D01*
X008981Y002770D01*
X009128Y002770D01*
X008907Y002697D02*
X008870Y002660D01*
X008797Y002660D01*
X008760Y002697D01*
X008760Y002843D01*
X008797Y002880D01*
X008870Y002880D01*
X008907Y002843D01*
D13*
X007899Y002576D02*
X007033Y002576D01*
X006167Y002576D02*
X005301Y002576D01*
X005301Y004820D01*
X005655Y005174D01*
X006167Y005174D01*
X007033Y005174D02*
X007545Y005174D01*
X007899Y004820D01*
X007899Y002576D01*
X006226Y002714D02*
X006161Y002737D01*
X006098Y002763D01*
X006037Y002793D01*
X005977Y002827D01*
X005919Y002863D01*
X005863Y002903D01*
X005810Y002946D01*
X005759Y002992D01*
X005711Y003041D01*
X005666Y003092D01*
X005623Y003146D01*
X005584Y003202D01*
X005548Y003260D01*
X005515Y003321D01*
X005486Y003383D01*
X005460Y003446D01*
X005438Y003511D01*
X005419Y003577D01*
X005405Y003644D01*
X005394Y003711D01*
X005387Y003780D01*
X005383Y003848D01*
X005384Y003917D01*
X005388Y003985D01*
X005397Y004053D01*
X005409Y004120D01*
X005424Y004187D01*
X005444Y004253D01*
X005467Y004317D01*
X005494Y004380D01*
X005525Y004442D01*
X005558Y004501D01*
X005595Y004559D01*
X005636Y004614D01*
X005679Y004667D01*
X005725Y004718D01*
X005774Y004766D01*
X005826Y004811D01*
X005880Y004853D01*
X005936Y004892D01*
X005995Y004928D01*
X006055Y004960D01*
X006117Y004989D01*
X006181Y005015D01*
X006246Y005036D01*
X006974Y005036D02*
X007039Y005013D01*
X007102Y004987D01*
X007163Y004957D01*
X007223Y004923D01*
X007281Y004887D01*
X007337Y004847D01*
X007390Y004804D01*
X007441Y004758D01*
X007489Y004709D01*
X007534Y004658D01*
X007577Y004604D01*
X007616Y004548D01*
X007652Y004490D01*
X007685Y004429D01*
X007714Y004367D01*
X007740Y004304D01*
X007762Y004239D01*
X007781Y004173D01*
X007795Y004106D01*
X007806Y004039D01*
X007813Y003970D01*
X007817Y003902D01*
X007816Y003833D01*
X007812Y003765D01*
X007803Y003697D01*
X007791Y003630D01*
X007776Y003563D01*
X007756Y003497D01*
X007733Y003433D01*
X007706Y003370D01*
X007675Y003308D01*
X007642Y003249D01*
X007605Y003191D01*
X007564Y003136D01*
X007521Y003083D01*
X007475Y003032D01*
X007426Y002984D01*
X007374Y002939D01*
X007320Y002897D01*
X007264Y002858D01*
X007205Y002822D01*
X007145Y002790D01*
X007083Y002761D01*
X007019Y002735D01*
X006954Y002714D01*
X003925Y003269D02*
X003925Y004647D01*
X003610Y004647D01*
X003610Y003662D01*
X003137Y003662D01*
X001563Y003662D02*
X001090Y003662D01*
X001090Y004647D01*
X000775Y004647D01*
X000775Y003269D01*
X001563Y001694D02*
X003137Y001694D01*
X004140Y007675D02*
X001560Y007675D01*
X001560Y009075D01*
X004140Y009075D01*
X004140Y007675D01*
X010094Y009869D02*
X010094Y015381D01*
X015606Y015381D01*
X015606Y009869D01*
X010094Y009869D01*
X015055Y014987D02*
X015057Y015012D01*
X015063Y015036D01*
X015072Y015058D01*
X015085Y015079D01*
X015101Y015098D01*
X015120Y015114D01*
X015141Y015127D01*
X015163Y015136D01*
X015187Y015142D01*
X015212Y015144D01*
X015237Y015142D01*
X015261Y015136D01*
X015283Y015127D01*
X015304Y015114D01*
X015323Y015098D01*
X015339Y015079D01*
X015352Y015058D01*
X015361Y015036D01*
X015367Y015012D01*
X015369Y014987D01*
X015367Y014962D01*
X015361Y014938D01*
X015352Y014916D01*
X015339Y014895D01*
X015323Y014876D01*
X015304Y014860D01*
X015283Y014847D01*
X015261Y014838D01*
X015237Y014832D01*
X015212Y014830D01*
X015187Y014832D01*
X015163Y014838D01*
X015141Y014847D01*
X015120Y014860D01*
X015101Y014876D01*
X015085Y014895D01*
X015072Y014916D01*
X015063Y014938D01*
X015057Y014962D01*
X015055Y014987D01*
X015100Y017625D02*
X014600Y017625D01*
X014350Y017875D01*
X014100Y017625D01*
X013600Y017625D01*
X013350Y017875D01*
X013100Y017625D01*
X012600Y017625D01*
X012350Y017875D01*
X012100Y017625D01*
X011600Y017625D01*
X011350Y017875D01*
X011100Y017625D01*
X010600Y017625D01*
X010350Y017875D01*
X010350Y018375D01*
X010600Y018625D01*
X011100Y018625D01*
X011350Y018375D01*
X011600Y018625D01*
X012100Y018625D01*
X012350Y018375D01*
X012600Y018625D01*
X013100Y018625D01*
X013350Y018375D01*
X013600Y018625D01*
X014100Y018625D01*
X014350Y018375D01*
X014600Y018625D01*
X015100Y018625D01*
X015350Y018375D01*
X015350Y017875D01*
X015100Y017625D01*
X014176Y024231D02*
X014176Y025019D01*
X013773Y024625D01*
X014176Y024231D01*
X003610Y022308D02*
X003610Y021442D01*
X002783Y020615D02*
X001917Y020615D01*
X001090Y021442D02*
X001090Y022308D01*
X001917Y023135D02*
X002783Y023135D01*
X001681Y021875D02*
X001683Y021926D01*
X001689Y021977D01*
X001699Y022027D01*
X001712Y022077D01*
X001730Y022125D01*
X001750Y022172D01*
X001775Y022217D01*
X001803Y022260D01*
X001834Y022301D01*
X001868Y022339D01*
X001905Y022374D01*
X001944Y022407D01*
X001986Y022437D01*
X002030Y022463D01*
X002076Y022485D01*
X002124Y022505D01*
X002173Y022520D01*
X002223Y022532D01*
X002273Y022540D01*
X002324Y022544D01*
X002376Y022544D01*
X002427Y022540D01*
X002477Y022532D01*
X002527Y022520D01*
X002576Y022505D01*
X002624Y022485D01*
X002670Y022463D01*
X002714Y022437D01*
X002756Y022407D01*
X002795Y022374D01*
X002832Y022339D01*
X002866Y022301D01*
X002897Y022260D01*
X002925Y022217D01*
X002950Y022172D01*
X002970Y022125D01*
X002988Y022077D01*
X003001Y022027D01*
X003011Y021977D01*
X003017Y021926D01*
X003019Y021875D01*
X003017Y021824D01*
X003011Y021773D01*
X003001Y021723D01*
X002988Y021673D01*
X002970Y021625D01*
X002950Y021578D01*
X002925Y021533D01*
X002897Y021490D01*
X002866Y021449D01*
X002832Y021411D01*
X002795Y021376D01*
X002756Y021343D01*
X002714Y021313D01*
X002670Y021287D01*
X002624Y021265D01*
X002576Y021245D01*
X002527Y021230D01*
X002477Y021218D01*
X002427Y021210D01*
X002376Y021206D01*
X002324Y021206D01*
X002273Y021210D01*
X002223Y021218D01*
X002173Y021230D01*
X002124Y021245D01*
X002076Y021265D01*
X002030Y021287D01*
X001986Y021313D01*
X001944Y021343D01*
X001905Y021376D01*
X001868Y021411D01*
X001834Y021449D01*
X001803Y021490D01*
X001775Y021533D01*
X001750Y021578D01*
X001730Y021625D01*
X001712Y021673D01*
X001699Y021723D01*
X001689Y021773D01*
X001683Y021824D01*
X001681Y021875D01*
X016524Y008644D02*
X016524Y007856D01*
X016927Y008250D01*
X016524Y008644D01*
X016676Y006894D02*
X016676Y006106D01*
X016273Y006500D01*
X016676Y006894D01*
X022183Y012415D02*
X022185Y012430D01*
X022191Y012443D01*
X022200Y012455D01*
X022211Y012464D01*
X022225Y012470D01*
X022240Y012472D01*
X022255Y012470D01*
X022268Y012464D01*
X022280Y012455D01*
X022289Y012444D01*
X022295Y012430D01*
X022297Y012415D01*
X022295Y012400D01*
X022289Y012387D01*
X022280Y012375D01*
X022269Y012366D01*
X022255Y012360D01*
X022240Y012358D01*
X022225Y012360D01*
X022212Y012366D01*
X022200Y012375D01*
X022191Y012386D01*
X022185Y012400D01*
X022183Y012415D01*
D14*
X022990Y019887D02*
X023049Y019887D01*
X023049Y023706D01*
X022990Y023706D01*
X019171Y023706D02*
X019072Y023706D01*
X019072Y019887D01*
X019171Y019887D01*
D15*
X019902Y020623D02*
X019947Y020578D01*
X020082Y020578D01*
X020082Y020758D01*
X020197Y020758D02*
X020332Y020758D01*
X020377Y020713D01*
X020377Y020623D01*
X020332Y020578D01*
X020197Y020578D01*
X020197Y020848D01*
X020491Y020848D02*
X020536Y020848D01*
X020536Y020578D01*
X020491Y020578D02*
X020581Y020578D01*
X020688Y020623D02*
X020733Y020578D01*
X020823Y020578D01*
X020868Y020623D01*
X020868Y020713D01*
X020823Y020758D01*
X020733Y020758D01*
X020688Y020713D01*
X020688Y020623D01*
X020982Y020578D02*
X021163Y020758D01*
X021163Y020578D02*
X020982Y020758D01*
X019902Y020758D02*
X019902Y020623D01*
X019647Y025152D02*
X019647Y025250D01*
X019647Y025152D02*
X022403Y025152D01*
X022403Y025250D01*
X022108Y025545D02*
X022108Y025742D01*
X021714Y025742D01*
X021714Y025545D01*
X022108Y025545D01*
X022403Y026037D02*
X022403Y026136D01*
X019647Y026136D01*
X019647Y026037D01*
X012250Y025525D02*
X012250Y019225D01*
X005950Y019225D01*
X005950Y025525D01*
X012250Y025525D01*
X020891Y010741D02*
X022230Y010741D01*
X022230Y008891D01*
X020891Y008891D01*
X020891Y010741D01*
X022024Y008694D02*
X022026Y008712D01*
X022032Y008730D01*
X022041Y008746D01*
X022053Y008759D01*
X022068Y008770D01*
X022085Y008778D01*
X022103Y008782D01*
X022121Y008782D01*
X022139Y008778D01*
X022156Y008770D01*
X022171Y008759D01*
X022183Y008746D01*
X022192Y008730D01*
X022198Y008712D01*
X022200Y008694D01*
X022198Y008676D01*
X022192Y008658D01*
X022183Y008642D01*
X022171Y008629D01*
X022156Y008618D01*
X022139Y008610D01*
X022121Y008606D01*
X022103Y008606D01*
X022085Y008610D01*
X022068Y008618D01*
X022053Y008629D01*
X022041Y008642D01*
X022032Y008658D01*
X022026Y008676D01*
X022024Y008694D01*
X022850Y002875D02*
X016850Y002875D01*
X016850Y001875D01*
X017350Y001875D01*
X017350Y000125D01*
X022350Y000125D01*
X022350Y001875D01*
X022850Y001875D01*
X022850Y002875D01*
X022350Y001875D02*
X017350Y001875D01*
X014464Y005962D02*
X013834Y005962D01*
X013736Y006060D01*
X013736Y006788D01*
X014464Y006788D01*
X014464Y005962D01*
D16*
X019545Y020753D03*
D17*
X015110Y021815D02*
X014590Y021815D01*
X014590Y022935D01*
X015110Y022935D01*
X015110Y021815D01*
X021140Y014055D02*
X022560Y014055D01*
X022560Y012195D02*
X021140Y012195D01*
X003461Y017007D02*
X003461Y017243D01*
X002989Y017243D02*
X002989Y017007D01*
X002989Y018507D02*
X002989Y018743D01*
X003461Y018743D02*
X003461Y018507D01*
D18*
X003760Y009675D02*
X003620Y009535D01*
X003807Y009535D01*
X003760Y009395D02*
X003760Y009675D01*
X003412Y006975D02*
X003459Y006929D01*
X003459Y006882D01*
X003412Y006835D01*
X003459Y006788D01*
X003459Y006742D01*
X003412Y006695D01*
X003319Y006695D01*
X003272Y006742D01*
X003365Y006835D02*
X003412Y006835D01*
X003412Y006975D02*
X003319Y006975D01*
X003272Y006929D01*
X002549Y006925D02*
X002549Y006878D01*
X002362Y006691D01*
X002549Y006691D01*
X002549Y006925D02*
X002502Y006972D01*
X002409Y006972D01*
X002362Y006925D01*
X001698Y006695D02*
X001511Y006695D01*
X001604Y006695D02*
X001604Y006975D01*
X001511Y006882D01*
X011362Y004379D02*
X011732Y004379D01*
X011727Y004379D02*
X012223Y004379D01*
X012245Y004377D01*
X012267Y004372D01*
X012288Y004363D01*
X012307Y004352D01*
X012324Y004337D01*
X012339Y004320D01*
X012350Y004301D01*
X012359Y004280D01*
X012364Y004258D01*
X012366Y004236D01*
X012367Y004236D02*
X012367Y004026D01*
X011727Y003938D02*
X011357Y003938D01*
X011357Y003937D02*
X011344Y003939D01*
X011331Y003943D01*
X011319Y003950D01*
X011309Y003960D01*
X011302Y003972D01*
X011297Y003985D01*
X011296Y003998D01*
X011296Y003999D02*
X011296Y003999D01*
X011298Y004014D01*
X011303Y004028D01*
X011310Y004040D01*
X011321Y004051D01*
X011333Y004058D01*
X011347Y004063D01*
X011362Y004065D01*
X011423Y004065D01*
X011440Y004067D01*
X011457Y004072D01*
X011472Y004080D01*
X011485Y004091D01*
X011496Y004104D01*
X011504Y004119D01*
X011509Y004136D01*
X011511Y004153D01*
X011511Y004164D01*
X011509Y004181D01*
X011504Y004198D01*
X011496Y004213D01*
X011485Y004226D01*
X011472Y004237D01*
X011457Y004245D01*
X011440Y004250D01*
X011423Y004252D01*
X011357Y004252D01*
X011343Y004254D01*
X011331Y004258D01*
X011319Y004265D01*
X011309Y004275D01*
X011302Y004287D01*
X011298Y004299D01*
X011296Y004313D01*
X011298Y004328D01*
X011303Y004342D01*
X011310Y004354D01*
X011321Y004365D01*
X011333Y004372D01*
X011347Y004377D01*
X011362Y004379D01*
X011727Y004379D02*
X011727Y000875D01*
X014724Y000875D01*
X014724Y002299D01*
X015093Y002299D01*
X015094Y002298D02*
X015107Y002297D01*
X015120Y002292D01*
X015131Y002285D01*
X015141Y002275D01*
X015148Y002264D01*
X015153Y002251D01*
X015154Y002238D01*
X015154Y002238D01*
X015152Y002223D01*
X015147Y002209D01*
X015140Y002197D01*
X015129Y002186D01*
X015117Y002179D01*
X015103Y002174D01*
X015088Y002172D01*
X015027Y002172D01*
X015027Y002171D02*
X015010Y002169D01*
X014993Y002164D01*
X014978Y002156D01*
X014965Y002145D01*
X014954Y002132D01*
X014946Y002117D01*
X014941Y002100D01*
X014939Y002083D01*
X014939Y002072D01*
X014941Y002055D01*
X014946Y002038D01*
X014954Y002023D01*
X014965Y002010D01*
X014978Y001999D01*
X014993Y001991D01*
X015010Y001986D01*
X015027Y001984D01*
X015093Y001984D01*
X015107Y001982D01*
X015119Y001978D01*
X015131Y001971D01*
X015141Y001961D01*
X015148Y001949D01*
X015152Y001937D01*
X015154Y001923D01*
X015152Y001908D01*
X015147Y001894D01*
X015140Y001882D01*
X015129Y001871D01*
X015117Y001864D01*
X015103Y001859D01*
X015088Y001857D01*
X014746Y001857D01*
X014702Y001344D02*
X014094Y001344D01*
X014072Y001346D01*
X014051Y001351D01*
X014031Y001359D01*
X014013Y001370D01*
X013996Y001384D01*
X013982Y001401D01*
X013971Y001419D01*
X013963Y001439D01*
X013958Y001460D01*
X013956Y001482D01*
X013956Y001498D01*
X013890Y002944D01*
X013891Y002958D01*
X013895Y002972D01*
X013903Y002983D01*
X013913Y002993D01*
X013925Y003000D01*
X013938Y003004D01*
X013952Y003005D01*
X013966Y003002D01*
X013979Y002996D01*
X013989Y002988D01*
X013998Y002976D01*
X014004Y002964D01*
X014006Y002950D01*
X014094Y001614D01*
X014094Y001615D02*
X014097Y001596D01*
X014104Y001579D01*
X014113Y001563D01*
X014126Y001549D01*
X014141Y001538D01*
X014157Y001530D01*
X014175Y001525D01*
X014194Y001524D01*
X014212Y001526D01*
X014230Y001532D01*
X014246Y001541D01*
X014260Y001553D01*
X014272Y001568D01*
X014281Y001584D01*
X014286Y001602D01*
X014288Y001620D01*
X014376Y002961D01*
X014378Y002973D01*
X014384Y002984D01*
X014392Y002993D01*
X014402Y003000D01*
X014413Y003004D01*
X014425Y003005D01*
X014426Y003005D02*
X014702Y003005D01*
X014724Y002299D02*
X014724Y004379D01*
X015093Y004379D01*
X015094Y004380D02*
X015107Y004379D01*
X015120Y004374D01*
X015132Y004367D01*
X015142Y004357D01*
X015149Y004345D01*
X015154Y004332D01*
X015155Y004319D01*
X015154Y004319D02*
X015154Y004319D01*
X015152Y004304D01*
X015147Y004290D01*
X015140Y004278D01*
X015129Y004267D01*
X015117Y004260D01*
X015103Y004255D01*
X015088Y004253D01*
X015088Y004252D02*
X015027Y004252D01*
X015010Y004250D01*
X014993Y004245D01*
X014978Y004237D01*
X014965Y004226D01*
X014954Y004213D01*
X014946Y004198D01*
X014941Y004181D01*
X014939Y004164D01*
X014939Y004153D01*
X014941Y004136D01*
X014946Y004119D01*
X014954Y004104D01*
X014965Y004091D01*
X014978Y004080D01*
X014993Y004072D01*
X015010Y004067D01*
X015027Y004065D01*
X015093Y004065D01*
X015107Y004063D01*
X015119Y004059D01*
X015131Y004052D01*
X015141Y004042D01*
X015148Y004030D01*
X015152Y004018D01*
X015154Y004004D01*
X015152Y003989D01*
X015147Y003975D01*
X015140Y003963D01*
X015129Y003952D01*
X015117Y003945D01*
X015103Y003940D01*
X015088Y003938D01*
X014746Y003938D01*
X014724Y004379D02*
X014221Y004379D01*
X014199Y004377D01*
X014178Y004372D01*
X014158Y004364D01*
X014140Y004353D01*
X014123Y004339D01*
X014109Y004322D01*
X014098Y004304D01*
X014090Y004284D01*
X014085Y004263D01*
X014083Y004241D01*
X014083Y004010D01*
X013509Y003121D02*
X012930Y003121D01*
X012909Y003119D01*
X012889Y003114D01*
X012870Y003106D01*
X012852Y003096D01*
X012836Y003082D01*
X012822Y003066D01*
X012812Y003048D01*
X012804Y003029D01*
X012799Y003009D01*
X012797Y002988D01*
X012797Y002989D02*
X012715Y001404D01*
X012714Y001405D02*
X012715Y001391D01*
X012720Y001378D01*
X012728Y001367D01*
X012738Y001358D01*
X012751Y001352D01*
X012764Y001349D01*
X012778Y001350D01*
X012791Y001355D01*
X012802Y001363D01*
X012811Y001373D01*
X012817Y001386D01*
X012820Y001399D01*
X012819Y001399D02*
X012886Y002624D01*
X012888Y002648D01*
X012893Y002672D01*
X012901Y002695D01*
X012913Y002716D01*
X012928Y002736D01*
X012945Y002753D01*
X012965Y002768D01*
X012986Y002780D01*
X013009Y002788D01*
X013033Y002793D01*
X013057Y002795D01*
X013404Y002795D01*
X013404Y002796D02*
X013428Y002794D01*
X013451Y002789D01*
X013473Y002781D01*
X013494Y002770D01*
X013513Y002755D01*
X013529Y002739D01*
X013544Y002720D01*
X013555Y002699D01*
X013563Y002677D01*
X013568Y002654D01*
X013570Y002630D01*
X013570Y002602D01*
X013625Y001404D01*
X013627Y001391D01*
X013633Y001378D01*
X013642Y001367D01*
X013653Y001359D01*
X013666Y001354D01*
X013680Y001352D01*
X013694Y001354D01*
X013707Y001359D01*
X013718Y001367D01*
X013727Y001378D01*
X013733Y001391D01*
X013735Y001404D01*
X013736Y001404D02*
X013653Y002977D01*
X013651Y003000D01*
X013646Y003021D01*
X013637Y003042D01*
X013625Y003062D01*
X013611Y003079D01*
X013594Y003093D01*
X013574Y003105D01*
X013553Y003114D01*
X013532Y003119D01*
X013509Y003121D01*
X012560Y002944D02*
X012494Y001498D01*
X012494Y001482D01*
X012492Y001460D01*
X012487Y001439D01*
X012479Y001419D01*
X012468Y001401D01*
X012454Y001384D01*
X012437Y001370D01*
X012419Y001359D01*
X012399Y001351D01*
X012378Y001346D01*
X012356Y001344D01*
X011749Y001344D01*
X012163Y001620D02*
X012074Y002961D01*
X012072Y002973D01*
X012066Y002984D01*
X012058Y002993D01*
X012048Y003000D01*
X012037Y003004D01*
X012025Y003005D01*
X011749Y003005D01*
X012444Y002950D02*
X012356Y001614D01*
X012356Y001615D02*
X012353Y001596D01*
X012346Y001579D01*
X012337Y001563D01*
X012324Y001549D01*
X012309Y001538D01*
X012293Y001530D01*
X012275Y001525D01*
X012256Y001524D01*
X012238Y001526D01*
X012220Y001532D01*
X012204Y001541D01*
X012190Y001553D01*
X012178Y001568D01*
X012169Y001584D01*
X012164Y001602D01*
X012162Y001620D01*
X011727Y001857D02*
X011357Y001857D01*
X011357Y001858D02*
X011344Y001859D01*
X011331Y001864D01*
X011320Y001871D01*
X011310Y001881D01*
X011303Y001892D01*
X011298Y001905D01*
X011297Y001918D01*
X011296Y001918D02*
X011296Y001918D01*
X011298Y001933D01*
X011303Y001947D01*
X011310Y001959D01*
X011321Y001970D01*
X011333Y001977D01*
X011347Y001982D01*
X011362Y001984D01*
X011423Y001984D01*
X011440Y001986D01*
X011457Y001991D01*
X011472Y001999D01*
X011485Y002010D01*
X011496Y002023D01*
X011504Y002038D01*
X011509Y002055D01*
X011511Y002072D01*
X011511Y002083D01*
X011509Y002100D01*
X011504Y002117D01*
X011496Y002132D01*
X011485Y002145D01*
X011472Y002156D01*
X011457Y002164D01*
X011440Y002169D01*
X011423Y002171D01*
X011423Y002172D02*
X011357Y002172D01*
X011357Y002171D02*
X011343Y002173D01*
X011331Y002177D01*
X011319Y002184D01*
X011309Y002194D01*
X011302Y002206D01*
X011298Y002218D01*
X011296Y002232D01*
X011298Y002247D01*
X011303Y002261D01*
X011310Y002273D01*
X011321Y002284D01*
X011333Y002291D01*
X011347Y002296D01*
X011362Y002298D01*
X011362Y002299D02*
X011705Y002299D01*
X012444Y002950D02*
X012446Y002964D01*
X012452Y002976D01*
X012461Y002988D01*
X012471Y002996D01*
X012484Y003002D01*
X012498Y003005D01*
X012512Y003004D01*
X012525Y003000D01*
X012537Y002993D01*
X012547Y002983D01*
X012555Y002972D01*
X012559Y002958D01*
X012560Y002944D01*
X015710Y005750D02*
X017490Y005750D01*
X017490Y007250D02*
X015710Y007250D01*
X015710Y007500D02*
X017490Y007500D01*
X017490Y009000D02*
X015710Y009000D01*
X013297Y008092D02*
X013320Y008069D01*
X013340Y008043D01*
X013357Y008015D01*
X013371Y007986D01*
X013382Y007955D01*
X013389Y007924D01*
X013393Y007891D01*
X013393Y007859D01*
X013389Y007826D01*
X013382Y007795D01*
X013371Y007764D01*
X013357Y007735D01*
X013340Y007707D01*
X013320Y007681D01*
X013297Y007658D01*
X012903Y007658D02*
X012880Y007681D01*
X012860Y007707D01*
X012843Y007735D01*
X012829Y007764D01*
X012818Y007795D01*
X012811Y007826D01*
X012807Y007859D01*
X012807Y007891D01*
X012811Y007924D01*
X012818Y007955D01*
X012829Y007986D01*
X012843Y008015D01*
X012860Y008043D01*
X012880Y008069D01*
X012903Y008092D01*
X012297Y008092D02*
X012320Y008069D01*
X012340Y008043D01*
X012357Y008015D01*
X012371Y007986D01*
X012382Y007955D01*
X012389Y007924D01*
X012393Y007891D01*
X012393Y007859D01*
X012389Y007826D01*
X012382Y007795D01*
X012371Y007764D01*
X012357Y007735D01*
X012340Y007707D01*
X012320Y007681D01*
X012297Y007658D01*
X011903Y007658D02*
X011880Y007681D01*
X011860Y007707D01*
X011843Y007735D01*
X011829Y007764D01*
X011818Y007795D01*
X011811Y007826D01*
X011807Y007859D01*
X011807Y007891D01*
X011811Y007924D01*
X011818Y007955D01*
X011829Y007986D01*
X011843Y008015D01*
X011860Y008043D01*
X011880Y008069D01*
X011903Y008092D01*
X013210Y023875D02*
X014990Y023875D01*
X014990Y025375D02*
X013210Y025375D01*
D19*
X013100Y007875D03*
X012100Y007875D03*
D20*
X011874Y007668D03*
X012874Y007668D03*
M02*
