G75*
%MOIN*%
%OFA0B0*%
%FSLAX24Y24*%
%IPPOS*%
%LPD*%
%AMOC8*
5,1,8,0,0,1.08239X$1,22.5*
%
%ADD10R,0.0237X0.0631*%
%ADD11R,0.0631X0.0237*%
%ADD12R,0.0395X0.0789*%
%ADD13R,0.0356X0.0789*%
%ADD14R,0.1064X0.1261*%
%ADD15R,0.0631X0.0474*%
%ADD16R,0.0671X0.0592*%
%ADD17R,0.0592X0.0671*%
%ADD18R,0.0790X0.0710*%
%ADD19C,0.0830*%
%ADD20C,0.1130*%
%ADD21R,0.0560X0.0960*%
%ADD22R,0.1497X0.0946*%
%ADD23R,0.0474X0.1891*%
%ADD24R,0.0710X0.1419*%
%ADD25R,0.0552X0.0395*%
%ADD26R,0.0950X0.0320*%
%ADD27R,0.0513X0.0316*%
%ADD28R,0.0178X0.0237*%
%ADD29R,0.0592X0.0395*%
%ADD30C,0.0820*%
%ADD31R,0.0710X0.1458*%
%ADD32R,0.0474X0.0867*%
%ADD33R,0.1025X0.1025*%
%ADD34R,0.0820X0.0820*%
%ADD35R,0.1064X0.0946*%
%ADD36R,0.0277X0.0867*%
%ADD37C,0.0370*%
D10*
X010488Y009426D03*
X010803Y009426D03*
X011118Y009426D03*
X011433Y009426D03*
X011748Y009426D03*
X012063Y009426D03*
X012378Y009426D03*
X012693Y009426D03*
X013007Y009426D03*
X013322Y009426D03*
X013637Y009426D03*
X013952Y009426D03*
X014267Y009426D03*
X014582Y009426D03*
X014897Y009426D03*
X015212Y009426D03*
X015212Y015824D03*
X014897Y015824D03*
X014582Y015824D03*
X014267Y015824D03*
X013952Y015824D03*
X013637Y015824D03*
X013322Y015824D03*
X013007Y015824D03*
X012693Y015824D03*
X012378Y015824D03*
X012063Y015824D03*
X011748Y015824D03*
X011433Y015824D03*
X011118Y015824D03*
X010803Y015824D03*
X010488Y015824D03*
D11*
X009651Y014987D03*
X009651Y014672D03*
X009651Y014357D03*
X009651Y014042D03*
X009651Y013727D03*
X009651Y013412D03*
X009651Y013097D03*
X009651Y012782D03*
X009651Y012468D03*
X009651Y012153D03*
X009651Y011838D03*
X009651Y011523D03*
X009651Y011208D03*
X009651Y010893D03*
X009651Y010578D03*
X009651Y010263D03*
X016049Y010263D03*
X016049Y010578D03*
X016049Y010893D03*
X016049Y011208D03*
X016049Y011523D03*
X016049Y011838D03*
X016049Y012153D03*
X016049Y012468D03*
X016049Y012782D03*
X016049Y013097D03*
X016049Y013412D03*
X016049Y013727D03*
X016049Y014042D03*
X016049Y014357D03*
X016049Y014672D03*
X016049Y014987D03*
D12*
X019781Y019926D03*
X020214Y019926D03*
X020647Y019926D03*
X021080Y019926D03*
X021513Y019926D03*
X021946Y019926D03*
X022380Y019926D03*
X022380Y023666D03*
X021946Y023666D03*
X021513Y023666D03*
X021080Y023666D03*
X020647Y023666D03*
X020214Y023666D03*
X019781Y023666D03*
D13*
X019368Y023666D03*
X022793Y023666D03*
X022793Y019926D03*
X019368Y019926D03*
D14*
X012761Y022375D03*
X005439Y022375D03*
D15*
X014417Y022375D03*
X015283Y022001D03*
X015283Y022749D03*
D16*
X017350Y016585D03*
X017350Y015915D03*
X017350Y014835D03*
X017350Y014165D03*
X017975Y011960D03*
X017975Y011290D03*
X010350Y004210D03*
X010350Y003540D03*
X008850Y003540D03*
X008850Y004210D03*
X004100Y011540D03*
X004100Y012210D03*
X003100Y012210D03*
X003100Y011540D03*
X002100Y011540D03*
X002100Y012210D03*
D17*
X004765Y010375D03*
X005435Y010375D03*
X006765Y010375D03*
X007435Y010375D03*
X007435Y009375D03*
X006765Y009375D03*
X006765Y008375D03*
X007435Y008375D03*
X007435Y006875D03*
X006765Y006875D03*
X002185Y016625D03*
X001515Y016625D03*
X001515Y017875D03*
X002185Y017875D03*
X002185Y019125D03*
X001515Y019125D03*
X004765Y018500D03*
X005435Y018500D03*
X014265Y019375D03*
X014935Y019375D03*
X014935Y020375D03*
X014265Y020375D03*
X020265Y017625D03*
X020935Y017625D03*
X020935Y016625D03*
X020265Y016625D03*
X021890Y018750D03*
X022560Y018750D03*
X022265Y011375D03*
X022935Y011375D03*
X021185Y007000D03*
X020515Y007000D03*
D18*
X013100Y007315D03*
X012100Y007315D03*
X012100Y008435D03*
X013100Y008435D03*
D19*
X002350Y021875D03*
D20*
X001346Y020871D03*
X001346Y022879D03*
X003354Y022879D03*
X003354Y020871D03*
D21*
X003760Y007155D03*
X002850Y007155D03*
X001940Y007155D03*
D22*
X002850Y009595D03*
D23*
X002744Y004332D03*
X001956Y004332D03*
D24*
X001011Y002284D03*
X003689Y002284D03*
D25*
X003225Y016771D03*
X003225Y017479D03*
X003225Y018271D03*
X003225Y018979D03*
D26*
X020820Y013875D03*
X020820Y013375D03*
X020820Y012875D03*
X020820Y012375D03*
X022880Y012375D03*
X022880Y012875D03*
X022880Y013375D03*
X022880Y013875D03*
D27*
X021994Y010564D03*
X021994Y010072D03*
X021994Y009580D03*
X021994Y009088D03*
X021128Y009088D03*
X021128Y009580D03*
X021128Y010072D03*
X021128Y010564D03*
D28*
X014297Y006660D03*
X014100Y006660D03*
X013903Y006660D03*
X013903Y006090D03*
X014100Y006090D03*
X014297Y006090D03*
D29*
X014100Y006375D03*
D30*
X017350Y003125D03*
X018350Y003125D03*
X019350Y003125D03*
X020350Y003125D03*
X021350Y003125D03*
X014850Y018075D03*
X013850Y018175D03*
X012850Y018075D03*
X011850Y018175D03*
X010850Y018075D03*
D31*
X006600Y004938D03*
X006600Y002812D03*
D32*
X019647Y025644D03*
X022403Y025644D03*
D33*
X014966Y024625D03*
X013234Y024625D03*
X015734Y008250D03*
X017466Y008250D03*
X017466Y006500D03*
X015734Y006500D03*
D34*
X022350Y003125D03*
D35*
X014879Y004162D03*
X014879Y002076D03*
X011571Y002076D03*
X011571Y004162D03*
D36*
X012595Y004261D03*
X012910Y004261D03*
X013225Y004261D03*
X013540Y004261D03*
X013855Y004261D03*
D37*
X013350Y005625D03*
X013100Y006125D03*
X012100Y006125D03*
X012100Y005625D03*
X010975Y005625D03*
X010600Y006000D03*
X010225Y006500D03*
X008350Y007625D03*
X005600Y006875D03*
X004100Y008500D03*
X001100Y006000D03*
X004600Y003875D03*
X011100Y003125D03*
X014725Y007250D03*
X015725Y005000D03*
X015725Y003125D03*
X019225Y006125D03*
X020225Y008375D03*
X020100Y009250D03*
X018850Y009250D03*
X018100Y010375D03*
X017100Y011375D03*
X016725Y009750D03*
X015100Y010375D03*
X013725Y012375D03*
X013100Y012875D03*
X011850Y011875D03*
X011225Y011250D03*
X010975Y010625D03*
X011725Y010625D03*
X012475Y010625D03*
X015225Y012875D03*
X013725Y014375D03*
X012725Y014750D03*
X011350Y014375D03*
X011350Y016625D03*
X011975Y017000D03*
X010100Y016875D03*
X008475Y017625D03*
X007600Y017125D03*
X007975Y013875D03*
X008475Y013500D03*
X008475Y012125D03*
X003975Y014375D03*
X001850Y014875D03*
X000975Y014375D03*
X008475Y025250D03*
X015600Y016875D03*
X015600Y016375D03*
X017225Y017625D03*
X018850Y016375D03*
X019600Y016875D03*
X019225Y015000D03*
X020600Y015000D03*
X020100Y013375D03*
X018850Y013375D03*
X020820Y011375D03*
X020225Y010375D03*
X021975Y006125D03*
X022725Y015000D03*
X020850Y018750D03*
X020100Y018875D03*
X018600Y019875D03*
X017225Y022000D03*
X017225Y025250D03*
X022725Y022000D03*
M02*
