%
M48
M72
T01C0.0130
T02C0.0400
T03C0.0500
T04C0.0700
%
T01
X4600Y3875
X5600Y6875
X4100Y8500
X1100Y6000
X8350Y7625
X10225Y6500
X10600Y6000
X10975Y5625
X12100Y5625
X12100Y6125
X13100Y6125
X13350Y5625
X14725Y7250
X15725Y5000
X15725Y3125
X19225Y6125
X20225Y8375
X20100Y9250
X18850Y9250
X18100Y10375
X17100Y11375
X16725Y9750
X15100Y10375
X13725Y12375
X13100Y12875
X11850Y11875
X11225Y11250
X10975Y10625
X11725Y10625
X12475Y10625
X15225Y12875
X13725Y14375
X12725Y14750
X11350Y14375
X11350Y16625
X11975Y17000
X10100Y16875
X8475Y17625
X7600Y17125
X7975Y13875
X8475Y13500
X8475Y12125
X3975Y14375
X1850Y14875
X975Y14375
X8475Y25250
X15600Y16875
X15600Y16375
X17225Y17625
X18850Y16375
X19600Y16875
X19225Y15000
X20600Y15000
X20100Y13375
X18850Y13375
X20820Y11375
X20225Y10375
X21975Y6125
X22725Y15000
X20850Y18750
X20100Y18875
X18600Y19875
X17225Y22000
X17225Y25250
X22725Y22000
X11100Y3125
T02
X17350Y3125
X18350Y3125
X19350Y3125
X20350Y3125
X21350Y3125
X22350Y3125
X14850Y18075
X13850Y18175
X12850Y18075
X11850Y18175
X10850Y18075
T03
X2350Y21875
T04
X1346Y20871
X1346Y22879
X3354Y22879
X3354Y20871
M30
